<mxfile host="app.diagrams.net" agent="Mozilla/5.0 (Windows NT 10.0; Win64; x64) AppleWebKit/537.36 (KHTML, like Gecko) Chrome/129.0.0.0 Safari/537.36" version="24.7.17">
  <diagram name="Page-1" id="zdLS6XzUSG3x8lp1yBCd">
    <mxGraphModel dx="1195" dy="701" grid="1" gridSize="10" guides="1" tooltips="1" connect="1" arrows="1" fold="1" page="1" pageScale="1" pageWidth="827" pageHeight="1169" background="none" math="0" shadow="0">
      <root>
        <mxCell id="0" />
        <mxCell id="1" parent="0" />
        <mxCell id="_MQMz2NcS-Aaa2Q7bcc7-7" value="" style="shape=image;verticalLabelPosition=bottom;labelBackgroundColor=default;verticalAlign=top;aspect=fixed;imageAspect=0;image=data:image/png,iVBORw0KGgoAAAANSUhEUgAAA14AAAKeCAYAAAC1R8ryAAABg2lDQ1BJQ0MgcHJvZmlsZQAAKJF9kT1Iw0AcxV9TpVIqHewg4pChOtnFijiWKhbBQmkrtOpgcukXNGlIUlwcBdeCgx+LVQcXZ10dXAVB8APE2cFJ0UVK/F9SaBHjwXE/3t173L0DhHadqeZAAlA1y8imkmKhuCoGXhFEGCHEEZeYqadzi3l4jq97+Ph6F+NZ3uf+HMNKyWSATyROMN2wiDeIZzctnfM+cYRVJYX4nHjKoAsSP3JddvmNc8VhgWdGjHx2njhCLFb6WO5jVjVU4hniqKJqlC8UXFY4b3FW603WvSd/YaikreS4TnMcKSwhjQxEyGiihjosxGjVSDGRpf2kh3/M8WfIJZOrBkaOBTSgQnL84H/wu1uzHJ92k0JJYPDFtj8mgMAu0GnZ9vexbXdOAP8zcKX1/I02MPdJequnRY+A8DZwcd3T5D3gcgcYfdIlQ3IkP02hXAbez+ibisDILRBcc3vr7uP0AchTV8s3wMEhMFmh7HWPdw/19/bvmW5/PxjqcunRS0wgAAAABmJLR0QAAAAAAAD5Q7t/AAAACXBIWXMAAC4jAAAuIwF4pT92AAAAB3RJTUUH6AoPDDUgtFUgogAAABl0RVh0Q29tbWVudABDcmVhdGVkIHdpdGggR0lNUFeBDhcAACAASURBVHja7N13eFzXfe77d++ZATAFAxAECFCg2MHeRErsvak7TmzLJXbqyY1L8sSJ4yROnOMkLklcI+fc45Trk/g4juMWy0WySIK9kxLFIhKsIsUCFvQ6A8zsve8fAIEZEGUA7AEB8vt5Hj1Cm8FobQgL716/9VuG4ziOAAAAAABpYzIEAAAAAEDwAgAAAACCFwAAAACA4AUAAAAABC8AAAAAeFB5GQIAbrFtW7Zty3Gcjn9s25a6Nk81DHk9XhmmIdM0ZZrcAwKQOsdxZFlWx+8b27IlOXIcyXHszl81piljEN/HHwgw2AAIXgDc19zcrPLyct28cUO3b99WRUWlKisrVFtbq5qaWtXX16m5qUmRaIuikYhi8ZjisbgsKy7bkRzLkuU4cixbjtr/AHIctb3XyZQh0/TI4zFlGIYMj0emIRmGR6ZpyGOa8ng8MkyPDNOQz+NVKDuo7OxshcI5ys3NUTgUVjg3rJycHGVnhxUOZyt31CiFw2GFw2HlhnMVCAUIdcAwZ9u2ysvL9faVt3X9+jXdKr+pO5UVqqqoVHVNtRrqG9TY1KSWaFStsZiseEyW5cixLVmWLcexZSWELTf5/QGNKSzUpEmTNGniBE2aPFnjxo3TuEcf1SOPPKIAwQxAPxic4wU8XFpbW3X16lWdKytTWVmZzp8/rytXruhmeblqa+qS7haPdF6fT36/XwG/X4FQSNmhoEKhkELhsHLCYYWzsxXOzVVObq6ys7MVzg5r9Og8TZo4WQWFBfywAC6IxWJqqK/X7du3dbM9YL115bIuX7qkK1euqvxmuVqj0ZH3B5RhKpQdUm5urvJGj1Ze3ijl5+crPz9fBQUFysvLU15+vkaPHq2ccFij8vIUCATk8/n4oQAIXgAexIB18cIFnTlzRmfLyvTWpUsqv1GuhobGBypguR7YvF7ljhql4nHjNGXyFJVMK9H06dM0acoUjRs3Tn6/n0HCQxmgmhoaVFNXp4aGRjXU16m6ulp1dfWqq6lRTU2tautqVV1bo7rqatXV16u+vl6N9Q1qbm7uWJ16GJkej0zTbLsJFAgqnJuj3Jwc5Y3O05gxRSoaW6iiorEqLn5EY4uKVDh2rILBID90AMELwHBz5coVnT97VmXnzuns6dM6e/6Cbt+8pebmJsVjsfT/IjFMeXw+5ebmqLi4WI+MfUQZmYO/q2tbjiKRiJqbm9TUHFFTY6OamyNqiUYUbW1RSzQqK25JUlsxY5r/qPP6fAr4/coZlasJEydpypTJmjqlRJOnTtbkSZNUPG4cpY0Ysaqrq3X58mVdunRJ165c0dXr13XzRrlqampVU1ut5khEsWiLYvF4235OyxqaP1SMtv+nDNNQZkaGMvxZ8mf4lZWVoWB2toKBgAKBoALBgLw+76D2dElt+8eqKqt19dpVVVVVKdLUPKSB0evzKTMrU6FgtsY9WqypJSWaOXOmZs6apRkzZmj06NH8sAIELwDp5DiOym/c0LmzZ3X6zBmVlZXp7Nmzunn9hpqam/v9R5DX51OGL0P+YEB+v1/ZoWxlh8MKBAPyZ2Ypy5+pzKwsZWX5lZmRKV+mT/7Mto9lZ4eVnd329aPz8lQwpkD5+flDXkJj27aaG5vV2Nyk5uZmNTTUq6GhUc2NTWpsblJ9Ta2uXb+uixcu6u23r6i6ulrNTY1qjcdlx+OuvhbT41GWP0ujR+dr4qSJmjJ5iqaWTNWUqVM1edIkFRYVyetlWy2Gh+vXrunE8eN649hxHT9xXBcvXFBtbe2Q3qjxZ2YoOydXjxQ/oqlTpmjK1CkaPXq0goGQgqGgQsGQwrnhtlAVCCoUCigjI2PIx6q2tk6VlVWqqqxQXW2dGpoa1dhQr+amZkWiUbW2tKqlNabW1qiikYgikYii0RY1R5rV1Nik+toaNTU1q7m5bX9sPBYbcJDzZvg0pqBAc+bN0+IlS7R06VLNmjXrvowLAIIXMOLZtq3bt2/r3NmzOnPmjMrOnNHF8xd09cZ11Q9gD5YvK1OjcnI1bvyjmjNrtmbOmqmp06apuHic8vNHP3Sbw+vq6lRVVaU7t+/oTsUd3blzR7XVbXf0qyoqVVtXr7raGjU2NKqltUXRaItaWlsUi8Vkx+OKDySwGabC2SEVFhZp/ITxmjp1qkqmlahk+nRNmjhRedzBRhrdvn1bJ954Q6+9/rpOvPGGzp07r6rKqkGv4hiGKa/PJ6/HlC8jU1mZGcrIypQ/06/s3ByFw2Hl5Y5SXt5ojcofpYL8fI0ZU6gxhWM0ZswYjR49+qHa7xSPx1VTU6Py8pt669JllZWd1pkzZ3TpwgVVVVcPeGUtOztbU6dO1cLHF2nx0qVatGiRioqK+MEHCF4Aurpw/rwOHTyoY6+/rosXLurq9euqqa7u/wqW16tgdrbGjRunaSUlmjFzlmbOnqmSadP06LhxDPQggnBzc7MaG5vU3Nik6tpqVVfXqLLijioqK3X79m3dKr+pWzdv6fbt26qprVasJfU72r6MTBUU5GvcuHEqKZmmmbPbSoqmTp1KSRH6rbWlVSdPndTRI0d19OhRlZ05o5s3bvTrhsHdQDVqVK7yCwqUlz9ahWPGaOwjxcrPH60xYwo1Om+UckeNUnZ2tgKBgILBIHsfB6G2ulaXLl9S2ZkynSk7o/Nnz+nqlbdVUVnZ7xUyr9erscWPaM7cuVqyZImeeGKxZs+ZzYo7QPACHj6XL1/Wvj17tHfvPh0/dkx3Kir6Vd5jGKZCoaAmTpqkaTOma8aMmZo+Y4amTSvROALWfddY36i3r72t8+fO6/Tp0zp14qTOnDmt2pralP94MgxTmZkZyssv0LSSEs2dO1ePLVyg+Y89psLCQgYZnT9vjY06dPCg9u/fr9eOHNWlixfV2NSU8o0bwzAVHpWjmTNmau68eZozZ45Kpk3ThAnjlZOTwwAPh0D21kWdO3de586W6WzZOV28cFEVlXdSvsamx6PscFgzpk/TE4sXa+myZVq8ZAmt8AGCF/BgBq39+/Zpz+49OnL4cMolPl6vV+GcXI0bN04zZszQrDmzNXPWbE2fXqL8/HwGdoSprKzUyZMnderEKR0//obKysp0586dfrXRNgxTuaNyNX/+PD2xeLGWLF2mefPn8QfUQ6SiokJHDh3R3r17dPDAfr195e2UV7MysjJVMGaMZkybrvkLHtO8BfM0f/58FRRwdMJI09LSqvPnz7WtkLXv+b381mVVVlaotaW1z0ZDXp9PEydM0ONLlmjZ8mVasmQJN+4Aghcw8ly9clX7DuzTvj179fqx13XzRnmfdya9Pp/GjBmjKSVTtWDBAs2bP18zZ87WxInjGdAHPIyVnS7TG8eP6dixYzp39pxu376l1mhLys8RDIU0taREy5Yu0aq1a/X444/ThvoBUl9fr9dee007t+/Q/gP7deXy5ZR+PnxZmRozZoymlUzT448v0vwFCzR7zhxC1gOuqqpKFy5c0KmTJ/XGsbYbPOU3bqipsbH3OcjrVeEjY/XY/AVaumK5li1ZppLpJXRpBQhewPBy4/oN7d+/T/v27dOxo6/p+o0bfZYOBkIhlZSUaOGiRVq8ZLEWLFigRx99lMGEbt26rVMnT+r1o6/r2Buv6eyZc6qpq5GTYllROCdXs2bP1Lp167Rp82ZNmz6dQR1hTp08pR3bd2jnzu06V3ZWDQ0NvU/k7eWC00tmaNETi7Ro0SLNnTdfxcVjGUyorq5OZWVlOnz4sI4eOqo3T59SVUWVHKfn3ymmx6OCgjGaNXuWVqxcoWXLl2vu3LkEMYDgBQzxJFZbq9179mjX9p06cvhQSkHLl5GpkmklWrN2rdasWaOFixZSHoaUnT9/QUePHtHhQ4d16OAh3bl1M6XyMq/Xq3Hjxmndxg36pXe+U48//jiDOQy1tLRox/bt+sUvXtWBvft0p6L3/Tumx6MxBYVavGyxFrc3T5g1a6YMw2AwkZKysjLt379fu3bu0utHjqqxsbHXEnjT41F2Tlhz58zR8hUrtXrVai1YuICBBAhegLtqa2t19MgR7dq1S/v37tWli2/1uUcrKytL4ydN1PLly7V27TotX7FCgQAdv+COyopKHT5yWPv379fRQ0f09pUrao5E+tzXMXp0vp586km9452/pBUrV/KH+n108+ZNbXn1Vb3y85d19OhrirX2XD7o9/s1YeIELXpisVasWKElS5fQZAWuOnnypHbv2q19e/bqzdNvqr6276NLsvx+LVr0uFasWqGVK1dq7rx5D9XxAADBC3BBc3OzXn/9de3ZvVv79+7XhQsXFGlu6vUxpsej4nHj9MSSxVq3dp2Wr1jOH0YYMtXV1W0/s7t269DBQ7r01sU+9wEVFhZq7Yb1+uVf/mVC2BC5cuWKXnn5Ff3ilZd1+vTpHq+RLyNTEydP0rKly7Rq9So9sfgJGupgyLS0tOi1145p966dOrh/v8rKyhSNRHr/Y7K98c+ceXO1atWqjiDG7xWA4AXc4+SJE9q1a7d27dyhs+fOqb6mts/H5IwapYULH9Oadeu0du16TZ06mYHEsFBRUaED+w6otLRUhw8e1M2bN3u8e20YpgrHFmnz5k1617vfo0WPL2IAXXTz5k299OOX9LOf/FRnz5V1G7YMw9To/HwtXrpEGzdu0Oo1azgAF8NGdXWtDh08oB07dujgvv26dv1anw2jTI9H+fmjNW/eAq1as1pr1qzR1JKpDCYIXgQvPIyuXrmqnbt2atfOHXr9tWOqqa5OqXxwSkmJ1m9Yr3Xr1+uJJ57gbh5GhLIzZdq2bZu2vbpFZWVnFO2hhb1hmBo//lG945ffqfe/7wMaT1fNAWlqatJLL72kH3zv+zpx/ES3ZYQZWZmaXjJdm59+Uhs3btLceXMZOIyM+fPqVe3evVs7SrfryJEjKZUlmh6PioqKtGTJEq1dv06r16yhwyYIXsCDqrKyUgcOHNDO0u06cOigyq/d6HOi8Pp8KhpbpMVLl2rjxo1auXK18vJyGUyMaNXVtdq5Y7t+/vOf67Ujh1Vb0/0fTabHowULH9P73vc+/dI730mL+hTs2rlT//Wf39X20lJFuinNCufk6oknHteTzzytTZs28YcnHghHjhzRzh07tHvnbl28cEHNfZTm3/39MnVaiVatWKm1G9ZrCQc6g+AFjFyxWEyvHXlNO3bt0L7de3Th/Pke7/InCoZCWrBwodauXas1a9do1qxZDCYeWJFIRHt379bPfvoz7di5U3U1Nd1+Xc6oUdq8aZM+9Ou/poWLKEVMdP36df3nf3xHP/nxj3X16rV7Qmw4J1erV6/Ss88/r/Ub1hNg8UCrqKjUwQMHtH17qQ4eOKSbN/q+ySlJ4XBYc+fNbSvdX7eOuRcEL2C4u3z5ctvZN6WleuPEiZTKHwzD1Ljxj2r1mrXatHmzVqxYJr+f7oN4+LS2tmrH9h364Q++rz279nR719rr9apk2nT9xm/9pl547wsPdQez0tJSfeub/6ZDhw7es7rl9/u1YuUq/cp73qUnNz2pTH8mP2B4KJ05U6bSbdu0fft2nTp5IqXDv71er8YUFmrp8uXauGmj1q5dq3A4zGCC4AXcT01NTTqw/4BKt27Trj27dPNGeZ8bfqW2O9Bz58/Tpk0btWHjRk2aNInBBBI0N0f00ks/1ve++z2dPHVCsW7+WBqVN0rvetd79Dsf/n9UXFz8UIxLfX29/vM739G3/v1buvb228l/LPp8mj1nrl547wt697vfrWCIlS0g+fdKs3bt2q3Sbdu0f+8+3U7xPMKMrEzNnjVbGzdt1KbNmzVr9mwGEwQvYCicP3dO20u3q3RbqU6dPJlSLbnX51NxcbFWrFylp556SkuXL+NMLSBFly9fbiule+mnull+b9lQVlaWNj/1lD780Y9o3rx5D+wY/NM3/kk/+8lPVV+X3PG0sGisnn/+eX3gQ7+qadOm8QMDpKjsTJlKS0tVum2bzpaVqamxMaXHFY9/VCtWrNDmJ5/UqlWrKN8FwQtwS1NTk/bu3attW7fqwP4DunH9ekqrWn6/X/PmL9D6DRu0cfNGTZ8+ncEEBsG2Hf385z/X//33f9drR47cc6fa6/Np2Yrl+vjHP64lS5c+EP/Nhw8f1j9/45+0a9fOpBIp0+PRYwsX6td+49f1jne8g0NjgUGqrqrWvv37tG3LNh3Yv193bt9OaW9YdjisBQsf08aNG7Vp42Y6sYLgBfTXlStXVLp1m7Zu2aITJ06oqalRSuGndHRBgVavWqXNTz2lNevXKRwKMZhAGpw+fUb/8s//rJd/+jNFo8n7m7xerxYvWaJP/MkntWTJkhH537djxw69+LV/0Ik33kgKmL6MTD31zNP68Ec+rPnz5/ODAKTJ8eMntHXLFpVu2abz58+mVJLoy8jUpCmTtHnTJj373HOa+4CuwIPgBQxKPB7Xa0eP6hevvKqtW7foejedwbqTlZWlkukztGHDOj359LOaO5e6b2AoVVdX6xvf+Ia+953/VHV1dfLkYphauWaVPv2Xf6nZI2RPxi9e+YW++qUvqaysLOnj4Zxcvff979OHP/JhFRYWcuGBIVRVVa3Sbdu0ZesWvX70NVVXVqX0N8KYMWO0afOTeua5Z7R8xQpWpkHwwkP8B1tVtfbu2aufv/wzHTl8WFUVlX3/sBqmRhfka+Hji/TUk09p3fp1nIMDDAONjY365r/+q771b9/SnTu3kz7ny8jUO9/5Dv3pn/+5ioqKhuXr31Faqi9/6Ss6eeJ40sfzRufrVz/0Qf3Oh39Xebmc4Qfcb7Zt68jhI9qyZYt2796ly5cud3tAeVd5eXlavmKFnn3+ea1Zu4YuiSB44cF35coVbX31VW15davefPNUShtpvV6vJk6arLVr1+qpZ57Woscfl8/nZTCBYai5qVnf+MY39H/+zzdVV518Jlh41Ch97KMf0cd+//eHzes9fvy4vvDZz+nQoUNJe0ezw2F96Nd/XR/7vY8pJyeHCwsM478rtpdu17Zt2/TGsWNqamjo8zHhnFw99tgCPfuO57V582bl5+czkCB44cFw+vRp/eSll1S6rVRvXbqkeCzW52Oy/H7Nn/+Ynn7uaW3cuFETJ05kIIERpLa2Vl/+0pf1n9/5j3vO7Zkxc4b+7u//Xo8vXnxfX99ff+Yz+vGPf6x4a+fvJF9Gpt71nnfrT//sT1lNB0aYSCSivXv36dVf/EK7duxQZWVln824srKyNGfeXD333PN67h3PD9tVeRC8gG7FYjEd2L9fr7zyiraXlupW+c0+H2N6PCoa+4iWLV+mp59+WuvWr1NmJgeOAiPd5cuX9df/86+0a+eOpM3xXq9XH/jVX9Vn/uavh/z/9f/41rf1t3//t0krcqbHo+UrV+pvPvtZTZtWwoUDHgCnT5/R1i2vakfpdp0tK7vnoPN7/iA2TM2cPUtPP/O0nnvuOZVwPAQIXhiOamtrtXvnTv3ilVd08NBhVVVU9PmYjKwszZg5Uxs2bNCmzZse2PN/AEjbtm3T5/76b3Tp4sWkj0+dOlVf/MqXtXgIuh9ev35df/yJT2j/nn1JG/MfHT9en/r0X+gd73gHFwp4QFVUVGjnzp3a9upWHT16RJWVVVIvDTq8Xq8mTZmijZs26ulnntHChQsZRBC8cP9cv3ZNW7Zs0dZXX9XJkyfVUN93XXVO3igtWbJUTz75pNavW6+CQkp5gIdFLBbX5z/3OX3r3/49aTN8lj9Lv//xj+sP/uAP0va9f/TDH+mv/+f/TOq86PX69IFf+6A+/elPKxAIcIGAh0Q8Htfrr72uX7z8inbu3KHLV67I7qVdvenx6JHiYq1ft07PPv+cVqxcySCC4IX0O3H8uF5++WWVlpbqrQsX+zxXw+vzady4R7Vp8yY9+dRTWrJ0iQzDYCCBh9jxY8f1R3/0hzp/9mzSxzdu2qz//c/fcD0E/ckf/7H+67v/lbTXY9KUKfrSV76spQ/IQc8ABu7atWvaumWrtry6RSeOv9Fn46+80flauXqVnn/+Oa3fsIGtESB4wR11dXXat2ePtmzdpn27d+vOnTu9/zAZprLDYc1/bL42btqk9Rs2aBKNMQB04TiOPv0Xn9Z3vv3tpIY702bO1Hf+8zsaO3bsoL9HdXW1/sdv/paOHD7c8TGv16t3v/CCvvC3f6uMzAwuBIAkkUhE+/bu06uvvqr9+/bpVnl5rzeZA4Ggli1fpiefeVqbNm2iKQ8IXuif8+fOa8eO7dpRul0nTpzo886PYZgaN/5RrV61Whuf3Kzly5cpGAwykAD69PLLL+tTn/yTpBLAkhnT9aMf/bfyRucN+HmvXL6s3/i139DFC+c7PhbOydVnv/B5vetdv8LAA0jJmdNntH37dm3ftk1vnjqlaDTa49dmZWVp1tw52rRpkzY/+aSmT5/OAILghWSRSEQH9+/Xlq3btHvXLt26ebPPlu++rEzNnTtXmzZtbv/lQucfAAPz1ltv6dc/9Gu6fOlSx8cWPvG4fvqznw34+d73nhdUfuNGx8eKxz+q//Nv/6bZs2cz4AAGpK6+Xrt37dKWV7do/969quylkZjX51PxI49o/aaNevbZ57R0GWXNIHg9tM6VndP2HaUq3bpNJ0+c6PUOjtRWnjOmsFDLVizX5ief1Nq1a1nVAuCa2tpavfc9L+j0qVMdH/v13/pNff4LX+jX81y9ckW/8iu/knSMRcmMGfruf/2XiooKGWgArjl96rS2btuibVu26eKFC2puburxa8OjRmnp0qV66umntH7dOuVTkkjwwoOrsrJCBw4c1PbSUh06cEjlN24ktVPuTjA7WzNnzNC6jRu0ceNG7hQDSKvGxia9/4UX9MaxY5Labvj8y//3r9r81FMpPb6qqkrv+qV36mJCy/oZM2fq+z/6ofLy8hhgAGlTVVWlfXv2aeu2rTp66JBu3bnTY6dEX0amZs6cqQ2bNmjT5s0cp0PwwkjX0tKio0eOaNeuXdq/d58unD/f56qW4fGouLhYK1au1IaNG7R8+XLl5uYymACGTH19vd73nvfq5InjkqRx4x/V1tJShcPhPh/7wrverQP793e8XzJjhn7wwx8oPz+fgQUwpE6ePKWdO3doR+l2ne5lb5hhmBo7tkiLFj+hjRs3afWa1TToIHhhJDh9+rR279qlXTt26tTJk2psbOpzVcvvD2rhooXasHmj1q9br6klUxlIAPdVdXW13vXLv6IL585Jkt7zwnv0ta9/vdfHfPav/kr//E//3PH+oxMm6L9fekljxxYxoADuq8bGJu3bu0fbtpZq757dunnrlpyE4y0SZWRlavKkSVqzdq3Wb9igJUuXyuv1MogEL9xvF86f1769e7Vnz14dOXJEdTU1fT6m7X/oyVq5cpXWbVivFStXyes1GUwAw8rt27f17NPP6FZ5uUyPR//+rX/X+o0bu/3afXv36oPv/0BHy+f8ggL9+Kc/0aRJkxhIAMPOW29d1o4d27WzdLtOnjyp2praHm+U+/1+zZ03T2vXr9PqNWs0Z/YceX0EMYIXhiBoXdCBA/u1d88+nTxxXLdu3Uo6ELQ7psejsWMf0aInHteGDeu1YuVKFRVxBxjA8Hfy5Cm9/73vVV1NjcaNH68du3bec7hyPB7XhrXrdKl9X1cgFNK3v/MdLVmymAEEMOy1trbqjTfe0PbS7dq7e7cuXrykSE9NOgwpLy9fs+fO1urVq7V8xQrNnDlTGRmcSUjwwqCdPn1aBw8e1IH9+/XmyVMpBS1JCofDmr/wMa1Zs1ar16zWrFmzGEwAI9LLP3tZv/exjynW2qIX3vs+ffXFryV9/sWvvagv/f3fSWprxvHFr35FL7zwAgMHYESqrKzUwQMHtXPnTh3cv183eznA2TBMjcrL08yZM7V02VItXb5MCxYskN/vZyAJXuhNLBbTG8eO6eChQzp08KDePHlSdXX1KQWtrKwsTZ85U6vXrNHadWu16Ikn5DUpHwTwYPjqV76ir375q/J6TH35q1/Ru9uDVW1trVavWKXqqkpJ0u9+7KP6y7/8SwYMwAPj6tWr2rtnr7bv2K7XDh9VbW1Nj38bGoaprKxMTZ46VYsWPa4lS5bo8cWPq7i4mIEkeD3cbt68qWOvHdOhQwf12tGjOnf+nFqjLSk91h8IavKUyVq2fLlWr1mtpUuXKRDg7gaAB9eHfvWD2rl9u7Kzs/Xd731fCxYu0Je/+EX9w1fbVsCWr1ih7//ohwwUgAda2Zky7d23V3t27tabb55SdXV1rzfpDcNUXv5ozZ0zV48tekwLFy7UrNmzVVjIuYYErwc4ZF26eFGnTp7SsdeP6cyZ0yq/dVOxFINWVlaWJk2eoiVLl2jl6lVavHgxZ9IAeKhUVlZp47p1qqyoUFHRWH35a1/Rn3zij1VeXq5wTq627dih4uKxDBSAh4Zt2zp16pT27Nmj/fv2q+zN06quru6zo3VGVqby88eoZOoUzVswX3Nmz9X0mdM1ccIEeX0+BpbgNXxFmptVVVWlyqoq3SwvV3l5ua5fu663r17V9WtXdefOHdXX16e8mnX3f4jJkyZr6fLlWrlqpZ54YrFGjyZoAXi4ff9739cnPv6HchxbptcjO952l/ezn/+CfvO3f5MBAvBQi8fjOv3m6bYgtn+/Tp08qbqaOkl2n4/1er0Kh8MqeuQRlUwr0YwZMzV7zmxNnTpVjz76qAzDYIAJXunR2NiomzdvqvzGDd2+c0eVFRW6c+eOqioqVVFZqerqatXW1qixoUnNzU2ybTulvVjdDr5hKhAMaPLkyVq+YmVb0Fr8hEKhEBcCALp4/vnn9cbR1zrenzFzpkp37mBgAKAbp0+f1v69+7V/314df+O46upqe2zW0dPfqf6gX4UFhZowcbwmTZ6iiZMmacqUyZowcaKKi4vpqjgcg1dLS4v+4lOf0isvv6xH1MwTKQAAIABJREFUx4/X1KklmjatRJMmT9H4CeNVVFSkvLy8Ibl4LS0tunnzpq5cvqwLFy7q0sWLuvL2Fd28Ua6K9hWqdPFlZKogf7RKpk3T44sXa9nyZZo//zH5/Zn8JAJAH37y4x/rYx/5aMf7f/elL+mDH/ogAwMAKbhw/oIOHz6sw4cO6+SJ47px44ai0RbJsQf0fF6vV3l5eSooLFRRYaGKisaqaGyRCscWqaCgQAUFBcrNzVXeqFHyBwLyDVEpo+M4ikajamxsVGVlpaqrqnT79m3dvFGuG+VtiyvlN8t1++YthbKD+qd/+RfNnTfvwQhep0+f1h/83u/pbNnZHtO0x+tRIBRSdnZIebm5ys3LU37eaIVzcxQOhZUzKkfBQEh+f6YysrKU4cuQ1+uVx+tpG2DLkWXHFY22qLW1RZFIVI2NDaqtrlZNXZ2qKitVUVGhyopK1dTUqrmpsV+Jv18Dapjy+nwqKMhX0SNjNXHSJE2fPl0zZ87U9OnT6S4DAAN06uRJPfv0Mx1VBj/40X9r2YplDAwADEBFRYXePPWmjh8/rlMnT+rc2bMqL7+pWGuLK89vGKY8HlNer1eZfr/8/iwFA0EFgwEFgkEFA0EFQkH5M/3KysqUL8OnjIxMeUxTptcjr8crj2nKsm05tqVYPK54zFJLrEWx1pgi0YgizRE1NzWrsalBzc3NamhoVKS5WS3RqKItrbKseJ+VaeFRo/SlL/69nn3++ZEdvH70wx/p05/6lBoaGh6YH1LDMBUIBZU7KldFhWM1blyxiseN0/jx4/VI8SNt/37kkXsO+gQADM7p06f19OYnOybR//rhD7Ry5UoGBgBc0tTUpAsXLujM6TM6d/aczp0/p8uX31LVnQq1tLT22bxjpPJmZOpPPvlJffT3P5be75OuJ/7HF1/Ul774paSUmZWVpWUrVqi6slqVNZWKNEUUaW5qT7CxYTHwvoxMZYeCGl1QoAkTJ2rixImaMH6CJkyYoOJHx6lobJFywmH+zwSA+8A0jM6t4uxQBgBXBYNBLViwQAsWLLjnczdu3NS1q2/r7bff1rWr13Sjo2SvXA31TYpEmhRtbZUdj6etsmxA84bXqwyvVxmZWQoEAwrnhDWmoFA3rl3T5ctvSZLirS36wuc/p0tvXdJXvvbVkRW8vvLFL+vFF//hnqW90WMK9O3v/EfSx2pr61RTU62qqirduVOh27dv6fbtO7pz+5bu3KpQVVWVrHhMHq9Hptcj0+ORxzTlMTzyeEwZHo9M05BpeGR6THk9HhmmKU/78ubdrze9HgUDIQWCAQUCAfn9fmVnhxQMhuT3+9uXOwMqLCxScfEjdHABgGEXupIPh7cG2NgIANB/xcVjVVw8VkuXLe3285FIi+rr61VfX6ea6irV1TeorqZWtbU1amhsVFNTk5obG9XY2KTmSJNaWmKKxVrV2hpTzIrJao3Lsi05jq14P3+/e2RoVF6e8gsKVFhUpDFjxqiwqFBjxozRmIIxGpU3Srm5uUn7zP7+C3+nf/z6i0nP873vflfXr13Xv3zzX5WTkzP8g9c3v/lN/ePXX0y5019ubo5yc3M0adIkfqIBAD0zTEncFAOA4cjvz5TfX6DCwgJJU0fsf8f+fXv1ax/8kH7ys5+6/tymm0/22pEj+vxnP9exvBgMhfQbv/3b/CQCAAbNYxpJuct+QPcaAACG1oyZM/XYwoUd779+9Kj+9z/+v8M3eDmOo0/84R+pNRrt+NjipUs1fVoJVxMAMGhdS8A5hRIA4IZQKKQ//tM/kZFQ0v6PX39RFy9eHJ7B63//r/+lS5cuJX1s1cpV8ni9XE0AgBvJK2lSpLsGAMAtq1ev1uiC/I73Gxoa9Ik//CPZtnvVFYMOXmVnzuivPvMZvfi1F+/53PzH5nMVAQAu5a7kKcvNyRAA8LDPMYbmzJ6T9LHXjx7Vx//g48lfOIhyi34tR1Xcuqntpdv1xhtvqKysTJcuXVJDY1NSIw1fRqbmzJ2rUyeOa8qUKbrk8hIdAODhZHa5VejYrHgBANwzfcY0Xbx0UdFoVJV37kiS/vsHP9DlS5cUjTTr6tvXFLPjys/N1cbNm/WJT35SowsK3A1eFRUV+tQnP6nS0u299uU3PB69+L++rnhrTH/2Z3+m/Px8riAAwBWGYShx0YvgBQBwg9Neuj5u3DhNnTJV7//AB/S7v/M/Oj7/xrFjSV9ffuu2/u///bZeffVVfevb39bc+alV+fVZatjc2Kh3v+OdevXVLX0ehpaVkaFnnnlGMgzlhtt63zvsfgYApAFdDQEAA+XN6Fx/ulu5nl8wRoYpPfv8sxozZoxMj6fX57hzp0K//Zu/pfq6WneC1+f+6jO61H6qsyTljBqlD3/ko8rLy+v4mGGY+ujv/54WLnpclmXJcRwFgqH2iZHgBQBwgWEosZ888wsAYOBTyr3nQgZDIZntH5+/8DF94hOfUJbfn/Q1m556SuFwuOP98vJy/d1nPzf44FVx+7Z+9NJPOr/Y49GL//h1ffozf6nCwsKOj69Zu1Z//hd/IV+mry142ZYyszK4ogAA9ybJrh8geAEAXBQI+HW3in3ChAl6369+QF/88peTVr7+/M8/pZ+8/HONSliE+vFLP1HFrVuDC14//elP1NTY1PH++o0btHHjxnu+bvWaVZIky7LU2toqy3aU4fNx9QAArjFNM2nSsiyCFwDA3Xnm7n4vvz8gOdKq1avk9XWWJRqGoZKSEn3ik5/s6Lbb0Niol1768eCC147S7QnfxNSHP/KRzgcmJL+75R6ObSsWi8myLBkek6sHAHBNd2UhAAC4xWN6OjZ8Oeq+pP1uBnr/B96fVAFYunXbwIOXHY/p3LlzHe+PnzBeS5cu7XxgwgR49yyVeNxSNNoiK25x5QAA7gevhLnHcZhrAADucWxHVnvYirW0yrYsWQnHZhmG2XETMDMzU6vXre343JunyxRpbh5Y8LpRfkOVVdUd7y9bsaLPF2tblqLRiCzbkmMxIQIAXI1eYs0LAJAulmN1HFVSV1/XZ/fcDRs3dLxdX1+vC+fPDyx4Xb38dtLK1fLly/t8sXHbUqS5WXErTu09AMDd2NUldXGOFwDATbHWWMfxWbU1tX3mmQXzFygjK6ttTnJsnT1zZmDB6/r163LaU57X69WcOXP6fLGOZSsSjSoejysWi3H1AACuMc3kKYtzvAAAbmptLy+UpMbGBqmPeaZ4XLFG5Y7qeP9ywhFc/Qpe1bWdB4EFgiGNe3Rc0ucNs7O5xt3aR8uyFY1EZcViilvxbr4ZRSIAgIFp2+PVOW05tJMHALgo2hJVvL13RUNDoxw5cpy7fQ67VzS2qOPtGzfKBxa8aqo793cVFOQrEAh0CV73hijLthSJtqg1Fles9d4VL4/p5YoCAAYcvBJnHoIXAMBNkWhEVnupYXOkWZZlybZsye7MP113G0+YMKHj7Tu3bw8seDXW1XW8nT9mTEov1nEctbZGFYvFFLMoNQQAuMfsMmWxxwsA4Ir2ksJIY7NisbbgZcfjKd3gK06oCqxLyE/9Cl6RlkjH26NHj07pNcctS9FIRK2trYq3xrmIAAA3k1cSy2aPFwDAleQlSWqORBRvXzwyDU9KwWtMQUHH241NkYEFLyveOaHljRrV65N0HKDsOIpEIopEIoq3N9fgTC8AgFsSy9x7r7oHAKB/IpGI7LsZyGOk1KV99Oj8zsc3NQ4seCkh4YVzcu59oNeTkLzaH2LZisXiirW0KM7BlgAAN0OX0aWrIaWGAACXg1cs1tqeuww5tpW06mUahjweT9JjssPZHW+3tj+2/8ErYd9YMBBM6cU6jq1YLKZorFUOK10AAFeDl5E8OQEA4KJoS7TjSCyPz9fW1bCP6oqAv7MBYbyP47R6DF6ehPNSfBm+lF6sZTmKx23FWmMyuqRBAAAGF7yS33dsbvABANzT2tKqeDwu27bl9Xplp7CXODMrM+Xn7zF4+bydYcvr6b0N/N1DLC07Lsex1NLSomCX9vMAAAyGaZoyWfACALiga/m6JFnxuGKxmCzLkteTYvDKdCF4ZWRldb6wbma67s5Safu3oZZIRP6ExwMAMPhJMnkuunvTDwCA/jK7CV7+YECWZcu2bfkyfN13NewSi0zT022I61fw8iesWFmW1c33vPehtu3IME1FIhFl+v1cUQCAu8ErIXzZtJMHALgoFAwpbsVlWZZ8Pq8sy5KT2NnQMO65CZg0T3nMgQWvQCjU8XYsltphyLZtyesxFIvFFAgGuXoAgLThAGUAgJuCoaBi8Zgcx1FWZpYcx+mzusK2LTntX+PrY3tWj8Er09e5x6u1tffWiHeX4WzLks+XodbWVmUnBDcAAAbLNM3kMneaawAAXJSdna14S0yxWExZ/qxuq/66iiXkpIw+tlr1vMfLl9HxdiTS+ynMdyc/K27JH/CrNR6nuQYAwFX37vFixQsA4GLwCoflOLZaWmLy+wNyUihpb4l2Bq/MTP/AgldWVueKV31d7b0TYA+tpfz+gOKxmAIBSg0BAC4Hr4QNzOQuAIAbrPZ9XMFAQDJMtbRElOXPUjzeXZ+L5AwUaelcoPL2cQRXzyteCYmttq7+3gd2173DNJSdna3WWKuCIYIXACB9HJIXAMBFwVBQhqRoNCp/ZkCObSUfoWyY92Sgpqamzvw00OYaWf7OGsX6hvpen+RuuYchaVROrmLRFmWHw20TI5ufAQAu8Hg88ng67zTG43EGBQDgmlAwKMM02oKXP0uWbfdZXdHQ0NAZvHwDXvHK6uhJX1dd0+uTOO2rcB7Tq5xRuYrH4wq2lxraDpufAQAAAAxvwexseTxeRSIRBYOBlPYS11TVJOSnzAEGr4TmGrV1dSm92PCoHAUCfsUtWwGaawAA0si2OMcLAOAef5ZfhmmoualJoVB2SvNMTW1C8PIPsKuhEmoUmxoaZMeTv3HXjWWSVFRUKK/Xq7gVV3Y2e7wAAO4xDDNp7qGiAgDgavDyZ8lretTcFJE/GGg/w6vLqleXBoPVlRUdb2dlDHDFK1HblrIuwaubroZFhWNl27bi8bhC4VyuHgAAAIARErz88vp8ikQiCgT8si1blmVL7QckG+a9R5tYCeWI3oHu8eqPuBOXbdsKZ4fUEm2RbVkKBSk1BAC4p8tcR1dDAICrMjIylJXlV7QlqmAg0O/zIj0e7+CDl+0kp7nuWLatDH+WWlpbZDuOAgQvAICrwcvoaPok3VP8AQDAoOeZjMy2Fa/s7HBKN/j6k81SXvHq8xs7jhzbUSQSlRxHoWCIqwcAAABgxPD7/Wpuam47kziFY7EcK/X9xgMuNfSYyQ+1bUfRaFQtLVGZpld+uhoCAFxlJm1qpqshAGAwU0p3AlkBNTY3yp/pl921x4XuLXvv+vm0BK/k1OXIti1Fo1E1NzfL6zWVlZXJBQUAuDdHmkaXTc0UGwIABjinGN3HoGAopEhzRP6gX3Ik27ZTjk+mxzMEwUuOHMdRS6RFjY2NMj0e+RLOAQMAAACA4ciyO8sFAwG/otGIAoFAn0Gq32HPrSdyHCkSjai5qVk+n0+ZmQQvAIB7DMOQmbDide9dSAAABicQDCgSicrr9cnn8Q198EqlmMNxHMVjcUUiEWVmZCgzMzPlxwIA0Hfy6jLvkLsAAC4L54TV3Nwkn88rb8b9WPGyHTlWcoQyPJ0PtW1blm3JsuOKRKPKyMyU2d58w7GJXgAAAACGv1AorEhzRKZpyuPxyU7KMoa69BeU1Y/qC1dKDW2nLWB5fT5FIxFlZWZx1QAArjLapryEyc5iUAAArgoGA4pEIpKkzMwMOY7dUcI32ODk2h4v27aUnR1SJNKsDPZ3AQDSlb4AAEiT7Oxstba0SJIyMvrXpd00jaEJXo7jqHhssSLNbV1AAABIL0rZAQDuB69oa6skyee7D801Ugldtm1r1ty5ammJKhQMcdUAAK4zEu4mWhygDABwWSg7pGh7qaHX6x0ewSvxEEvHdpSRkal169cqEmmRP9j9ipfhoUYEAAAAwPAUDAbV2tK24pWZ6ZPjOOqosDCMpAyUtuBl99G3NycnrFAwqEgkolAPpYamQfACALjDodQQAOCyUCikeCwmSZo8ebISy9q7SzL96eCecvBKdYKLRCIKhig1BAC4z0yc9qg0BAC4LBgMynbsLm3ke8lIzpC3k+/8htFIRKFQNlcNAAAAwLDXVk7Yxu/3y3YcxeOxfj+PoTR1NTQNs9sXG22JKhAKcgUBAO5LmNP6U94BAECPwSthPgkGg3JsR/F4vO+JqOtnDDNNwauHPvUt0Sjt5AEAaQpeCQcoOxygDABwl9/vlxxb0WhUkmTbdtIcZJhD0FwjVS2trcpmxQsAAADACJOVlSWvL0MtkbZDlN3s45Ra8Opz01jnK2ptaVV2djjhoZSCAADcl1jmDgBAv0JQD2WBXq9XPp9H0dZoSs9jOy53NXT68Q2jkagCwWDC52g7BQBwR9I8yY09AMBAg1cv5wt7vRmKtB+i3GfwSkc7+Xtnv+5b+sbsuEIBSg0BAAAAjDxZWZlqbW3tPgL1Fp/MNAWv7pbnHEmyHWVn004eAOC+xFa9DhUVAIA0CIWzFY10Nte4W91nmEaPDQbb8lGa2sl3p7W1VRkZPuXl53HFAABpZbHHCwCQjuAVyFZzU7Prz+vqAcpWPK4MX4YClBoCAAAAGIGCoUDKzTWGPHip/a5jPB6Xx+dTZmYGVwwA4DrDSCw1ZMULAOC+7HC2WqIt9yl4Oc49beG7q2+Mtcbk9Xnl9Xq5YgCAtHJE8AIApCF4ZYd7aa6RrD8d3FNe8eo6wRndbB6LxWPyGCZXCwAAAMCI0LVZU3YwpFgsJkmybCspdN2TgRKqLwy3glevL7Z9NSwajcowDa4eACAtzB6OMgEAYKC6Tieh7KCiLf3f4zU0was9JcbjNsELADA0EyXt5AEAaRAO56q1pdX153W1LtCyYjJF8AIADAG2eAEA0iCUHVI0Ooy6GnbXXCMej99zsDJdpwAAbjES5hjbZsULAJCe4BWLtd6TZUzDkAbRzyKlR9qSepvf7h5iGYvHZXi6BC+LiREAAADACAleoZBisXh7luna2X3gz5t6O3nH6vnT7eEqHovLY3q4WgCAtKCYHQCQbuFQWJZlpfS1tpWGdvKpsCxLHs7wAgCkS0KZu2XFGQ8AgOsCoYDi8f5X7Xk8nqELXo5jK8Pn42oBANKOHcQAgLQEr0Cg12q/gRpw8DISSgrvTn7xuCVfZgZXCwCQFpxYAgBwg9FLkwy/P9hxLnLi0SWGYdzTSHBIgleiuyc6W1ZcmRmZXEkAQNpRaggAGHAI6jV4ZcnbXjbouFhf4WqpoW3bCvj9XEkAQJqw5AUASC+fzyvTY7r+vCk9o6MUz+NyHGVnh7haAID0xK6EO5Ts8QIAuKG7nNNXo4y77lb+uRa8pLazvJImvx4C2uiCAq4eACD9E2XcYhAAAGnh9aTWqd2xEw9Ydil43ZMCE5prWPF4+78tFRaO4UoBANIiHaUfAAB0FQgG2oKV43SGK8PsveLdMNITvHr6XhMnTuJKAQDSE7wSJjXbodgQAJD+4OUWV0879vkyNGv2bK4UACDtbLoaAgDSxJ/lfsNAl4JXWxJ8bOFjCofDSZ+xHJsrBwBwhZniZmcAAAZj7ty57s9hKX2V7cix7R4faVttwatr6JLcXZ4DADzcjIRSQ+YXAEC6zJs/rz3o9P51Tj8WmVLf49Vlgks8dCzVb2h6vFxFAIArLIvgBQBI81yT0C7eMI2kG4BtuSyxq+EQNtcAACCdPF5KDQEAw5RJ8AIAPDASSg3FHmIAwAjKZW48iU0DDQDAkMYuyabSEADwMAQvT8JS2j2NNwAASMekZVJqCABwWS838pwud/lMc+DrVoN4JFWKAID7OVGy5AUAcGE66WURybLjHY0ETSO5wWBagpfj2LKZ4AAA91nifEc7eQDAfQ9tCVNRX6GsH+3kB/QpAADcC170hAIAuDGf9NGBMPXg1ZmEDNeCVy/Y4AwAGGoOkw8AYKDByzCG/HsOvLmGwV1HAMD9myiJXQCAdEta0ZKR3F53qIKXkWLwcpgaAQAuSaqfZ3oBAKQ7eCU03jAMc1ArZe4sW/W2wZlO8wCANLAdi0EAAIwY/QheTi+TH7cdAQBDMGl5EksNmXsAAPdZ4n5j04XgxdQGABgWwes+bIYGAKAnltNZ3udJV1dD0+thpAEA941jUcsOAEgvO/mgrkE918CDV2Kio6UvAGAImJ7Om37ELgBAuiWf02XINAfeIsOV5hqWzfQHAAAAYCSGq6HJMhzGBQAYoRMl1RYAgMEbquI9ghcAYMQwEuvrCV4AgBEkxVOQHVldNjGbHjIbAAAAgAdXYgbyGMY9BygnNnrymh4XglcfbDpLAQCGgKnOCc+msRMAIO16n2v6U3zBshUAYMQwDKYtAMDIxAwGABiZHKotAAAPQfAyU7zraDMxAgBcYiTsL7YtSg0BAOnl5kzTY3rq61zmxM5StqyeXyxdpwAAbk1alBoCAFzQtUlGT+x45yKS4fGk/Lj+BS8jMVg5vQYoshUAYKhxYw8AcL8lVvcZHte6GjLBAQDuL09CqaElStkBAPeXk7itqo/VMGo2AAAAACDNBhy8kuobWQwDAAw1Sg0BAG5MJ72eC2kPPji5Gbwcm3IPAED6mQmNndjjBQBwKXr1+Bkrca4xPfcneAEAAAAACF4AgAeMkTBtOdS5AwCGEY8bXQ0dSTblhACA+x28EroaOkxLAID7zE64CWi41dWwayl94iGWlm2lNmGyvgYAAABghOhzO3E/bgIOvLmG2f9Tm00ZXD0AwIB5Eu/gseQFAEgz27IS8s/gnqvHh/e1VAYAwFBLvOln09UQADCCmP3+RL9TInckAQAAABC8XAhXFiMJAEi7xBWv3g+8BABgiOcow43gZd97UKVnkAeIAQDQX6aReIAyFRUAgPRKzEDd5qqEuciVdvLt37Xr7MeVAAAAAPDAspOC1735x+rHtioavAMARgwjodrC4nxJAMDAJ5SON4eqgsKV4MXkBwAYknky4WYje7wAAAPl8XTGoKHqksuKFwAAAAAM1+Blcs4XAGCIeb2+jrdprgEASDc7sbqij/zT1znIKQUvp/2f5GfmQgAA7uNkKEoNAQBplnCTr6+FJ4/XO7DglfS8jt3rWV0Okx8AYAgYVFsAAIYRy079POOeg1c/2sVT7QEAGAqJZ6Q4NHYCANxn/Vl+orkGAGBkTnbkLgDACDLg4OUxPCl9ne1YjDIAwBWpzj0AALjBTjgg2TAGt2blzopXL7cdbYv9XwAAt5JXwtTDkhcAYARxJXgN1aFjAAAw9wAAhmWw8gywq2ESx6FzIQDg/k9qnGUCAHDbIGKOk3QT0IVzvLp7Qf3peggAgBsS28k7NjcEAQCDZ8se0OckybFcaCffFw+THwDgfmKPFwAg7XNNQv4Z5MKTK3u8HDoXAgCGgGnS1RAAMELnMIYAADBSJJa5OzTXAAA8CMGLs1IAAMMZhYYAgOHE63Wjq2E3kg4Q46YjAGAIcFMQAOAGI8XtWknVFX08yDBc6GpoO47iVjz5iT2dTxy3uO8IAAAAYGQwzdTWnxLPjExaeGpn2UPQ1RAAgKGW1E6eroYAgPvMsVOfiwheAICRE7w8nCEJABiZ0h68bFrNAwAAACB4DUxijaNFuAIADIWEUkObSkMAQJrZtntdBAccvEy6GgIAhjx3USEPAHBXb1uGnYQFpsSzJIc0eAEAAADAyE9eQ/NtCF4AgBHDkzhr0dUQADCC9Bi8jH6spCUdLAYAQJokHU7J1AMAeBCCl0xDvZXSJ37OtlJrrmF6PIw4AAAAgBHBshLu8hn3bY8XZ6kAAIaW6fF2vO1mpykAALqVUNY+2PTDHi8AwIiROOk51BoCAEaQlINXb/u4bPZ4AQAAAHjI9CcGpRy8rF73cRG8AADpZ5qcIQkAGFbRy/3g1ZXHpFEGAOA+TnWOxSAAANI81wyD5hpGitvLqEIEALjFNNiaDAC4T3NQX583jfQEr6RwZaeYEgEAGISko0wYDgDAQENUGm7kGaaZ/uDVa/ICACANuLEHABhwSEooG7SHKMuY9+GRAAAMeqIEAMANjt1z8HLzJp/Z8+RmqrdjwkyT5AUAGFomwQsAMIQSO7sbgyxPJD0BAEYkx3YoNwQADJnB3vpzp7kGEx8AYAiYiUeZMPUAAEbSHMYQAABGCvZ4AQAeuuBlMvcBAO4jRzYVFwCA9M41Q9Fco88HJpZ7AAAwBDwJc49NrSEAIM1sq7PjoeEZBs01LO44AgAAAEB6gxcAAMxaAADczynMZjUMAOAOI+EMSYotAAAPR/BKsbuGZVuMMgAAAIARJzHLDHbFyuw5V/UerDwJn3d62eDMDUkAgFs8oqUuAMBdjmP3/LmE6j1jkM0FewxeBpMbAGCYMT2dk55jWbIsm0EBAAw2eQ34of3ZVZXSipkjybaZ3AAAAAAgMSe5GrwAABgOPF7OkAQAjEwDP0DZ4+1MeiyGAQCGgGF0Tlu244idxACAAWUZI7UYZCc01/DcrwOUU32xAACkBf3kAQADllo/CydxrrlfwQsAgCGfJk0aPwEARiaCFwBgRE5aju0k34kEAIDgBQCAu9MWkQsA8FAELzOxxjGhu8bhQ4cZVQBAeiYtD/cLAQBDx7ashOA0uHL3Ac9ghtH9Nz5x/ARXCACQHglTj+PYlBoCANIbvFLIP4MOXh7PwJ746rW3k953bCZFAIA7THVtJw8AwEiZw1zW0NCQVHdvOxajDABwZ9Ki1BAA4DLLcudQ4r6WrVyZweyEFxtpjqi1paX7F2PQBhgA4BYnuQYEAAC3Z5r+VFf0kXXcaa6RIB6PKx6Ld/8YghcAYBASb+DZlk1VBQAgvcErYduUx+sZ1HN3uIVRAAAgAElEQVS5XrNhW7Ysm4kQAOA+0+NhEAAA94Vxv7oaAgBwv9FeAwAwUrgSvBJb+hqmIa/Hy8gCAFzXtWKddvIAALelq2vuwM/x6mGpzTDNQdc/AgDQ0+yTHLwYEQBA+oKX7bjXxWnAwctjdh+uvF6vPNTgAwAAABiBrFhnv4rEyopu84+Vem+L1IJXPw5BzszIlNdLqSEAwH2GkTxt2TZLXgCAAeglBdm2PbTf0uw6ufVysJjjdKZBX4aPCwkASM+kZXYpNeQgLwDAgOaTniv00nVUSc9Zb4BnbmVlZHAlAQAAAIxIju2kZQ/xwJtrmN0Hs4ysLK4WACAtTDNh2nIcuhoCAAYftLq8H7eszvklaZ65T+d49RS8AsFQ0vtWnDIQAIA77pl5LIIXAGBw4rbVJb/EZbU3zUjcS2x4hsEByrbjdGxC8/v9XD0AQJqSl8kYAADSyrbttFRUuDSDOR1LdP6sTK4WACAtPF2qLWyaawAAXGbZlhzH/fnF9VuHPh+t5AEAQ4N28gAAt8Xj8bS0lB/4Hq8euh5yhhcAIF0Mw2AQAADpDV4xS077jT0rYf/XYOegAQevxM5SjpTQ8YNJEQCQHiZ7vAAAaeY4VrdnGJuDLBZ0ZwZL6HUft+JcLQDAEE2O7PECALjPSsMhyj0GL2OAK1cO9fYAgHQxqaoAAKQ5dFlORzv5IQlepodyDgDA8MIeLwBAutm2ldBcw71FJVeaayS+nHga0iEAAPdMjFJauk4BAB5ujtV5jpcV75xnhsUByo5jJ9TZU2oIAEgPs0upocOUAwBwWdyOy+qmucZ962rYcwjjYgEA0ha9GAIAgLu69KiwbclKQ8NA12ewe9IhHacAAOmYtBynoxQEAADXcpgdl52GhoFpv3UYj9NeHgDg0qTVpfGTbbOvGAAwgPmkly658XhnqaHTxzaq/twAHERzDU/nxCenY4MzZ6oAAAAAGNbBy+g9eDnt53jZCdnGNHqPTn3tAEs5eFld7iq2pUSzmxfK3UcAQJomyi4rXpQaAgDc5thOt30rjD7OkjT7aL7hfqkhcyAAIE0Mo2vwYkwAAO6KW9bI3OMFAAAAACOFY9my7SHsamiYZsqpzHE6yz3u1kMCAOC2rlUclBoCANwWt+Od84uL7St6CV5GrzvETNPsnAATluIsm0kQwP/P3n2Hx3Wd977/7TLoBAFQrGABCwBRFHsBiwptS7FkRbJ95di5tmU7jn1THDtR6jnJPSlOzk2OnGJbTk6Sex3bybVP3O3YstUciRIbWMACUuwiSIAFLCCINsDMLucPgMAMMCiD2XtAUN/P8/gRTApFs0m8+K31rncBIQWvQYXJo+YAAALm+wODA5OGa5iZNQvSaggAAAAAfdzJcsaLcfIAgLCMNsoXAIBMOY6b1NF3ewUv3+ufZnhrWw4AgKAljvL1xbliAEDwPM+TG8Jm0vgvUE7MXRq41XmkbTnTsniSAAAAAG4fg0KW6zry+zaTghziNO7gNVyIotUQABAW22YBDwAQRvhKeNP1+wcG+gmbSpm2u4dwxis5Fbq0HgIAwuD5XKAMAAic47mhtLIHdMbL7w9cjPYFAITFGLTaSM0BAATNdRw5ThYvUE6HlzDrnoPOAICwWKYlMdkQABAixw2nY88c/jdGLmyGkfp2ZZ++DwBAlnCuGAAQNC9huIbrDWwqGTJCCl6GIY3wwS1WHAEA2WYODl4s9gEAguU4juL9rYYDdcayQgpe40URBACExTDMDNcbAQAYvnvvVvAa6wTDdPouAglevjdwxstxOOMFAMgWFvsAAOkbKVh5jiM7Yo+tCqWx6US/IABg0hi8QOm6BC8AQLAcz5NlBX9v5JiDlzf4Pq7h3pNzzgCAkJimKcOk2RAAEB7XdWXbvTtenjOwwGdk6wLlwdtow031cBknDwDIgr7bI3khAACB8lyv9/qSQTJd+AvmjFdfMpRS7IwBABAQ00woW75HzQEAZJ5lfF9ewiaT67kyJ7LVEACAiUebIQAgXJ7ryTQnQfDyvOSWRN+j9RAAAADA5OB4riyrNyZ5Aba0jzt4JbV7JAYtP/mLc7nXCwAQkN4pUwm7XnQaAgAC5rpO/3CNxDkXoZ3xsuxRZtcbyX32t74o36UKAgCyw/OpOQCAYPmen/KCZdMIa7hGmh/3VhikCAIAAACYrHrHyad/xmu0+BT4GS+f1kIAQEgMQ0rs9KDmAACC5rlef6thejXKyHbw4mEBALJUHOmyAAAEzHWd/nkWvhdcuBl38LKswYnO7/9CAQAIg2EwTh4AEC7P8/uGOUmePzCh3chwxPy4g5eR0MXoS/2TpXyx5QUACIdpmr39hgPVkRcFABAo13NTTnDPdO2PC5QBAJOW4xC8AADB8l1XOeM445X14MUZLwBAWGg1BACEFLf63/Lky7CswD9DgMGrd9XRicd5bgCALAUvdrwAAOOoJwnzKjxfchNa1z3H66833u0xXCPxAmVfrsdWFwAgu1zOeAEAAuZrYKEvcaqhmeKmrnTmW5jDp8DxZTKfAAYACIlhWLwIAIBQeb4nM8UEQ8PIrFlw+OA1zg/sem5yECOHAQAAAJgkfPkyzeDPFJtpfAVjC16uy9MCAGSFx+oeACD45BXKMKcxB68hgSrhi/GUcMaLIggACIllGVJCR4bHGS8AQNA89d/j5XnBbSqN/wLl4VIgo34BAAAATFK+/NTDNayQzniNV35+Pk8LABCKwYt+Pl0WAICAeb43sa2GY5UbyeFpAQBCYZrJw3x9l+AFAAhWWIt6gQWvW/2Ppj38qF+TNkQAAAAAkyWEKbizxOO/QHmYEJWXmzv8OxkmTw8AEBjPZ7gGACDEOuMO1JlMN5HGnYRMK/XOVm5uHk8IABAKwzCSKhdnvAAAmfOTJ7MnvO2PIf8EELzGl+jy83N5dgAAAAAmS+xKXsgL6XTUsMHLTiPR+Z7k97V75LDjBQAIiWEMGq7BjhcAIGB2JJLd4JWuW3dY5uQw1RAAEFbwSv7/vgheAIBgTSubPlBnvODqTOBnvCI5ya2GQX6xAAAAABCmKcVF/W+7fZPbJck0J2i4hmEYMlJ88rzc5B0vz3d5egCAQJgm03EBAOEqKChMnX8yrEGBVbBbZ7zy8/N5WgCAUBiDeg1dl3HyAID02ZY9aq4JWoBLh70thXl5BC8AQJYwXAMAELB4PH67B69eeYyTBwCExLIsmWHN+QUAQFJXR1f/26MNcUraHDNDCl7GMDc35+QQvAAA2eEywAkAELBodCB49Y9ul2SaI1+3ZRpmiMGrL3wllr1ISHPvAQAwBu92+ZzxAgAEq72zY1zBajTBtBr6Xv8llvn5XKAMAAgpeJmG6DQEAIQpGo2G8nGHDV6WZSbdVDnWSyrz8wt4WgCArPAZrgEAyLSWeH5SPYl2dGY3eA2+o2ustS03lzNeAIDs8AheAIAg6klC53p3T3dCBgquzoy71dA0zZTvnJOTw5MDAITCMIyh57wAAAhQtHsgeCUNLbQyqz+BjZP3+i6xZLgGACB72PECAATLczw5TorhTcZtErxuycvLoyYCAEJhmqaUMFXKdV1eFABAsMHL9+T7wdeXwINXJCd5x8tzSV4AgGAYhjHkDDIAAIEGJGP4O4tvr+Bl2zwtAAAAAJOTYcruyzS+d5sM1+jvc/R9eX2XWIaRDgEAuFVjEuuMT1cFACBgBfmpp7TbZmYbTOaEvCsAAOOLXlQfAECoZs6eM1wJmqjgBQAAAAB3lqVLl4bycYe/QNmweNUBALcVyzKTWg1dn6mGAID0jXQ86u3veHt2g5dpjT14eQr2VmcAAMaE0gMAGAdrhAm51dXVAzknwGtLzMy+WLO/8HkeDxAAEDYj6R4vAAAyNsZ7u4zb7QJlAABCi12G0XvByq1aSbcFACBLzAl+fwAAJkyQ96sAADCOQpTt4OXL9+k1BACEi6siAQCT1biD15AeR9o9AADZCF8Jb3ss+gEAQuS6CXUmwzPGGQWvsaw80n8PAAiLR40BAGSJaWUpeI03QHliNRIAECDaDQEAkzG4jTlAjXCA2fd8+VymAgDISuEyxlSbAACYlMFr9GA2+s6WabJMCQAIEGe8AABhlpkA68ywwcuQZIx0gIwLLAEAE8DgJhQAQJYE2VgxUrIa+R3ZvQIATEzyAgAg68xRNp5GK08sGwIAJq2xtLkDAHA7BLNAgpfve/IpfgCALDASOi58hmsAADLOMtmpJex4AQAAAEDIoSyDC5SJbQCAieX5Li8CACC84JVwZVbWLlBOGb6SvigAAMJnGAn3eLlUHwDAOEKQZWdUf7IevJLSoMuqIwAAAIDJELyy37oX3AXKPquOAIDsFi6PC5QBAJOwfoXCcx1eZQBAYBJbPZioCwAIU5DTc0cMXsaIhc8St1gCAAAAeCtI2Z6YRtefOXywUlr7YR5nvAAA2Sl9A/WOe7wAABMonb4LzngBACaXhFZDx2PRDwAwOXATFwAAAAAQvAAAGGBRuQAAAfIk+cN073kBdlaMu3zZlpn0zjQaAgCyXixdphoCADLlDxu8koKTkdnK35jf2x8l7fmc8QIAAACAzIIXAAC3BYOrTAAABC8AAEIOXgOly/OZaggAuNOD1+AFRzoNAQBZRps7ACBMnhtcnRl38DIMI6ndw+UCZQBAFhj0agAAJoBlW+EEL8MwAulD9FiMBACEhBIDAJgswl83pA0EABAWj3HyAACCFwAAgTPEVEMAQHZqiafgFvjGHbxMM/ldPdfhCQIAssqjqwIAMJ7gNdarSRLqTKYLfxkN12DNEQAwocGLg8QAgGyFNXOCghcAABNS+LhAGQAQIF+Sl4UzwwQvAAAAAG/58DVpgpdLuwcAIMuFizskAQChBrJRzhL7CRnItMxwgtfgVg+f21QAAFlAqyEAIGvBKyFYWWZme1aBTTUEAAAAgDuVYUxQ8AIAYCJYtt3/tudygTIAYHIYNniZRnqz6v0x3KVCewgAIFOJK46eT/ACAEzy4JW2MdQ+k+AFAMg0ePESAACyxA1wgW/MwSvl1MIx9Dl6PkM3AAABBi97oPYw2AkAEK6EOpPhyt/Yd7wGpT0jrUZEAADCrYcAAIQp0/QTWKshffYAgGwwWfYDAEzK+hVY8GLZEQCQhcJlWf1v+9QeAEAQslBOGCcPAJi8ddIjeAEAMuQNv5AXZJ0Zd/AyTKN35jwAAFnE1SQAgOCNHrBMa8IuUE4ufB6rjgCALDBNK6FOcr4YAJA+y7bSTz/GbTJcw/ddniAAIKtczngBACaJYYOXIYN2DgDA7Ve4aHMHANxJwWs0ZDIAwIQULgoQACBLPNeZ+OBlmtykAgCYWK5LmzsAIDtsy8ro/YO7x8vjgDMAIAuMhNLFGS8AwCQR+j1e3LECAAg2d9FvAQC4PfhpTNcNPXh5Hm0gAICQagw7XgCASVJnMhiuwYojACD7zMRWQxG8AAAhBq+Es8QTdo+XZVhJk6U44AwAAADgTmWYmTULmryEAIDJVfkG3vSZ6wQAyJDvS64bfkEJPHjt37+fpwcACI2VMM7XI3kBAAJ2+PDhLAevxGm9kvwx9tHX7a9TT08PTwwAAADApFN/+LDi8bikLA3XMGTKuHWA2feG3NNlWMmHy259TW1tN9Xa2sYTAwCEwkjoNWSoIQAgaF1dXeps7+wrNAO/bmmCzngZhpE02cPru68rHnMUi7HjBQAIh5lwuNl3HV4QAECgXNeT4w2tL5Ztjrk+BRq8hg1kYtQ8AAAAgMkrJycn8I8ZePCyLFORSA5PCwAQCtNM6Lbg5QAAjENi2/pgdsRWbm7ubRy8+iZLmbat3EiEpwkACKlaJra5c4ckACB9lmlJRuoolJebp9yc3uA11gGDWQ1efl/wsgxDOXnseAEAAACYfEzL7r8z0k/6dWtigpdhGKlTotEbvm65NXQDAIAgcI4YABAm2zKHqT8TNNVwWL7kMt8XABCSxMLlurQaAgCC5YQ0MTe4VsO+f3LQGQCQLSzzAQACry0hdewFFrxurTr6KS5bBgAgKEaGPfYAACTz+udVSJLjegkhLAvByzSMpJG9Q37fNKUUv+84LsELABBe8Eo840WrIQAgYI6TutXQtCbqjJcxzPR735fPGS8AQEgSC5fDQh8AIGDDXVWSariTl0buCfAer1v/8OW6BC8AQEjBi1ZDAECIXDecRb3AgpfX9wX6npJ6JCmWAICweLQaAgACD14JrYYBHvIKLnjd+qfv0moIAMgOyg0AIOjglXTGK7hCM+7gZRpGqtka8n1/2B0vAAAyZZgDpcul3gAAgg5ew4yTH2bCRfjBS8N8Yja7AABZQ+4CAARdWlwndQefMVFTDYckrltnvHy5TJkCAIQksdvCJXkBAALmOE4orexjDl6jZamkVJjwtkcbCAAgQEZi6aLLAgAQdPByXfl9BcYLsM6kseM1tgDlOE7SOHkGbQAAQkONAQAEHbyc+MCmk5eN4RqjnB2zLDP1ATPfY7gGACA0lmUm5C6CFwAgfUZC37rn+0n1xIk78n13xPoTaPAyTENGGoM7brUUej6FEAAQYrFMONzse9QbAMB4asnwMwpdx03ZUGFk+DmDv0BZvnyXHS8AQPjosAAABC0W7wllI8kM+gP6vs+9KgCA0JgJrR4eHRYAgIDF4448zw/8fuLAg5frumLMFAAgtOCV0Afv0WoIAAiY5ziSPPn+oFRjTNAFyoZhJPfZ9606+r4v36UQAgCyUBzpsAAABCzuuClbDUMbrpEu13V6g5fny/VcnhgAIBSGZfW/7dNhAQAImOM4odxWYobxxTLVEAAQFiux1YNyAwAIOni5zrgKjGUa2Q1evW0fVEIAQPhY6AMABM11XLmuK8/z0xviZJjZCV5+QhF0GScPAAAAYBJy3PjY8k+a9xdnNFxDCdtpvuMlfBGsQAIAwmEkHG72Xc4UAwCC5Q8zMdc0B0en9DLPsMHLkJnWyER/pCgIAEBQwStxnDwvBwAgYJ7npwhZI0anzIKXDMkI4AsndgEAQiuOtLYDADLNK74vL6GceL6XtMgXFDOML9znQksAAAAAkyZ9DSSv3guUJd/3Aj1CFVjw8vzePnsuTwYAhMlImBrlcW8kACBgjhdON0VGwStxC46BGgCAbDANkxcBABAaX75SHboyzczaD800voIx8zjuDADIAs+n3gAAAq4trqcQjniNPXiN9QCzJ8mj3RAAEBLDNHgRAAAZFpMR8kzfGa8JC16judVq6It+ewBAeCzTGqg9TDUEAIwrdw2fvBzH7c83QQ4NDC54eRQ/AAAAAJObM8zgpkxHzJthvLPP7V0AgCxwOeMFAAia76cMWSEP1xjfB/dc2g0BAOFIPONFtwUAIPDcFdKdxOZIoSudkb3erXHybHYBAMIMXgmrkJ5H0QEABBy8+rsp/KSLlUMMXul+gX3DNQbvdlEUAQChFUdqDAAgrBoT7J5SZsFrmANmiYXQ9Wg7BACEVBRZ3AMAZMrzh9wLaZpDY1KqX8ta8DKGaUUkbAEAwpI4AthnuAYAIPAc5g+TfSZwqmEi1hwBANlJXgOly6XVEAAQsAkYrpFmMuy7xNIboQgmXnoJAEDGuEAZABAKQ5Ivb4TtJd/3h863yEbwSvoCWIEEAGQBrYYAgMBri3rbCj1Pgbb1mby0AIDJxLIHeuxpNQQABJ+8Ui/qGUZm3XuZDdfgsQAAsixpuAZTDQEAARvu6JRp3ibDNTyPdg8AQJbRaggACLKs3ApdIewwDRu8LMOQYaX/GT3XlccKJAAgJGbCVEPOFAMAgg5evu/3jtbwvfSOePnjDF7j5UkSwQsAEBIjodWD/S4AQJBc15Pfn6D8tArNaK2IGQWvTPscAQDIBDteAIBx5RjLHKaueOMPVkEFL2+UPvp0ZtgDABBI8BLBCwCQPsMYFJK8W8HrVl0JfoNpzMFrtFXFxOkfrjcQwpg4BQAItVgCAJAB3/fkek5vjnFd+Z5kGMHfuhX8GS83+aYxLrcEAASbvBKKJc0WAIBAQ5gvJWwiBVlouEAZADCJKySLewCAYIOXF1Ibe2bBy0h9iSXNhQCAbPCoOACAALmuK8lIGZIsy5rA4JX4RSbMWnRdViABAOGwDIsXAQAQiltzLQxzAodrjJXHrSoAgGwVSCbqAgAC5IZYV4YPXsb4higyxRAAkLXgxUsAAAiyrvh+0mh5N8D7IocNXr3ba0YaX+Rw/wcAgOAktn94LPYBAAINXreKTYr6k+HdXhkO1zBThi2PKVMAgJBYCcGLC5QBAAFHr2ET0uBzX57npVWHGCcPAJi85ZEdLwBAgNLZPkq3yS/w4OXTZggAAABgEvJdN7QrIoMPXqw+AgBCZJgD4+R9WtsBAKEUG0Ou68sP8JqswIKXl/BFJb3NDhgAINBaaPAiAABC4bquDDP1iEHLzCw6ZfTexhjem0EbAIDQCiSLewCAAPm+P2wHX6YLf8EP1yBoAQAAAJiUwSu8jx148HJdjwEbAIDQWAlnvORSbwAA42GM4XeC3VAyR/qtdHbTXM8dSIoM2AAAZAVdFgCAccSuYc5Mub4n9d3X5ft+oMemhg1epmHITDhAlmoXi+PNAICJxBkvAMBEh7WMg9eQ4ua6vNoAgIkvfCavAQAg+0xjAqcapuL7Xu8WHQAAYQSvhD54zhQDACZNcAvqA93aEXM9hmsAALKDM8UAgEDriuvJNBLPeAVXZ2jYAABM4uBFhwUAINDKMvCm5yX//4kMXqkuEcv0YjEAAEYsXEl1hh0vAEB2GOaEXqA89JNbti3fZQUSABBW4RsoXZ582tsBANmpP6NsMI029TCwVsNbhc+27WHn3WeaEgEASKo9rPMBAAJPWGYo7xdY8Lp18My0kj9k0u4XbYgAgECDl8uOFwAguLriq39Vz/W8QBf4Rgxe3qjvPDRI2ZadMpABABBI4TItagwAIBSJ+0SjLez1Tj0MIngZgw8wD2XbVorgZQ3baggAQMbBi+YJAECo6St1RLKswb/upzXiyRy+sBmjTyhM/P2+uGcN2vECAAAAgMmcuwzDzHh6e4BnvHp3uUyLpUgAQJgFcaB0WZbNNSYAgEkh8AuU2fECAGQreAEAEGyRGVjMC/r0VIYXKA99d9uy5ToODw0AEA7maQAAwspdpimjb4CgN2TU4AS2Gibdy3XrHi+LlUgAQHi8hGtKDEoOAGAcRsosRoqAZZhGxncSB1ayHNft/YCWxZMEAIQXvHw3oYgZnPECAEwKwZ/xMk0uswQAhBe8PK4sAQCEFY6MED92wGzblsMZLwBASHyX4AUACIdhGDL7WgqDXugbc/BKtYuVqs/RjDDVEAAQHjexHtFmCAAIPHyZmUan9N7bMI3kg2Wen+KdB85z3UqEuZGIXNpAAAAh8RPqkcF0DQBAgMzhBmgYhiwrpOEahmHJTKeg9RVCy7LluS5PDQAQVvLiNQAAhBS8wlvQC364hm2rpyfGUwMAhMJlgBMAICSGYcjqGzU/YWe8xsq2LcXjBC8AQDgS7/EyuTsSABBo8LL629iDntSeUcUyE/oc3b57VUzTUk83wQsAEFLwotUQABAS01TGFyWHErwSL628lQht21Z3T5SnBgAIJ3gxTh4AEBLDMGRbQ6e0m4aRlH2yHrxSfrGmpe5oN08NABBO8ErY8aLREAAQJNM0FYlEwvnYQX9A2zIVjbLjBQAIh6/EcfLc4wUACI5lWbLs3h0v30+sOEO5riulMc09sODl9039sG1b0W6CFwAgpODlMdUQABBS8DIMRWyrP3gFeYVJZsM1jMQLlPvu8WK4BgCA4AUAmIRM21YkkhNGdApuuMYttm0rFiN4AQDCkTTV0OCUFwAgOJZlybatlLHJNMMarmEY0jjuRzFtU7GeHp4aACCc4JU41dDkjBcAIDimaSqSmxvOxx7pN9M5s9w/Tt6yFY/HeWoAgFC4HuPkAQCZMUwr5X1dhmH1j5P30qw3hmWMP3ilw++b6GHblnpoNQQAhIYzXgCAcFiWqUhO7zj5WxtLY35fwwoveFkp+h8jkRy5DjteAIBwJJ7xshgnDwAIkGEo5T1ehpFeN2DgwWu4MOb5rEYCAMJKXrwEAIDwRCJ26lCmsIZrpOlW1DJNi1G/AIDQOI7DiwAACE1uXl4oH3fMwcsf5fIw99ZwDdviaQEAQuP5bHkBAEIMXjm5fflngoKXM8apHrZlp5wQAgBAEBIXAg3u8QIABB28IhMwTn40KUcwmkbKoRsAAATBc1xeBABAaHLyclKmpsHZJ92ph4EvFdqWrfzcfJ4YACCc4MU4eQBAiPLzh2aZVP18vp9e+DKDymWu17sCadmW8vMLUv47jP0FAGQcvBJ2vGhtBwAEHrwKerNM0At9Iyar8bTOm6alwikFPDEAQCjchDPHmY72BQBgSPDq2/HyXU9BZq/Mznil+DXLMlVWVsYTAwCEwvc44wUACDN4FYbycTMcrjH03W3T1pw55TwxAEAoHIdx8gCA8BQVpZpXYcg0MxsgGNxwjb46aNqmFi9azBMDAITC10DwsjjjBQAIWEHBWHe8Jmiq4a2JHnl5eVq67B6eGAAgFB5DDQEAoQavgoR844+Yf9LpwbCD/kLnzZvH0wIAhMb3aDUEAIRn7tzyhOAVnIx2vCzD5MkAALIcvBIKIXUIADCeEDRC+RhuUGCmN2NlOFzDSF0IAQAIiet7KesQAABjzjFppihzHO8z7uDluiOP7/V9xvsCAMLnMdUQADAJjTl4+T6FDgBwGwQvsdAHAMhCvfFuozNeAABkW+JZZ1O0GgIAwqo37ijBzEsuSmEGL9MYuESM/TAAQFYKoZtQcRiuAQDIEnPQRI50px5mNlwj4YCZ7zJcAwCQheDFSwAAyLJMB2tkHLwAAMg21+OMFwBg8hn7VEMurAQA3AYSry9J6HgHACDYeuMzXAMA8BbmsfBHjfQAACAASURBVBAIAMhKwQn2w2V2xssa6HV0uccLAJCNOsj1JgCA29Box8Ay2/Fiii8AIMuSWg0pRACArKQqc8iADdf1kwY+WaYVYvACACD7yWugDhoELwDAREmvA4PgBQCYVFyXVkMAQBbqTcCt7WMOXomtHSl/3+dmFQDA5CuEAABkw9iDV4pcZTPHFwCQZX7CVEOTM14AgCwwTCPj9nZaDQEAk4qXOFyD3AUAyF78IngBAN5CwYvrSwAAmUaoCVi5Cyx4+Rx2BgBkwWhnjgEAGDUEmaPHIM9z5Y0wx8LzfCmNmpRG8BpluIYIXgCA8HnuwI6XYXHWGAAwScLeWP9F1x3a2mFZdCoCALLLdRxeBABAVhkBZB+SEwBgUuH6EgDAZBRY8PIohACALEisNyZjDQEAYdUbb4IuUB4VuQsAkAWJ5cY0aNwAAIRUbwIe5pRRxTIoeACArAcvVvoAALdBPfI9+f7Yd8XMsX/goYXOYLgGAGAC2TZTDQEA4TMNI+NNp7EHr1G22sayFccOGQAgU4mLi2YkwgsCAJgc4S2wQjiGbTbD5BA0ACC45JVj27weAICQys1tdMYLAIDsV8KBQsgFygCAsLi+e/sEL4MxvgCALEuc7mubrB8CALIj0+iTUcWicxAAkG2JUw1tWg0BAFkJXYYsM7MuizEHL2+UM1xuwBeMAQCQOnkN1BuT4AUAmCDpXrCc0Th5AACynrsS6pFFyzsAILSCE+yHozkeADCpJK4v0moIAAgtd/m30VRDg9wGAJjAQmgRvAAA4wlB4xnONJHDNRLv5fI8WhEBAFmQUG8yPegMAMAYg0/GE92D27LyGa4BAAhf4jKfbdN5AQC4PWrSaMGM4RoAgMlV5BIW+iKRXF4QAEAoXNeRP0JXn+f7Uhrt72MPXrQSAgBuj+jV/xbDNQAAoVWb0Tae0oxHGfVoWLaVnPgAAAhZ4jqgHYnwggAAJoXMhmsk9DGyIwYAyIbkM17seAEAwmeYxm00XAMAgLBDl+8nXeRlWUw1BACEVHO8YIcHErwAAJMrePnuQPCyCV4AgHC4ExW8vBTj4o2kYsg4eQBAuDzPo9UQADApZTRO3jLtpGIIAECYfF9Jo3tNi+AFAMhCaDIk00yOTq7nKp0EZGb8FQAAkLXg5cn1GScPAMguQwzXAAC8pYKXnzRPPsIZLwBAaDUn2I8XWPBimDwAIGye5yWdKbYs1g8BACEFr4Cvy8qsYiXstnmuM+S34/E4TwwAEFwR9H35Smw15AJlAEDm4o4T+ufIaKqhZYzc4vHdb3+bpwgACDB5KanFIhLhjBcAIHNdHR165ZVXhv19w7KyeMZrHEML467LUwQABGbwImAkwo4XAGA8BoUo01Q8nt6uV28r4tjbEQNrjk/VAunECF4AgACDl+fJo9UQAJAhy7JkDtrBcga1G3qj3lOc3hmw4IZrpBj74XgOTxUAEJjBtcbmHi8AQAAMSY4THzXfZCKj4GWMco9XPBbjKQIAAuMOamHnHi8AQDDJy5DjhNutl1HwGnx7c6JYjImGAIBgDV59tLjHCwAQkJGCl2Vk8QJl10svAXbHeqQMvzgAAAYHL5/gBQAImGEYcuLhdusFd8ZrUPtHTzSacSoEAGBw8EqcsssZLwBAIKHINNXT3ZNcc0bbeErzCJgZ1hcfjXaL2AUACBPBCwAQFMcdPNVw5H/f9Xz5aVy5lVHFGukC5c6OdpmGyRMEcNvwfF/d0ag62zt1s71dXZ0dutl6U40XGnW+4byam5t19cpl3bzZpo7OTnV1dike65GXcK7INAzZtq3c/HwVFBRoypQpKimZqml3TdesWbNUXl6uBRULVFFRoZkzZ/KiB8x13aQFRjuH4BWGtrY2NTU16eqVK4FM9TIMQ0VTilVcPEXFxcWaMmWK8gsKWKAFcNswZAwZJz/oG1nGnyOjijXSVMOuaFSmRfACELyeaI/ONzXq7Jk31drWpvb2m+po61DrzVa1t7f3vt3Wqs72drW3d6i9vV3RaFRO3JHjxeXEnb5LDyXf90L5Gm3bVkFBgWbMnKVZc2Zr9qzZmj5jumbMmK6SqaUqKyvT1NISTZ1aopKSYhUWFio/P5+HOwrf95W4vGianPEaTiwW182brbpy5apaWq7rxo0bam/vUFdnp9rb2tTe0a7Oji61d7SrtfWGbt5oU8uN62prbVW0u0dOPB743w/DMGWYhuyILduOyI5EVFRYpOIpRSqaMkWlpaUqnlqs4uJilZaUqrhkqoqnFKtkaolKSks0tWSqpk6dqrKyacrJ4Q43AIEmL8VHCF6GYY44WDD04DWkGCaIRruHnPGyKJAAxigajer69etqONug06fP6MyZ03rz9Gmda2zUlUvN6urquK2/fsdx1NbWpra2Np0+dXLUH0bz8vJVUFSgsrIyzZw5UxUVFaquvlsrVq3Q0qVLVVBQwB8KSd6gHBBhuIYk6fz58zp48KAOHTigo28cU2NDg661tKirozO0xYXx/azgyXelmOsqpt6zFG03buhimh+ncMoUzSkv1+JFC7VkSZUqqytVuaRS5XPLVVY2jdleANLPXYYh3w33++WYg5c7SpOjN+SHpi5Z1qCCyAYYgD7xeFzNzVd04UKTGs816nzjOZ07d05N55vU3HxFLdevq729LbQfGm+tvMswZMqQjN5fG/K9yhv4gbHvDbm+L3l+YF+b73uKRjsVjXbq+tWrOnXihLa/9lrSD5lLlizR6jWrVVNTo3XrN2j27FlvyT83vs89Xm1tbTp04JD27turvXv36tTxk7pytVme62b8d8KyLeXm5qqkrFRlU0uUm5+vnEhEViSi3NxcRSIR5UQiysmJyLIsea4v13fl+5LrOIrHHTmOo7gTV9yJK9YdU3e0U92xmGLdccVi3YpGo+rp7pHjOfJcT57npf21d7a369Tx4zp1/Liknw4E8ZxclZaWaNas2b1tvwsXaMH8ClVUVGju/LmaOXMmixgAUn8PVIozXl6wP4OEVrG6OjrY4QLe4lpbW3Xu3Dmda2jQ2YYGNbzZoPPnzunipYtqbWlRd08so3Ym07JkWbaKpxarZOpUlZaWqqSktLdNqbREU0tLVVRYpMIphZoyZYqKioqUm5uvvLxc5eflKb8gX7ZtK2JHZNmWTNOUYRgyTat/xdz3Jdd15HmeXNeTE+/9gbKrq0vd0d4fIrs6u9TR2aGbN26orbNDbTdada3lulpabqilpUXXr11TS0uLuqNR+eMIbJ3t7Tp04IAOHTigr375X5STl6s5s8u1fsMGPfDgA7r/gft11113vUWClz8oeN357WZtbR3aseN1bX99u/bu3qOGhrOKRqNp/Tm6tdBQVFioadOna87sOZo5u/dM4pzZczS7fLZmz56tGTNmaNq0aRm304zG8zx1R7vV2dWpjo7e1sebbTfVeuOGrl9v0c3Wm2q5fk1Xrl1Ty7UWXbl2RTdaen99pO8Z8ViPrjQ360pzsw4fOjgkVObk5qpk6lTNnDVb8+bN1YKK3lBWsXChKioWcC4TeEsnL0NxJ/ke4rRPuBohBq9U35h3796tjRs3Khrt4X4V4C2gq6tLjY2NOnH8hE4eP66Tp0/r9OlTampsUnc0mvZKtm3bysnJVdGUIpWUlmrmrJmaPXO25pTP1vQZMzVnzhyVTZummTNmaNpd05WfnztpXivHcdTc3KxLFy7pwoVGnW9qUmPDOZ1rbNSFxia1XL+mrq6ukQ/3Sop196jh7JtqOPumvv3Nf5dpWVpQsUAPPvg2PfRzD2nDhhoVFNyZ58UGB6/IHXjOp6enR3v37NXPfvYzvbrtVZ09dXrUPxOGYWpKcbEWLJiv8rnzVD5ntmbNmaPy8nLNmjVLc8rnaObMWYpEbo8dQtM0VVBYoILCAk2fPj2t9+3o6NDlS5d1ublZFy9e0qVLF3Sh8YIuXrigi5cvquV6izrb29UTi/V///F9T068d+Gkq6NDFy9c0IH9+4a8hpHciGbPmq2FCxdrSdUSVVZWqvruu7Vw0UJNKyvjGz5wh3N6BoJXZ2fnqGMNB3dhmKNM2s3sO3BC7vI9X20dHbp4obdTO+7GFbE4+ArcSa5evaY3jh7V4cOHdPjgYZ06dUqXLl1UZ8fYz1uZlqXCggJNLS3V9OkzNG/+vN42oHlzNX/+ApWXz9GMGTNUWFh4x71+tm2rvLxc5eXlWqd1QwNVLKaLFy/rzTdP6+SJEzp27JhOnTilC01Nunmzddgfvj3X1dkzb+rsmTf11X/5soqnlmjFqpV65JFH9I6HHtK8eXPvmNfQdb3ebcg+Q1raJ6mmpgv62csv68XnX9TBQwd088aNUf8szZg1W8uW3aOaTRu1ceNGLV16j3Jzc+7470NFRUVaUrlESyqXDPvv3LzZpubmZjU1NerNN99Uw9kGnWtoUNOFC7p+5Yra2tvlxAetbPueYt09OtfQ+++++srPBgJ+Xq6mT5uhRYsXatmye7Vy1UotX75cCyoqZJocKAPuBKZpJg3XePGFF5UTGfieaphGxncUBzhcw1PzxUvq7Ors/QGiJ6aCEiZ0AZOV43k6dvSo9uzZp/179+jokSO6cOGCuqPR0d/ZMJWXl6tp0+7SvPnztHjRYi1eskSLFi9SRUWFZs2epaKiIl7kQXJyclRRMV8VFfP19re/vf/X4/G4mpqaVF9fr0N1B3TgwAGdOnVSrTdupmy5arvZqu3btmn7tm367J/9qSorq/Twwz+nJ979hKqqqyb5qzQQugzDnNRnvE6ePKkf/ceP9LOXXtbxE8cUG3RxZ/KCha3Zs2dr7bq12nLffdq0ebMWLVrIX5phTJ1arKlTi1VVVZn0d6l3gSOuq1evqfH8OZ04eUKnTp7UmTNn1HC2QdeuXFF3d8+Qv1fx7h5dvNCoixca+89f2rataXdNV2VVpdatXa/1Neu1avUqTZ06lQcATEKGYSSd6dq3b59qNtYE+jnGXrHG0EvefKVZPT29hcN1XNnseAGTRuvNm9q7Z49qd9dq7549OnX6tDra2kZsFTQMU3YkopmzZuqee+5RVVW1qpdWq6qqShUVC1VYyCH2IEQiES1cuFALFy7UE0880f/rJ06c1O5du7Rr5y7t2b1L165fH/K8Yt09Olpfr6P19frSF7+ghUsW69FH36VfeP8vaOHCyfeDe99ck4FAMsnOEp89e1bf/fZ39dxPntPZ08O3EN5qHdywoUZve8dWPfDgg5Pyed2eCxwRlZfPVnn5bG3ctDHp9zq7utRw9qxOnjihN44d05H6Izp57ISut1yT67hJgcxxHDVfvqTmy5f6w1heXr7mLZiv1atWa0NNjWo21fDcgMlUYxIW995884xWr1o9McHLG0Pwunrlqrx4bxHpifVwjxdwm/I8T8ePH9f+vfu1u3aX9u/br6bzTRo6n3Tgh8DcvFzdNX26Fi9apHvuvVf3Lr9Xd9+9VJVVlTLHsfUejztqampUPB5XVVUVD2UcqqurVF1dpY9+7KOSekeKv7btNb36yn+qbt/+IUHMcRydOn5Cp46f0Bf/7u90zz3L9Au/+H69573vTfuczcT92fXVv+tlGrInwVnia9eu6Qff/4G+++1vq/7w4WH/vby8PFVW362tb9uqhx5+SGvXruUPeUC6urp08eJF5ebmqbh4iqZMKU7ZIlhYUKBly5Zp2bJlem/S+0d1/PgJvXG0XvX1R/TGkTfU0PCm2ge1LHZ3R3XqxAmdOnFC3/rmv0uSiktLtXrlSm2o2aiaTTW6997lKioq5KEAEyzVjy6JeafleovaO4O9uiaz4RpJh7x8tdxoldO3Rec4jqy34Jhf4HbUcr1F9fX12ltbqz179+n4sWO60XpDfordLMMwVVRUqLnz5mvpsqVavmKllt97ryqrKjVt2rRxff62m206dfq0jhyp16mTp9Te3q7i4mJV312ttWv44TIo8+fP14ef+rA+/NSH5fvS3r379NJLL+jVn72iU6dODjnT8sYbR/Vnf/wneuavntH9D9yvD374Q3rooYdu6//GxB0HQ5Jl3L7B65VXXtHX/+3reu21beoa5hxkcWmp1q9br3c+8k6946F3MFUvJAUFBardXatvffObOnnihGzbVklpqebMLtfCRRVaUlWpZcuWacmSJSkXIQoK8rVmzSqtWbMqYRHAU8ObDTpy9IgOHTykQ4cO6uyZM7p67VrSgkfbjRva9uqr2vbqq73hrqhIixYt0uo1a7Vx80atXr3mjjqHCUya4JXqFxPWn7uiUXV1dQ3kngAuCLSD+opd31dHR5vMvntw4vH4pFiJBO5EDQ0N2rdvn3bv2q26uv1qamwa9ge/goJCzV8wX8uXL9eateu0as0qLV68eNx33Vy9elVvHH1Dhw4d0htHjujKlSsqm1ampfcs05q1a/X444+rjOlg4RcUQ9qwYZ02bFinP/qjP1LD2QY99+Pn9NyPf6w3jh5JanGLdnXqxeef10svvKi58+fp/R/4gD7ykY9o2l3Tbrv/Ls8bNEEqcnvVmdbWVv3r1/5V3/r3b+pcQ0PKM3jFpaW6b8sWvee979XWt23lXqks+dCHP6QPffhDunTpkl555RXt2r5LdQfqtGdPreKx3mMS+fn5mjFjppYuW6a169aqpqZG9y5frpwU0zNN09SiJYu0aMkiPfHuJ/oWBnw1Njbp4MEDqtu7XwcOHtCp06fV3jpwHrOzo0P1hw+r/vBh/etXv6KcvFzNmDFTK1auUE3NRm3ctFH33HNPxof4AaTPcQZqTKy7R9FoV+Lf+ttnuIYkRTs7ld83iSwej8k22fECwv9B1NeRI/XauWOnamtrVX/wkK5du5ry7EhvgZ+hVavWaN36dVqzdp2WLRv/JLSGhvOqP3xIh+sPq/5wvS40NSkvN08rVq1UTU2Nfv7xn9eiRYt4SLeBioUV+tSnP6VPffpTOn++Ud/97nf0ve98T+caziaN3G48d05/88wz+p9f+ge985FH9Kuf+jUtW3bPbfTn3ZOfcMjLtm6POnP69Gn9w9//g5778Y/V2d6ecoFj0+ZNev8HflEPv/Nh5eQEO32wo6NTHR3tchxXRUWFKikp4Q/9MGbPnq0PfvCD+uAHP9gXlm/q2LE3dOTIEdXX1+tIfb127tihl196UW7f67mkqlobN2/UfVvu0/oN64cNy4ZhaP78eZo/f96g85gntG/fPu2p3aO6vft16dIFdXd39/9w13T+vJrOn9dPfvRjGYap4tKpWrr0Hm3atEmbt2zWqlWrlJ/PwDIgTL0XKA90hrie2z+7Yji+n97dnIFWrM6uqHJy8yRJ3dFuiRGrQOBaW2/q4IED2rlzh/bs2aNjbxxL+YOebduaOrVEldVVWr9hvdZv2KAVK1bqrnHsYnR1denM6TM63LdK+8axN9R0vlGRSI6WLr1Ha9at0W/91m9p+Yrld+QY+GzZtWuXXnzhRZ1raJDn+iooyldx8VQVFxdrxswZmjlzphbMX6A55XMyujB5/vx5evrpp/X000+rrq5O3/j/v6EXnv+JbrTcSHjmHfr+976jH/zw+9py33361G98Svfff/+Ev0aJ93iZhjHh4+Rra2v17Oe/qO2vvzZkscOORLTs3nv1/g98QO9573s1dWpxxp+v8XyjDhw8oPpDh3Xk6FGdb2jQ1WvX+ne0TctSUdEU3b10qd79nnf3n//D8EpKpmrTpk3atGlT0q83NV3QmdOnderUKZ08cVL79+zXD7/3fUWjUc2bN19r1q1VzcZNWr9+rWbNmjXi56iurlZ1dbU+9KEP9X0fb9XBAwdVW9s3zOjEyf4rI3zf082WG9q9Y4d279ihv/vr3kWz6spqrd2wXps3b9badWtpSwXCqDGeL9/v7RrxXFdO3An046cx1XD0u5vdeLy/KMbicVkM1wAy/0GrsUl1dfu1a+cu7d+7Tw1n31Q0xUh327Y1u7xcq1auUs2mjVq/Yb2WLl2a8qLzkVy9elUnTpxQ/eF61R+u1/ETx3T54kVFcnJVXVWllatX69d+/de1fPkKzZ1bzgMK0K0f/k6cOKEXnn9BL73wgo4cOdrfBiVJ6pskWVZaonnz52vZ8nu1csVKrVmzRpVVlWl/zjVr1mjNmjX6sz//M33ve9/Tv33t33Ts6NH+FTzfdbV92zbt3L5dq9as1mc+85t66OGJOwfm+4kzpzRhdWbbq9v07LNf1J7dtUMmSZaWlenxJ96tDz31IS1btiyjz9PU1KTXXntNr7/6muoO1qn54qWkgGdalsrnztVDDz+kDetqtHrdGlVVVbI7EoC5c8s1d265Htz64KDFr1adP3deJ0+d1MG6On3nW99SZ2en5syerbXr12nd+nVauvSeEe/3Kikp0da3bdXWt22V1LuTe+zYMe3ds1c7d+7UoUMHdenCxf4/W7HuHtXXH1Z9/WF99ctfViQvVwvmLdDq1au0cfNmbajZwPREIFN9bYSO48i2Lbl9IWxCgpfrDt1GsxLG+Pry5bie3L5vEvGe2B1zsSWQTbdGhO/evVv79+3XtWtXUt7vY0ciqqhYqHUb1mvLli3atHnTqKuuqUJdfV+bYP2hwzp58oRutLTIjkS0aPESrV69Sr/x6c9o9epVFPUsurU6/pnf/IyuXr2q53/yvJ77yXPav2ePotGonFiPrjQ360pzs/bv3dv/56GktFRr1qzVg1sf0Nve/g7Nnz9vzJ+zsLBQTz31lJ566inV7t6tL33p7/X6tm39Azk811Xd3n36+Mc+plVrVuv3fv/3J2YHzPOSrjfJ9j1etbW1euYvn9HefXvkDdrhqqyu1sd/6Zf0/v/zF5Wbmzvuz1FXd1A//elzevmll3Wu4eyQv/9lZWXauHmztr79bXrggQc0d274gxlisZja2trV3t6mrq4uRTuj6uzqVE93j3piPXIcR3HHle+5cvvP4ZmyTEOGaSkSsZRj5ygnN0f5BfkqKChQXl6+iooKVVxcrMLCIkUik+N4QklJiUpKSrRi5QrpfQO/3tDQoNraPfraV76m4yeOKz83TytWr9SG9Ru0avVqTZ8+/C61aZr90xQ/9ksf6wvdF1S7e5d27Nip/Xv36FzDuf7QHe/u0elTJ3X61El9+1vfUiQnV9PumqZVq1Zr4+aN2rRp823VIgxMFp4kx+nbPPI8WQnzKoI4dhnodznXc/sLUdxxZFmc8QJGEo/HdfjwYe3YsUO7du7U4cOH1TbMpbh5eXmaV1GhTRs36b4H7tPmzZvTOsdx7dp17dq1U7t27VL9oXqdefOMujo6VFBQqLnz5mrVqtX6+ccf19p1a1Q5yca7d3V16UrzFXV2daqjo0Od7e1qb+9UZ7RTPdEedfdE1dnRoWg0qmhPj3q6exSPxxXriSkWjykei/XeVu/78lxXruvJ9z25nifDMGSZlgyz95+2bSonL1+5kYhy8vKUk5OjvLw85Rfka0rRFBUWFWpK0RQVFxerrKxMJaUlKi0tVWFh4biGKEyfPl1PffQpPfXRpxSNRvXySy/ruR/9SLt271bLtev9f1aceFzXrlzRi8//VC8+/1OZlqVFixbr0cce1RNPvFtL71k65s9Zs3GjajZu1JtvntUXPv95/eRHzyka7UwKYB98/y9qy/336b/9yR9nvKuTDidxd8kwsnbG68TJk/qLz/65tr3yStIOl23b2lBTo1//jd/o371Imy9t37FDP/j+9/XKyy/rypWrSd8D7IitiopFevidP6dHHn1Ua9euCTDHeopGo7rRckOXmy/r/PlGNTae15kzZ3T2zFk1X7qojs4uxXq6FYvHe9twpDHd7Tkao28Yl2WZivT9fSorK9PMmTM1f8ECVVZVadWqVVq1auWk2MGrqKhQRUWFPvCB90vqvRtx35692rVzl7707LNq7+jQ4sWLtXbtWq3fsEH33LN0xP+uuXPLNfd979OT7+tNdy0trdq1Y4de3/66amtr1XjuXP+F9vFYjy5fvKjnL17U8z95rvecWMlULV+xQps2b9KWLVu0YsWKwM8WAncas6/2u64rX0reuQ6gwSLQimUYhty+Pbl4rGfEbXbgraijo1MHDtRp5+s7VFu7W8ePn1DbzdaU/25OXp4WzJuvmk0bdf+DD6impiatcz0tLa3at2ePtr22Tbt27dT5sw3Kyc1TeXm5VqxcoQ/84ge0ctVqVVdXTvpi/E//+E/6wfe+p2st1xXvjvV+PzINWZatiG3Lsix58hWPx3vPULiePM/tayPw+gc2+AH8MDmcvPx8FeTna2ppqUrLSjVz+izNmjNT8+fP19y587SgYoHmzClXScnUYT9Gfn6+Hn/icT3+xOPyPF87d+7UT370nF559T916cKFpBY0z3V1+tRJPfv5k/rSF55VZXWVnnzyfXryF54c887ookUL9YUvfkG/+3u/p2c//3n98Ic/VGffWSLf97T9tdf02KOP6cn3Pan/8l//S1buAkvsvjAtU0bIdaa1tVXP/NUz+l/f+EZSy2ckJ1cPPvigPv1bnxn3fVt1dXX61je/qZdfeEmXL19KLs62rYVLluixdz2mx9/zhKrHuBjS1dWlK1euqLm5WZcvXta169d0o+W6WlpadbPtpm7eaFVbR5va2zvU2d6mjq6ootEuxbt7An3dDKP32Zim2fe2ZMqQYRgyDFOW1TsdzLItmYbV909TPd3damxq1IULF7Rnd63+/etf110zZugrX/2KiouLJ9X3pZKpU/XQww/1t+ZGo1EdrT+qXbt36W8/9zk1NTapqLhY9y6/V2vXrdW6NetUsWjhsD87lZWV6LHHH9Njjz8mSbp+/br27tmr119/XbW7a3W+oUFdXZ39fz9v3rih7du2afu2bfqcpOLiYlUtXapNmzZqy333a/XqVZzJBTQoVxmmnLijiG3L9z1Zlq0guw0DDV6mYcrrK4oxx7ltAF1e8gAAIABJREFUpk0BE+XatWvau3efdu7Yobr9+3Xq1Klhx7qblqXZs+eoZtNGPfjgg9q4aaPKy8d+hqqjo0N79uzRjtde1+7aWp0/d053zZih5cuX6yMf+ahWr16tyqrKO3J09dO//bSe/u2nFYvFFO2Kyvd82batSG5EkUhO/w8ysVis9389McWduOLx3v/FYjH1dHcr2t2tWCyunp6YYj3d6unpUbSrS9HuqHp6Yurp2y3rifX+M9rVqZ5YTN09PYrHYorF4+qORtXV2aUbrTfU2nJDjtMb9rqjUXVHo2ppadHZMxo2bJeVlWl2+RwtWrhId999t5YuXarqu+/W7NnJYck0Dd133xbdd98WSVJ9/VH99CfP6aUXXhxyZ5fvezp5/Lj+8r//hT7/t3+jLQ88oI/90se0devWMb2+8+bN1TN/89f6jd/8jP76c3+tH/3wP/pDiBPr0Te/8Q299Pzz+szTv6VPfPKToT7rxHBsmXaoLe1f/erX9MW//VtduXIl6e/pg1u36nd/7/e0ctXKtD/m9evX9a1vflPf/fZ3dOL4iSFhf8bMmXrXY4/pF97//lE//qVLl7R3714d2F+nY8eO6dy5c2q5fr0/HKcblCzbkmlZKiwoUGFRkYoKC1U8tVi5efkqKijsbQucWqLCokLl5+cpv6BABQUFKioqUl5OnnJye3d/c3Iiys3LU04kR3bElmX1/s+2zf7FENu2ZfbtdFmW9ZYYnZ6fn691G9Zp3YZ1+vRnPi1JOnnypPbu2avt217X33/xWXXHerRo0SKtXbNOa9et1cpVq1VWlrqzYdq0aXrk0Uf0yKOP9Nabq9e0d+9evb79de3etUtnz5xNWixoa2vTvtpa7aut1bOf/4IKp0xRVWW1NtRs0JYtW7Rm3doRF36AOz959W5pOU5crhuRISkSiYz4Lp7nKZ1kllkySliV8V1PhtTf2+3G40l9kcBbQXNzs3bu3Kkdr2/Xvj371NR0vn9kcCoFRUVav26d3vbQQ9q69UEtWbJkzJ/LcTzV1tZq27ZXtHvXLt280abKqkqtXbdGf/ynf6J7712uwsL0QpbvS9euXR13W9xEy8nJGXH3rv/3i7Lz9cTjcV2/fl2XL17WpcuXdOHCBV2+eElNFy7o4qULam5u1vWr1xSLxeS5rmLd3bp88aIuX7yoA3v39f9AbEciKi0tUdXdd2vN6tVav2GD1m9Yr6Kigf+Q5cuXafnyZfr9P/h9NTY26oXnX9CP/uNHOnTokJyEH76i0ahefuEF/efLL2tJVaV++ROf6J+0Npr58+fri89+Ub/265/SX3z2s3rt1Vf7g0NLS4v+9L/9sb7//R/omc89E1r74ZAdrxB+YD927IT+4Hd/Vwfq6pKC0crVq/V///F/GzL9bizqD9frn//pn/XiC88PCUambWv9uvX6+C//sh597NFhB+L4vq/tr23Xiy+9oNde3abzTY1j2qkyDFNWJKK7yqZpTvkczSkvV3l5uWbOnKlZc2ZpxvQZmnbXNJWWlmlqcbEiORG+mY9Ta2urOjs7lZeXp6KiolHP+lVVVamqqkof+nDv38GrV69q75692rVzp/7qL/9SjecbNWPGDK1evUo1mzdp48bNqqiYn/Jj3TX9Lj36rkf16Lse7V/427Vzl7Zt26Yd27frQlNTUptsZ3u7DtTt04G6ffrnf/xH5eXlakFFhWo2bdR9992vmo2bhg19wB3L9+Q4jjzPk2nbo95J3DtUcOzJa8zBy08x1sM0rSFBzHV7W1164vGk4RvAnejs2QbV7tqtnTt2aPfuXbp08dKI7Wo5eblaUlmpBx/cqocefkg1NTVj/lyxWEwHDx7Urh27dOjwIUWjXbr33uVav2G9fuVXfkXTpqU3Jv7WiPi6A3U6VHdQp06dVizeo2X33qvNmzZr46aNmjtvLg85A5FIRLNmzdKsWbO0SquG/fc6Ozt18eIlXb58SQ0NDarbu08HDx9W0/lGRbs6FU8YprF927beb962rQUVFdqy5X7dv/V+1WzapLK+M3/z5s3TJz75CX3ik59QR0enXnj+eT334x9r+2uv97ciea6rk8eO6w9+53f1N898Tr/6a7+uj/7SR8c0FGLp0mp9/X99Xdtf364//+xndbS+vv/3DtXV6ecffUyf+JVP6g//8A8DD0aJMw0t05JhBFdnfN/X//jL/6F/+ud/TAo0c8rn6b/+0R/pvf/Hu9P+mC+/9LKe/eIXVLevbsj3htKyUr37ve/VL3/ik1q4sCLl+19vadHPXn5ZP/nRc9q5Y6e6ujqGDVd5ebm6a8YMVSysUHVltRZXVWrJksVauHBh2oN3MD62betb//5Nffc739WFCxdkW6ZmzJypiooKLamu0vLly7Vy5UotXrw4ZcCePn263vXYu/Sux97Vv3izb98+7d65Sz/43vf1V//9/5EMQ2vWrNHmzZu1ecsWLb1nacq/Z3fddVd/a3LvwuBVbX99m7Zte017amt1+dKl/p1x3+8963f82DEdP3ZMX/uXr8i0LM2fv0Cbt2zRfQ/cpw0bNvDnCG8Jse6YnDxXlmkl7XgZyryejT14eaOnOcs05Hq9hSXeE5PJOHncYU6dOqXdO3drx/bXdeDAQTVfvpTyouLEH4amz5iuNWvX6efe+bAe3Lp1zHevOI6jo0ePak/tHp05c0amZaq6uloPv/NhferTn5Ztj/3vV0dHh06fPq2DBw7qwIEDOn7smLq6ujRz5iyt37BeT7znCa1YuVJlZWU85AlQWFioysolqqxcovvvv19PPfWUJOnmzZs6UHdAO3buUO3u3Tp94rTa2lr7/3ycOX1aZ06f1r9+7SvKLyjU0mVL9fBDD+udjzyiqureM0FFRYV68n1P6sn3PanLly/rX778L/rut7+j5oQzRVeam/XZP/0T/X//7z/r//q1X9XHP/7xMV1DcN/99+mFl17UV778FX3hC5/Xtb6WvHisR//z2S/ptVe36W8//3eB7n4lrgEaliEzoDJTX1+v33n6t/XGkSP9v5aXl6cPf/Sj+v0/+AMVFKQ33OE/fvgf+vsvfUlvHDk6JHAtqKjQhz/6EX3kIx9JecamtbVVz//keX3/e9/Xgbr9/WE5UUFBocrnz9Py5fdq9ao1WrFqhZYsqQzkrjCMX1FRkZ7+nd/W07/z26rbX6cXX3hRO7a/rrq6Om3b9pr+N3vnHR5Vlb/xz9Rk0gghIb2SQhKSQMokgUAAFUEWkbLqj7I2RAQR174UVxe7WFBRdi1gQwEbKoouKCW9QnrPpEE6KZM67ffHJENiIAnN1d15nycP4ebOnXbuOef9lvdFp0UgEGJjOw5/f3/kUZHMmDGDoKCg8wY9JBLJII8xnU5Hfn4+KckpJCUksPv93ai0Kib6+jN95nRmTJ9huPd/DXt7O5YMEOsoLy8nPi6eo78cJetkJrV1dYMyYlqNBkV5GYryMvZ8/BESqQnu7u6ERYQTExODPFJ+UeXwRhjxe4cAfTl5r6oXjVqNSCRELL6yFQBXtglLKESj7vOc6O25aP8gI4z4vSEvL4+EhAQS4hPIycrSL0zq4c30pKam+Pj4MGNmLNddex2hYaGjlrzOzc0jLS2dmpoazM3N8PXx4U8LFgzp7xkOnZ2d5Oflc/JkJqdOZZGfk0NdfQNWVlaETA5BHhnJPWvW4OPjPWLtshH/WYwZM2aQ149SqSQ1JZUjR45w4tgxKhQKA/Hv6uwgIzWNjNQ0Xn7pJTy9vZl3wzwWL16Kt7cXAA4ODmzctJGHHn6Ijz76iHf/9Q7VlZWG5ztdU8OTm7fwwa7dPPLYo9x4442jep133HUHN950I089+RRff/mlYfOWm53N0psW8dCjj7Lq7lVX5DMZWGooFlyZ3qDXt7/Om9tfH0RwAicF8eK2ly66j+vQoUO8su1l8nPzhhAuHx8/1q2/jyV/XnpeWeKfDx/m4z17SIqLp62tbdDfTE1N8fWfyNSpMUybNpUpoVMuStXUiN8eoWGhhIaFAo+jVCrJyckhPTVdH/zKyyctJYW4E3G88uJL2IyzJWBSILGxM5gRG3vBYIVAICAgIICAgIABsvPVZKRnkJCQwP69++nt7WHSpEBmzb6GqdOmXjBL5enpiaenJytWrjCsd3HH4zh27BgnT2UOUdhV9Z6TsN+7Zw8SqQlubq6EhoYyLWY6UVOjfhNrAyOMuHrMSy8A1KvqRavTIhQJEQmFV0TF9YoTL61OhxABvX2bAL35mFFcw4g/GtHKJz4ujvgTcZw8mUlzc/MQc9RfQyI1wcPTg2nTpxMbOwO5XM6YMaNrUC4vLycxMZHTp89gbmZGQGAAS5YsGtS7MxKKi0tISkokJTGJnNxcTtfUoAP8/CYil8v5098eJzQ09KIUEY34fcLCwoJZs2cxa/Ysw/j5/vvv+f67g+Tm5KFW9Rjm3+KCAooLCnjrjTcJnDSJ/1u2jJtvuRmpVIqJiQmrVq1i1apVfPLxJ7zx+uuDCFh5aSnr7rmX9999j63PPEtQ0MgZq3HjxvH6G6+zaPFiNj/+OBUVFQC0t7fz1BN/JyEhgR1v7bhsWXCd9tz9KLjMHq+GhgbWrVlHQvyJc4ui1IRVq+9m8+ZNF3Wt9LR0tv7jH6Snp6P71ZwxwdubDQ8+yOLFi4Y8rrm5md27drN372ecrqoxbHQFAiFWY8cwM3Ym18+bR2zsjFHPK0b8Pu/dqKgooqKiBgXJSkpKycnJJi83j/zcfN5+cwcvvfgSVpaWTJoUhDwqksioKEJDQy/oc+bi4oKLiws3LrzREKDJTM8kITGBvZ9+RnNzM75+voSGhyGXR13wfu4ndKvXrEan03Hq1CmOHTvGL0d+Jjcnl+6uriFErD/rvn/fPsQSCY6OTkRERjAtJoYZsbE4GksTjfiDQSQWoVKp0ag1iARChFdYwOmymNGghJZWh0AAmj7ipdFqjcTLiN81tFot+bn5xPf5oqSnp9N29uyIjzOVyfDw8CAyOprp06cTPXXqqMt7KisrOXnyFLW1tQgAbx8fbrpp0ajLmDo7O8nOziY5KZnExESyTp2is6MTewd7giYFsXzFCiLkEYSEhBi/4P8BeHp6sm7dOtatW0dDQwNfffEVX335Ffn5uYbeDbVKxanMTE5lZvLM1q0sWryEVatX4eWlz4ItX7Gc5SuW88HuD3j7rbcMBEyn05KWksKCeXNZ9peVbNq0aVTS07NmzeRYfBxPPPEEez7ag1rVg06n5acffuDaWbN5+51/ERwUdMnvWaMd3ON1qfjpp5946IEHONt87p53cXPjte3biYqOGvV1amtreerJpzj47bdDgjTuHh6sf+ABbr31liGPKywsZOeOtzjwzYFBBsnj7OyYOWsWS5csZXrsdOMg/y+GmZkZwcFBBAcPvh9aWlooKCgkJyebzIxMvvz8C+rr63F3dyMsIhx5ZCShoaEXzC5ZWFgwPXb6oPGTlZVNclIir77yMqXFxYy1sWFSUBAR4RFMCZuCm9tgwQ6BQNDnoTaZDRs2oNXqSElJ5ujPR0lIjKe4sAhlu3IQEVOrVFRVVlBVWcGX+z8HwNnFtU+sI4boqVNxNfYNG/E7hgAQicX09PSi1mgQCERD9Sz+k8TrfJHGfh8vrUaDSGAU1zDi9wN9z1QeCfHxxMfHk5OdTVND44jeTVJTEzw8PYmKjCZmegwRcjl2dqPLHlVX15Cfn09dXR1isQhPD0+uuWb2qL1T6urqyMw8RXJiImmpaZSWloAOPCd4EhoayrJly5gSGoqLi7HO/n8ddnZ2rF6zmtVrVpOfl89nn+7h2wPfUl9fZzinva2ND3fv4rPP9jB79rXc/8D9BAcHA3Db7bexbPkydr69k3d27qS5udlw33z4/i5+PnyYLVueZP6CG0ZeWMRinn32WWZfey0bH3mU0zU1AFQoFNyyZClPbf0HN99yyyW9z0Fy8pfYR/z8s8/zz507B0ltz7zmGnbs2MGYi5DTfvutt3nzjTdo/VXAxmacLfesWcM9994zJACZnZ3N9le3c+TnwwYBD7FEQlhYOMv/soL58+ePSuDEiP9eWFtbExUVSVTUOfGlxsZGTp48SVJiEu+/8x5PVGxBJpMxKXASkdFRhEeE4+/vf8Gx00/w7l69GtBny9NT0zl+4jhvvbWDnq4uvLy9kUdGMnXqVCYFTRrULiIUCgZl7Do6OshIy+D4ieMkJSZRVFhwXhuDmuoqvtxfxZf79yOWmuDi7ExoRBgzYmYQGRWJq5ur8Qs34ncFoUCIRqNCq9UiEIBIJBiW92i1F1eGOGripdFpRrco9kX8NDodAqO4hhH/YWTn5hJ37Dhxx4+Tm5s7qtJBsUSCh7s7kVOnMmP6DORR8lEbwzY0NJKTk01TUxMikQQvTw9iYqaNuryqv/QwOSmJkxmZnKmtxdLCkqCgIObOm0tkdCQBAQH/lV5cRlw5+Af489TWrWzcsoWvv/yS9959b1DPUW93D4e+P8iRw4eZOXsWjz72OP7+fkgkEtbfv57lK5bz/LPPs//zfQZyUF1Zxb1rVvOngwt4cds2LCxGDh5cO3s2U376kQ333c/RX342kL9HH3qYooIiNv99yyUQr3MZr4sVcOrq6uLe1Ws4cviw4bMQi8Xcfc89bNqyedTXyc3N5ZGHHyYr8+TguUNqwtI/L2Xjps1DZLgVCgXPP/ssPx76yUD4pKam/Gn+n7hn7b0EBgYYB64RF4StrS3XXnst116rN2Pu6ekhPz+fxIRE4uPi+NfbO+np6cXdyx25PBJ5hJywiLALqt3293ctvVkvtNHc3KxXzU1I5IktW2hqamKCtzezZl/D9dfPwcFhsCiUubn5oKyaUtlBWloqcSfiSEhIoLiggK6urkGPUff2GMQ6vty3H4mpCc4OjoTKI5gxYwbR0dNwdnY0ftlG/IYkayiREgtFdHf3oNGor6hx8kUTr5GeXafTotPpDKqGOo32iqfnjDBiJOTl5RN3/ATHjh0j69RJWs62jJjRkpia4OTgSNTUqcycGUtU9NRRZ7Q6OjrJyc6mvqERkUiIq6sLsbGxoxKW0Wq1ZGdlEx8fT3JiIjnZ2XR2duLg7IQ8XM79f30AuVyOq6sxImjEpcFEKuWWW2/llltvJe5EHK+9+ippKSkGQQ5Vbw//PnSIoz//ws0338zfNm/E2toaGxsbXtz2IrfdcRub/raR9NQ0dDotWo2Gb77+mrTUVF7Yto1ZfaIfw2HcuHF8/OknvLLtZV7fvh21Sm8ovfPttyirKOef//znRYm86AaIa4gEoyde1dU1/GXFCooKCgzHTE1N+cezz7Bs2bJRX2fbi9vY+daOIf58U8LCeea5ZwwZxIFk74Xnn+eTDz8ybERNTU1ZcOONPPToI0YxAiMu7d42MTGUAt679l5AX8qekpRCYmIizzy9lYb6emzG2RIyZTJRkVFETY3Cx8fnvNezsbFh9uzZzJ49W0+S1GqysrJISkxi4+N/A2DOnDksvXnpedtILCzMmTlzpsGUvbOzi/TUNI6fOE78iThKS0vo7Ogc3CPW3YNCoUChUPDlvv2IxWKcXVyQR0Yxc+ZMpsZMHXXQ0wgjLgWC8+zVBCIh3V1daDQ6dFqNQTTwtydeo+BlWi2GbIJGq7nkMhAjjBjVmNPpyMvLJzEhgbhjerne5ubGER8nNTXB1cWVsIgIYmfEEhkdedHeJDodHI+Lw9ZmLPLISEbT3z8wopiakkJxcTEmUil+/hORyyO5e80aJk+ZjMUoyxCNMOJiEDM9hpjpMaQkp/DKK6+QFB8/iIB98vFH/PDDDzzy6KOsvE0vZx8YGMjX3xzgk48/4aUXXqCxoQHQqx/esXIld9x1F39/6slRPf+DDz+Ef0AAjz78kKGv6qfvf2DxTYvZ9cFubG1H50OnHbBxG21w72TGSVbdeRe1tacNx6ysrHhz59uGjeZIKCspY8OGDWSmpw06PtZmLA898qhBYW4gDnx1gK1b/0Htaf3zisViZl93HRs3bTYoTRphxJWCm5sbbm5uA7JYLZw6mUlyYiJfffkFL77wHEKRGH9/f8LDI4iMjCQoJBjr85TXisViQkNDCQ0NHXAPlHD8+AmioqMwG6GKw8xMNigj1tnZRUZGOglxCSQlJlBYVERbW9sgIRq1Wk2FQkGFQsH+vZ8hFInw8vREHhnJ9NhY5JFR2NsbiZgRVxdisRiVSoVWq+7jN1c273VFe7yEQsHgHi8j8TLiCiM/L5/4hHji4+LIyjxJQ2PjiKWDQrEYd3d3wsPCmB4bS2RU5GV7jwgEEDs9ZthzyssVZGSkk5iQyMmMDE7X1mJvb8/kkGBuvvUWwsMj8PX1uezPpKamhqLCIrKzs8nJyaG8tJxJQZN4autTWFkZPX2MGAx5pJzP9n7GL78c5cXnniM7K+tccKCpkY2PP8633x7ghZdewtPTE9ALcMy5fg5bNm7i4Pffo9NoUKvVvPPPf5KRkcFbO98e1T0174Z5uLm7sfquVVQoFABkpqfx5yVL+HjPp6MqMxpYaigahYBT3Ik47r1n9SARjbE2Nry76/1RG5h/8cUXbNm4mbbWlgFzgJDZ117Ls88/P+R119bW8rfHHufI4cOG+cnHz48tf39i1ETPiP9dvLztZbJOnqSxqQlTmYwx1mNwdHDA2dkFdw93PDw88PDwGLFX2MbGepAKam9vL/n5+aSmpJCUmMj+fftoa23BxcWFkNBQoiKjCA0PNQjv/Bpe3t54eXtf0nsyM5MRExNDTIx+3ezq6iEr6yRJCUkkJiWSm51Fy6/k67UaDSUlJZSUlLDnk0+Qmpri4elBVGQ002dMJ0IuH3XAxggjRguRUEB3dy/qvkzXQK4jFPyGBsrn3Xye55hGq0Gr1aLWauAKvEAj/rdRVlbG8ePHOX78OBlp6bQ0Nw9rWAwgEIlwcnYiMiqKGTEziJkRc9EZrUtBv9pgUmICWSdP0aPqZcIEHyLlcjY/8QRTQkMvy9xUpVJTXFRETk422dk55GZnU1pWRkd7O0KxGB8fH6bFxLD+/g2jkv824n8bs2bNZNasmez5ZA8vvvCCwfxYp9OSEBfP/Ovn8uCjj7Bqld5/y87Ojp3v/IsDXx1gy6aNBvGN9NRU5s+7gVdee43ZfRu84RAYGMjX337D8v9bZjArLi4sZOniRezdv2+IutqQNWZAoEUsHj7jdezYCe6+6046BzT9W40dy64PPyA8PHxUn9PGxzey5+OPBs07VlZWbH7y7+ctUdy3dx9bn3qKs32fj9TUhLX33sdDjz50RTzHjPjvx0MPPwToy2OTk5JITEggISERRVk5qt4exGIxUlNTbGxsCAgIICRkMpNDJxMWFjasFYlUKiUkJISQkBBW3X03oA/cpSSnkJiQyI63dlBTXY2FmTmBQUHII+XIIyOZMmUyUqn0ir5HmcyEyMhIIiMj2cAGdDrIy8slMSGB+Lh4MtLSaW5uHkTEeru7KcovoCi/gA9370Imk+Hq7s60mGnMiI0lOjr6oqxYjDDifBAKxfSqegaVtRv2l4LLTyhdUR8vAJ1Wi1ql0vd4CYwZLyMuDgpFJfHxcZw4dpSUpBQaGhpG7NESS01wcLAnIkJOzIzpzJgxHUfHq9ugq1R2kJmZSWJCAsnJyZQUF2Nhbk7I5MnEzIjloUcew9/f75Kv39DQQEFeAVlZWeTk5lBcWEhbuxJzczOcnVxw93Rn3vz5eHp54u3tjYeHh3HwGHFJWLZ8GTctWsQTW7bwxf7PDcIPbW1tPLl5C4cPH+aNN94w9FosXLSQadOnseG+9Rw/dhydTktjfT133nYbjzz6GOvWrxvxOe3s7Djw7TfcesstpKekAlBVUcHNS5ey7/PPhyVfo814xcfFs2bVXYNIl7mFJbt27RoV6WpqauauO+8kLTl50PFwuZw339oxpDerra2Nhx96mB++O2iYs4KCg3n5tdcICPA3DjQjLhouLs64LF3CkqVLAL2gxqlTpziZcZKMjAzyc3OIj4vj3z/+hE6nRSw1wb3P0Dhq6lSmTps2ony7s7MzixYvYlGfx1xnZyepqakkJSZx9OdfeGfnTnp6e/Hw9CQ8IoKoqCjkcjn2vxLbuFwIBPqgTGBgoIEU9otNJcbFk5aeTl1d7SDrha6uLooKCigqKGDXu+8hkZrg7e1NzIwYZsyIJUIeYSRiRlw0RGIRqp5e1Br1+TNMv+Y/Wq2BAwGIRvD9GjXx0mqG3/zqdDrEIjFajQ61RoNWox3xyY0worq6mqSEJI6fOE5qSgo11dUjlg5KTU2wt3cgNDSU6dNjiJo69aoTj5qaGtJS0khOTiQ9PZ3KikrGWFsjj5CzbNkypk6bhqPjxWfVurq6UCgU5OXmkZ2dTX5+PrWnT6PR6XB3dSV48mQW3rSIwEB/XFxcjBHz3xBffPElx44epb6uDoFQgKWFJWOtx+LgpC/58fD0ws3NFXv78X/478XMTMa2l7exdOlSNv7tb4MEKOKOHmPutdfxwrZtXHudXlHN1taWTz77lB1v7OC1V16mq6sLtUrFc888TVlZGdteeXnEggeZTMZne/eycvkKkhIS9PNBZRUr/28Z+7786oK9HAMXuAt5Rebm5nLvPWtob283HJOYmvDq668RGTVyeWFhfiF33n6bwQS6//F33303GzcNNVZOSkrigfs3GDzQpKYm3LXqbjZdpAnz7x0NDQ1UVVVRoaigtraWxvp6Wtra6O3uBQGYW5jj6uJKyJQQQ0mZEVcOJiYmyOVy5HK54ZhS2UFpSQk5OfoqiNy8fE4cP8GBbw6gVmtwdHIkJGQy06ZNY+q0qXh7ew87X5mZmREbG0tsbKxhU5mbm09KchLJSUk88/TTNDc2YTfejqCgICKjopFHReLr63NRIjmjQb/yYn9m+cyZWtLSUkmMTyQ1LZXqigqUyg4uH932AAAgAElEQVRDoEPV20N+Xi75ebm8s/OfyGQyJvr7EzV1KjHTYwgPDx+1lYsR/7sQCoWoVCpUvT0IRSJ02uF7vH79d8EI4mqjJ166kXXqBSIBGq2+9l+n0/d8GWHEQJw5c4bEhETijp8gPT2NiooKg9HrcBs0bx8fwiL0zcBX27dKp9ORk5NDcnIyyUnJ5GRnU3umFpmpCVNCQ1my5M9Mj52Ov//FRbEbGhr0pph9vVglxcU0NTUx1nosEyf6ExQcxPVzrsfH1wfbUaoqGnH1sGTJYmJjZ5CaksqJuBMkJSZSVlqOeoD3k1giwXrsWJydnfH28SEoOIigoCD8/QOxsvrjRVqjoqP46fC/2frUVj7Yvctwb9bV1XH3XatYs2YNj2183HD+uvXrCJeHs37tek7XVAGw99M91Jyu4d333h0x2iyTyfjw44+49ZZbyEjVi1aUlpbyl+XL+Pb775FKJecJAp4LzIjOU2rY1NTMXXfcSXNT44C1ScTGxzdxww0je5DFx8ezdvUamgY8fqyNDa++vt0g5T0Qb2x/g1dffYXePpVDBwdHXn7tVWJnxv5hx77e8zCXtLQ0ck5lUVFRQWVFFU3NTYaMqEAgxMLSAt+JfoSGhjEldAr+E/1xdnE22l38hrCwMCdkcgghk0MGHa+traWwsJjC/Hzy83LZt3cv217ahplMhu9EP6Ii5YTL5QQFBQ37fQmFQoKCAgkKCuSuVXcBUFVVTW5ODllZWRz95Qj//OdO1Go1E7y9iQgPIyIykilTwq74HOjo6MCCBQtYsGABAK2tbWRlnSIxIZG0lBRycvJobzvXJ9bV1UVmRgaZGRm8/eabWFpa4efvR3TUVKKmRTN58mTGjBljHERGDB7zIhHdPV2otVencu+ySg2FvzJIFonE6DT6Hi+dTovQmPH6n0dDQyMJCfGcOH6CpIREampqBpmWDiHvAiFW1mMIDgkmOjqayKgogoODR+2DdSnoL61ITkomOTGJ/MICOtvbEYsl+AcGsmjRImJnzSQsLOyCEfZfo7i4hJzsbHKzc8jJzaGkpAStWo2ruztBQUHMiJ3B2nXrrkqU0IgrB1tbW+bdMI95N8wzbOoTEhKJO3aM+PgEqqsqaKyvp7G+nlOZmXyxbx8CgRATEymOLi5MmTKFyMhIpk6bahCquBwUFRVz/Ngx7Gzt8J3oe9Hkf1SLgljMU1ufYvY1s3nkwYc4fVpvfqzq7eGN17eTnZvNv955x7BZi4yM5Psfv2f1XatI6SvLizt2jJsW3Min+/aOKAdtZmbGx598woIb5lNaUgJAbk4Oa1av5v3du4YGRgYoTJ1vUVx9192GzFM/brnlFu5ec/eI7/3QoUNsuG/9ICNY/4BA3tv9/pDyx46OTtavW2co8wKIiY1lx1tvMW6czVUbk+Xl5eTl5VFTc5rQ0FDCw8Mu+5o9PT2kpqQSfyKOxKREigoKUHZ0DKk+MJXJCJHLmXXNbKbHTGfylMmjss4w4reHg4MDDg4OxPapCvajpqaGwsJCcnNy+WD3B1RUKBAKRAT4+xMSOpnJk6fg7z9x2KyYq6sLrq4uzJ0313CspbWV/Lw8Tp08xb69+3j26WcRi0UEBQcTGRmJPFJ+2aJWv8aYMVZMnz6d6dPPvcfc7FwSkxNJSkgiMz2DhsZ6wzhub28jLSWVtJRU3nzjDf087ezM5JAQwiIiiJBHEBAQaJQn+B+HWCiipbUFtVpzVXjM5Ylr/CqjJehTNVSp1Gh1uiHqH8Yyqf9+nKk5Q2JSIieOnyAlKZGqEUoHTWUyXJydCQ6dQlRUFNFR0Xh6eV7V11hVVUVqahrJSUmkJCejKFcgFouxtbPF39+fdWvXEREZQXh4+IibisbGJkpKisnOyiY7O5u8nBzq6uqwsrLC29uboOAQbr/zLoKCgi7ZGLKxsZEKRQXFJSUo29txcXXhmmuuMRK2/wDGjbNhwYL5LFgw3/DdxMcncPzYUdJSUqmsrELV20N3dzflJSWUl5Tw5f79CARC7OxsiYyKZubsWcTExOB8CVlbX18fBAJ47uln+fmXX5CKxUwODeW6Odcxd97cK+r5FjszlsNHj7Jh/X38+6d/Qx+5OHrkZ26Ycz3v7v7AIIlua2vLlwe+5uEHH2Lvp5+h02kpyM/nT/Pn88mez0aUTreysuLjT/ewcP4C6uvrAPjp0CFeeP4FHnv8scHESzeYJA7EM888Q3JSwqBj4ZGRbHvl5RHf7zfffMOG++83GEYDzLthPjt2vj0k85abm8uqO++iqq8UUSwxYc26NTz++ONXJXj1048/cujQIdJT02hrbcHByYmnn33mkklXV1cPp05lcvTnnzlxIo78/LxBvTOG+dnUlAk+PkwOmcJ1c68jNjbWOO/8TlBWVo5CUY6LiwtOTs6jMjQHfU+Xs7PzEHXN4qJisrOz2b9vH8XFxQgAJ2dn/P39CQ4OZoL3hGGzQ9ZjxhAdHU10dLThmFarJT8/n1OnTvHWjh2cqa1lvN14/Hz9CI8Ix2+i3xUX7QgMCiQwKNAgCnTmzBlSUlJITkwkNSWdyqoKOvrKE7u7uykvLaW8tJSvvvwS0GfhfXz9CA0LJSJCTsiUEGMP9f8YhCIhFQoFqt7eIWWDAuF/WNVw0GKo1SESiNFpdGg0GnRa3RCiJTCKbfzXoby8nJTkFOLj48lMS6equga16vwZLYFAiPXYMXhN8Ebep2Y0ecpkbG1/m7K6EydOEH8inobGBkxNTXByduL+DffjNWEC7u4e5/Uy6UdvTy+VVZX6XqycbHKyc1CUl9Pb08s4WxsmBgQQHBLM8hXL8fHxwcbm4iLeWq2WujN1lJaVUlBYgKKsnNaWFqSmpri4ujFxoh/Tpk39zc2U1Wo1HZ2ddHZ00NLSQktLC82NzfSqexGLxIjF+h+RWIRQIEQkFiMUihCLhYgEIoRisf53kQihUGh4jEAoMBwTCUUIhCKEQv0YEQoFfcf05wgEAgQC/TGhSDjqrONvAVtbWxYuvJGFC28EoKbmDMnJiZw4eoy09HSqq6pR9fag02mpr6/n228O8O03BxBLTfD08iQmJoY5119PeHgEMpnJqJ7Tx8eH9z/YRVpKGi+++CJJiQkkxJ3g2WefITQ0jBUrVrDgxgVX5HOysrJg1we72f7qdt7Y/prBNLikpISli25ix85/Mm3auY3WtldextnFme2vvoZapaKmsopbb/4zH3zwIYEjKG26urqyfceb3PmXvxiMhne+9TZRUVGDyva0A+rpRQN8vJKTk9n1zruDrung5MQ7774z4vs8ePB7HtzwgIF0CQRC7lq1iie3PjXk3H37PufvmzfR3tYG6H28Xtj2Mjf0ZUWvFA79cIiPPvyIlKRkuro6AJBITVi+YiVbnnziokUDSopL+OXoLxw5fITsrCxaz569QHDBlrCIcObMuZ5rrrkGuz+wb1Jzcwu1Z06jUCiorqqmoaGe+oYG2tvaULa3o1R2oOpVodaq0arVaAaMLUHfPCQU6+ctE6kUMzMLZOYyLM3NsbSyxNp6LNY2Y7GztcVuvD0ODvbY2NhiY2N91d+bl5cn3d1dvPfueyQlJKFW9eDo7MwErwlM8PbG29cbT09P7O3tR1X66ePrg4+vD4uXLDYcq6muITsnlx8O/UBBfgEd7e1Y29gwceJEAicF4ufnj7Oz8wXnLqFQaBDMOBc40VGhqCAvP5/4hER0Oi233XYbZmZXp6rF0dGRhQsXsnDhQgCUSiXZ2TmkpCSTlJhIUUERTY0NBtXSrq4usk6dJOvUSXa//z5CsdhQYRAWGk5YRBiTJgVhZ2wH+K+FWCjizJlaurq7Ef3eSg2HXEwsQqNVo9Go0aEzimv8FyI3N4+kxEQSE+LJzsmh7vSZC8q7i8VibG3tCA6dTHRUNHK5nIn+EzExMfmPvPZflyRcCC0trRQWFJCdk012VjZFBQXU1daCQICnpxeTgoJYsngJQSFBuLm5XVQZpA6oUFRSUlxEYUEhhUWFKBTlqHrUODo5EBAQyOTQycyfP/+qKDMqlUrOtrRwtqmZ5uZmzp49S1NTE83NzTQ3NdHU3MzZ5rO0nm1G2dlJh7KDnp5uenpUFyTUlwKBQIhAJNRnxQVCBIBACEIEfURLiEAoQNhHuuj7v0ggQCKRIJJIkYhFSCRSJBIJMnMZ5uYWWFhYYGVpyVgbG6ysxjDW2ppxduOwsRnHeFs7rG1tsLG+epsiZ2dHFi9ezOLF+s1LVVUVyYnJHD9xnOTkJM6cPoNWrUbd20NxQQHFBQXsevddbPo2u3PnXs91c+aMiriHy8PZ9/k+fj78My+88Dx5ObkkJySQnJDA888/x7LlK1i9+u4rUqa74a8bmBw6mb/ev4H6On1GqrGhgTtu+wuvvvoa8/sygAB/ffBBxo+3Z8vmzfR2d1N7+jQrly/jg08+JigoaIR7NIa/Pvwwzz39DDqdFlVvD48/9hhHfvnZsHnUac9l0IXic4viE5u3GIhhf+R6x9tvjVjqeOzYMR584AG6+8ieWCzmoUcfZf3964ec+9STT7LrvfcNvW++/hP51zvv4H2J3kbnC3Ts3r2bj3Z/YCi77EdgUDD/eHorkZHyUV8vMTGJ7w8e5PjRo1QoFOedq4UiEa4uLsReM5vrr7+e6OjoK56FGNXc1NFBQ30D1ZVVVFVX0lDfyNmWs7S3t9Hbo0Kj0aDVqtHq9Kphgj65MZ1Wi0arQaVS0dXTTUd7B0plO20tLbS1K+nq7PjN3oNAIDT4btnZ2jJunC1jxlpjYzMWW5txjBk7FptxNowda4ON9VisbWwYM8Zq1NmqXyMgIIAXXnwBrVZLWmoaR48eJTkxie++/472Vn1gwMLCEjvbcTi5uuI9QU/KJnh74+XlOWLpn7OLM84uzsydO8cQICwpKSUjLZWfjxzhtZdf5WzLWcZaj8Xb25uJgf74+/vj4+OLp6fHBT4jAR6eHnhc4O9XGxYWFkRHRxEdHcWGDRvQAaUlJaSkpJCalExGRoahcgFAq1ZTV3uGutoznDh6DNBngp2dnQkInERYRBihYWEEBk7CxESKEX98CMRC2tva6OnpRiweWVzjqhEv7QjeSf2LoFaj0We8dFpj7fcfHL29vWRmZJKUkEBiUhLZOdm0t7adv3RQIERqIsHd3YPIqEiio6YSFhE2RHL59waFQkF2dja5Wdnk5ORSXFpM29kWLMdYExgYQHBICAtvXEhAoD8OF0GEdFodpWXlFObnU1BYQEFBPqWlpTTU1SOVmjBxoh9TQsO4aeFNBIUEjbg5HA5Nzc0oysupUFRQV1dH89lmmuobaW45y9nmZlrPnqW9vZ32diUqtRqdVoNGox1Rpv9qQqfTolNr+a1egYHIicRIpRKsx4zBdtw47J2ccHFxwc3NDVc3d9zcXPDw8Lhi4gCurq64urqy9OalhvF28OD3HPjqK4oKCw0b+OamRv596BD/PnQIqakpUyZPYcFNN7JgwQLGjRveIHT2tbOZfe1sDnx1gBdfeJ4KhYKayipeeu453n/3XdasWcOatfdedql3bGwsBw/9wJ233W4wXe5UKrlv3TqUHUpuufUWw7nLVyzH0sqSB+/fQHd3N/X19Sy/dRmf7d83orT62nVrSU5M5Mjhw3ryWlHB0/94mmeff1a/Fg1Q2BWJ9EvY7l27yc3OHkQmNj3xxIgGyXl5eay99146+tQPxVITtj6zlZUrVw46r7Ozkztvv4O448cNx+bMm8eOt3Zcsf7T3bt38+brb1B7+vSg42NtbHjgwb9yV1/p1EiIOxHHF5/v55eff6Gpsem897lEaoKvnx833HAD8+bfcEWM3C+E5uYW6urOUFdbR21dLXV1ddTV1VF7ppaG+gYaGxtobWmlq6tLT640av6o0Om0dHV20NXZMeR7PN+cJBIJEQhFSMRiLCwtsLS0xGqMNdZjrRk7diwuLi54eXrh6eWJh6fnBXsHhUJhn+fWOVJeWVlJXl4eRYWFlBSVUFpWyoGvv0HZ0a7fzwkEyExl2Ds44OHliY+PDxO8JuDdZ5J8vqydUCjE19cHX18fbu1TGuzs7CTrVBbpaemkZ6TzyYcfcba5GYnUBCcnR3z9JjLRfyIBAQFM9Pe/qsJYl7Q2AN7e3nh7exvUE1tb20hPTyclKZGU5BTy8/Lp6DzX89jd3U1paSmlpaV8+80BBAIhMpkMDy9PpoSGEhEeQVhE2BXp6zXit4dYIKKzs4Oerp5R9XjptJqLImcXoWo49KIDyzz6F0GNVktvrxqNTmcU1/iDobq6moyMDJKTkklLTaWosOiCQhhCkQibceOYOHEiEXI5kVGRhIaG/m7VrFqaWygqLiI3J5fsnGwKCvJRlCkQCAU4OTrhO9GPGbGx3Hf/egICA7CyGtnouLe3l9raWioqKiktLaG0pBRFeTnlZeXUnKkBLdjZ2TLBx5spU0K5+ZZbCAoKxuEi/U86Ozupra2joqKCstJSFAoFlRUKKiurOF1TQ2dH51UjUf3lwf3ZJ7FEgkQiQSwWI5GI9cuWTodWp5c80Gl16HR6TwvD71otOq0OrVaDRqtDp9UMmk/6J6yrSQR1Oi06jV4RT93bQ6dSyemaGugjEL9+z2NtbHB1c8XDwwNfXz98/Xzx8fXB1dX1sjK2Hh4erFu3lnXr1lJZWcV3B77h4PcHycvNM9xrvd3dJCclkpyUyJNbnkAul7N4yVJumD8Pq2F6LBYuWsjCRQt579332PH669TX19PU0MAzW7fywQcfsHHTJm7sK4m8VDg6OvL9jz+ybu1avv36gCEr9dgjj9Db08vK284RlhtvvBGpRMr6tWvp6uqiuamRZbfeyr79+/H18x32eba//gbTY6YZTIg/3bOH5StXEBgYgEY3wEBZKEKlUvHmG28MevySpX/m9jtuHz5g0dTE7X+5ndbmswYy8sJLL3LzLTcPOq+kuIS77rjDkIESSySsve8+Hn3s0SsyNn869BPPPL11SIZLamrCzTffwsbNm0acjzIyTvL5vn0cPPgdTQ0N5z3H0tKSkCmhzJs/jxtuuOGygj0D0draSkFBAVmnssjLzaO2rpaGujp9Fv1sCxqV6jcN8vQHWfr3JBKpBLFEglQsRiQSD7blEQoQ9u1jhMK+HFpfWbN+Uy5AKBoasNBo9Fk2rUaLRq3Wz20aLWqtRj/HqFSo1GrD3KfTT3RD5iS1WguoUfX20NnZYcgmX+h9mVmY4+zsjLu7Ox4eHnh4eeLl5YWrqzv29vaDSv7c3Nxwc3Nj7ty5Q9atmpoaqiurqayqpFyhQFFWzvFjx9i/dx+tra1oNGosLCxxdXXF09MDbx9fJvhMYMKECbg4u2AzgACamZkRFR1FVHTUkDHR3/v846FDvP/+e7S1tmEikeDm4YHfxIn4+/dnyHwuqef1amHMGCtmz541yBA+Ly+P9NR0UlKSyDqVRU11tSHDrtNp6ezsIC8nh7ycHD758ENAb9YeFDiJKaGTCYuQExwUdMX9z4y4snOHSCxGJBaiUatRadR9yrmCAVOG4Dz86CKJ3ZV6wRqdBrFQhFajQSgEkUBw3hdoxO8DHR0d5Obmk56WSmpqKnm5OdTW1g+Syv51hNTN1YVJwcFERUUSLo/Cz8/3d2sZUF5ezrGjx8jOyaFKoaC7txczmQwnZ2c8PT2ZM2cOvj6+OLu6DFse0NXVQ13dGaoqqigpKaGsvJTy0nKqq6tpaGygQ6lErVIhFosZb2+Pl7c3f1own9DQUAKDgkal4qTT6WhsbOT06dNUVFRQXlpOWXkpVRWVnD5zhrNnz9LV1TWqrPNoJxcTEykWllaMHWeD3bhxODg74WDvwFibsViYWWBuYY6FuRmWY8ZgZmaOubkZ5ubmyGRmSKVSTE1NzpvR1ul06HS6vrIgbV/2W4dGo0OrVaNWq1H1qOjp7UGlVtHbq0KlUtHT0013VzednR10dXXT3d1NZ1+po1LZTkdHJ8pOJcp2JcrWNjq6Ovv+rqSrq4ue7h66e7oNZO9ySVpzUyPNTY2cyswcFGywsLLC2dGJiRP9CAwKImTyZPx8fQdtREYLNzdX1q5fx9r16ygvL+ebr7/h4MHvKCooMJSEqVUqEuLjSYiP5x9PPcWMGbH83/L/G1aq/K5Vd7Fo8SK2PrWVr774HLVaTXVlJevW3Mu+fft4+umnL6vMRyCAt95+Cy9PL95843XUKhVqlYontmxBJBEZosYAc+fN5eXtr/HgBn0pX2N9PX9ZuZLP9u0dtmHd2saaTZu38MhDDxnI3bYXX2TXB7vRaQaWGorYu3fvoOyCz8SJvPDSC8O+B7Vazd133sXp6irD/PbMc88OIV3Jycncu/oew4bYysqK5154noWLFl32fVh7ppaNGzdy+KefBlURCARCoqdFs+WJvxMUfOHSzIaGRr74/HM+37ePoqKi81YiWFpaEi6Xc9OiRcy69prLLrPt6OigoKCAzIxMMtLTycvN0wd/rkA5Xz9hEkskmEpNkZhIMDExxdzcDFMTE2QyGWZm5liOscLc3BxLCwssrSyxtLLC3MwcCwsLLC0tMLew6puvzLAwt8BUJkMqlVz18kmdDtRq/XymUqnp7e1BqVTS3q6kra21r5y7mfr6OurrG6irraW+vp7GBn1JZe+AMtkLzUsd7e0Gw+BBGzmxGDNzC2xsbHBxdcHdwwMPDw8meE/A1dUdJycHgzCGVCo1+GOdD2fO1FKQn09WdhY5p7IpKCjk5yM/09nZhUAAJqYm2Iwdi4OzEx6ennhP8MbbR99P5uzsjJWVFWPGjCGyr4978JhtoKqyioqKCqprTlNVWUV6WirKjk5MpCbY29vj7e2Nn78/U6dG/a6EXAICAggICDAElxoaGsnOziIlMYW09FSKC4tobm4etP60nT1LfNwJ4uNOGIIpjg6OBAQEEhoeRlhYGAGBAUaT598T+UKASCIBgRC1Wq0PzAgHr3+Xiyvq4yUSi1CrVQgEAqRSE+M3+DtCSUkJGekZpKWmcfJkJtWVlbS3Ky+4STUzM8fHz1dv1hgVSXh4+BWLkP4W6F9YdDrdiCVWWq2WmpoaykrL9OSqrIyyslKqKqpobjlLZx+5EopEyGRmWFtb4+jkSHBwMG5urgQGBxEcHDwsyVKrtYYm7/Kycv2/5WVUVlTQ2NiEsr2Nnp7eyyYNAoEQiYkUC3MLbMfb4Whvr1excnHFwckRF2dnnJydsLOzw9zc4orL5vYLYfyWZcZqtZre3l69AEirfoPT1NhIU3MzDfUNNDQ2UF9bT31DHQ31+rKmzq6uCwYZLjhONBrazp6l7exZ8vNyDSpYZmbm2Ds6MCkoSC+bLJcTEBhw0eN1w183sOGvGygsLGT/vv18++031FRWnVvEW1v47tsDHPzuW9w9PPjzzTezfOXy84rT2NjY8Or2V7lp0U1sfPxxKhQKdDotR48c4Ya0dB565GGDJ8+l4uFHH8bTy5PHH3mMrq4OVL09bNq4kbHW1swb4Jd14403olQq2fjY46hVKqorK7l95W188fWXw5ZR3rrsVj7/fL/BXPnosaPk5uYOii52dCj54P3dhv+bmpqy/fXtI26y779vvUH6XigSsWnLZpYtXzbonGPHjnHv6jW0tbYA4OTkxM533yE0NPSyx+yeT/bw/DPP0NyX0euHk4srm7dsHjYzmZGRwbvvvMuRw4cNJZK/DpLJ5XIWL13C3HlzL9mnSKfTkZOdQ0pKGkVFBWRmZIy4bow0N1lYmOPg7Iyfjw9+/hPx9vFj/HhbLCwsMOsjTzKZDIlEglQq+UMpIQsEIOmrCOjHaNfMtrY2qqqqKCkqobi4kMqKKiqqKqk9fYazLfrAm24YdWC1Wk1bawttrS0oyssGlcTq1y0ZY8aMwd7BEQ8PDzy9PPH08sTL0wt3N3esB5QVOjo64OjowKwB2Z7Ojk7Ky8rJyculIC+P/IICykvLyMvOMWR9hCIRMjMzrMda4+LkwoQJXnj7+OLt7Y3nBC9cXV2ws7PDzs6O0LBQ/uiws7Nl9uzZBnVIrVpLcWkxqSmppCQlk3ky0yCu1I/e7h4qFAoqFAp++P6gwQvP2dmZ4MmTCY8IJyI8Ap+rWPprxDAQnhPyEomEoNUhFYsB3Yh7yCtGvAZG0JTKkSNaYokYtVqLSCRGLDVKzv6nUF1VTUZmBpkZmWRmZFBUWDzIVHDo9yZhjLU1wSEhfd5ZkQQHB/9XyAb3L9xarZbTp09TUlxCaWkpZWVllJaWUqFQ0NTQiEqtRiwSYiozZdw4O1xcXJgRG4urmwsuLq64ubvj5OQ0rJJRZ2envhywvBxFaSll5foJtqq6iuaGRrq7e9HpNJdMqMQSCaYmUmQyGXb2Djg7O+Hk5ISziwtOjk44Ojsyfvx4bG3tBjVrq9VqlMoO2tvaaGtvo76+ntrTp9FotWg050oBNVqNvnxGq0Wj1qDjnEKptq+0RqPVoNOBVq3/XaPRoFVrEIr1KXqxSIxQKEQoEiHuUyEUCUUIRHqFQpFQhEgs0iseioSI+vquxH09Dv2bLwsLc0xNTUe18epXVjQzM8N2lBudjo5O6uvrqKmpoaa6hoo+1TNFpb4/qr29g97e7gsKxwz+3jsMksTffv01AoEQSysrAiYFMn3GdGJiYpgyZcqoyaifnx+bt2xm85bNJMYn8vEnH/Hz4SMGFT2dTouivIyXXnieN7a/xpy5c1mzdi3B58mOxM6M5eiJEzz59yf45KOPUatUtLW28PfNmzn6yy9sf+P1i1bgHIglS5fg4uLCqjvv5GxzM6ruHjbcvwGbceMGRbuXLVtGY2MjLz33AjqdlpLiIlYuW8GB774Zdp7ZuHkTSxcvpre7B1V3D7ve3zVIoCP++IlB59+7fj3BwcHDvuaNj2/km6+/NtxXa9auZdXdg/unThw7wd13rKKzU+/n5ePnxzL5beoAACAASURBVGf79mJvf3llQkplB/evX8+/D/04aD42NTVlxW23sWnzpgt+HgcPHmTnjrc4derUkOyWWCzG09ubP998M3/+89JLCpJ1dnaSnprO8bjjpCQlU1RYiPISSJZYIsHMzBwnJ0f8/P2ZOHEi/gH++Pn5/eaqrL29vbS3K/t+2mlt0fe7trW3097WSltrm/739jZ6e3qQSk0wkUoRSSSYmJggFomRmugFfEylJkhNTZBIJZhITfTlixIJJlI92ZKamGBqII2miMViTEykSCRiJFIpUrEEiVSinx9/NRdYWVkNUf/rh0qlorGxkZqa01RVVlJZVUlVZRVVFVVUV1dy9mwL3T3dqFWq82Y9tRoNHUolHX3l1ZnpaUPGjrmVJY72Drh5eODl5WX48fSawPjxtpiZmxlk2geip6eHyspKiotLKCkuorS0jLLSMkrLSsnOyqK3twe1Wq0XHTE1wXb8eNw9PAw9Vd4+Pvj4eF/2ffW72LOLhfj5+eHn58eKlSsMhDozI5PUlFRSk1PIy8+lva3NsK7odFra29ooaGujID+ffZ9+alg/fP18CI+Q68lYRMSIvb5GXKlNoxCxRGzo3RWKxSMSq3Zl+5UhXlq1Gs2ATUe/vO+g1/frSJtYgkarQSQSIjV6fVx1aLVaKioqyM7KJjMzk9zsbAoLCmlqahx2Ay+TyXBxd2XK5ClET5tKWNh/RxNoV1cXtbW1KMoVlJbpyVV5WRmnq2toaNB/JlZjrLC3t8fJ2Zmg4CD+9Kc/6ZWbnF1wcLAftpeit7eX6upqqqurUZQpKC3XE7ea6hpqampobmoa1rNsNORKYiLFytISG1tbxtuPx8nRCXt7e8aNG4fVGGtkMhlCoYDuri5aWs7S2tpKXV0dxcXFtLS00NGuRNmhRNnehlLZSVdnF52dylERiN8bpKammMpkmMlkyGQyLMzNkZmZYyaTYWnZV2JkoSdq4+3H4+vji5enB7bjx49I2MzNzYYtt+nq6qGmpobKSgUlRSUUFRVSUlJCdXU1zc3NqIbJTup0WtpaW0iKjycpPp6X+jZWoWHhzJw9i9iZsfj4jC6iGT0tmuhp0XR2dvLVF1/x2ad7yM7KMnyf3d3dfPP113x74BvkkZGsu/++If48EomYZ559luvmzOGxhx+lpq+87pcjR5h73Rxe3b6daTHTLvl7ioyKZN9XX3LnX26jqqKCTqWStavv5atvvx5kOnz//fdToahg7549AGSdOsk9q+/h/V3vX/DaoaGhXHvdHL7/9lsA/n3oJ2Smpuc9N2DSJB588MFhX+u2bdv4cIAp84KFN7Jx08ZB56SlpHHP6tUG0hUml/PRxx+Nqu9zOKSkpLHhvnVU/crceUpYOM+/+Px5N90An332GTt37KSkuHDI32zG2TJ33jyWr1xBSEjwRROtjPQMjh09SlJiIrl5uef18hou4GFuZYmzgzM+fj4EBATiH+iPt7f3ELPpi4VKpaKlpQWlUklnZydtbe20trahVLbT3tpGW2uLvoSvvb3v93aUHXrbi3ZlO11dXfqfjq5LDnZdlT2dSIREIkYsluitNUT6gJrekkOMtC9jJpFIEJtIkQj1yq3ivgygRCLB0soKS0tLIqPkXDfmOhDoM1KdHZ20KdtobmzuK2tspLGpiba2VlQ9F+6zU6vVtDafpbX5LAX5+UPnSgsLHB2dcHZ2wr0vS+bl6YWruytOTk74+Pj0zWfzhoyvmprTVFVVUllRSVVlBeUVFdTWnOGnH35gf3s7Pd3daNQaLCwtcHR2wt3dgwkTJuA1wUufKXP3xHa87R/WA9bKyorYmbGDSsOLi4vJSM8gNSWFk5mZVFVVDerT7l8/+o2e+8eNm6srAZMmMWXKFEImT2HiRF8jGbsShHlAEERfrQNioRhTmQytTotELEaIcMS59GICVBckXhqNZhDxUmvOJ0MrHLDZ0KfZtRpjxutqoKOjg5KSEnJzc8k5lUVOXi4VZRW0tp4ddlPdLxTg7+/PlNBQoqKjCA4Jvqwo93+aXJ05cwaFQkFZX3StXFFGbU0tKq0aM5mMcba2uLq44uLqQkR4BK59ZXZ2drYjCiO0tbVRU3OG6qoKyssUlJWXUVGh4HT1GRqbG+hoVxqU6K40TE1NsLS0QiyV0na2habGRrIyMunu7dFnmHS6YctN/tvQ291Nb3c3bRfwGzofJFKTvpIae5xdXPD08MTDwwNXd1ecnZ2xt3fEymrkenqZzARvby+8vb2GEJmGhgZKS0rJyc0hNzuXvLxcFAoFnX2mnBcaV0d/+Zmjv/yMWCzGxdWNGbNiuf7665k2bdqInltmZmYsX7mc5SuXc+pUFrvfe4/vf/jBUGqm02lJTkokJTmZ4Mkh3Ld+PfN+5Ss1c+ZMfvzpJ/761wc4/NO/0em0nK6p4faVK3ls48YhWZ+Lgb+fH/s+/5wVt95KaWkpdXVnWHP3PXx38OAgyfdtr7xMaUkJaSkpAPz0ww88/8zzPL7pwsbDDzzwAP/+8SdUvT00NTXwwe7dQxcyiYQtW54YtnT2ow8+4s3Xthv+HxgUxOtvDhblqKqqYs2aewzlhVFTp/Lhxx9dtmjQxx99zNannqJDqRxwv5uybv16/vrQ+cniF198yRuvvUpJccmQOd1voh+333knixcvxsx89K8tv7CQo0d+5ujRX8jOzhn1vSUUiRhvb4+Prw+TJgURFBSEf4A/7u4eQ8ylL5ZgVVRUUFxcTFFBEQWFBZQUlVBbW4NS2fm7UGC9ktBpNPRqNPTSc1Wu36+UiECg3zCKRAi5PNLSoVRSUlxESXERHD06aEzIZDKsrcfi4OiAs4uLXvTDU99f5ujohIeHOz4+3hfcrNbV1VFbW8fpmhqqq6qpqamhIC+fE8eO09TcRKdSiUwmw97BEXd3dyZM8GKCj49e5MPV5Q+5j+knqv0qsK2treTl5JGSlkJaair5efnU19UNCuLqNJpzJYrffaefP2Qy7O3t8ZowAf8AfyZNCsLbx/uKqvL+TxCvAYuGsI98CUQCzM0sAJ1eRGxgj5dwqGhgT/fF3c8XXO3VGjWagem185Y4DrihtTqkEilqtVqf8RIbidelorq6mrycPHLzcsnNyaUgP5/6hnq6u7qGzaj01wt7e/sSPDmY0NBQpoSG4uX1x8pmqdVqqqqrKS8ro7SklPKyciorKmhta0NmasI4OzucHJ1wdXNh9jWzcXW7HWdn51F7oTQ2NlJRUaHPjPWpBFYoFNTU1NCh1Peq/CcyRP1R2iu1AJ+LsgqRisVIJBKEEgkmYjFiqQkikZB+bRShSDxEpVSA3s9iyKQhGp4k6LS6QcpzWrUWtVptUAHT6bRo+xXA1FrUOn2QR6NS6c8bIBd+sRsuVW8PjQ31NDbUD5IX79+cSyRSzGQyxtvb4+zqgouLC+6ubri4ueLu4YGLi/OImY3+PoWBKl5qtZqiomIy0tNJT00lI+MkFRXl5yXparUaRXkZivIyPtr1wf+zd97xbZXnHv+eIcl72/LejrMTAiQhCSSEXRogFFIK97al0N5yaWkZbS+rrI5boJMyb1tKKS07QICwmpAAhUBCyB7ee8u2PGRJZ9w/3qNjKbYz2ej5fPyxLR2dIx2d877v73l+z+9HamoKC084geXnLufkk08+ICVx1qyZ/PYPv+emvlt4+G8P89Bf/2qLS5imwZbNm/nOt7/NzJkzueGGGzkuzOA4JS1FGCL//g/89s470YJBfD4ft/z0JhoaGrjtZ7cd9jVXUJDPk0+v5Jyzz6Khvp6tWz7g2uuu41e3/2/ENXXvvfdxxumn093VCcB9993DzNkz+dKZXxp3v1OnTWX+guN4w1r0jTcGLl5yIscvntijb+2atdx68032fZ2cmsp9D9wfAXhNw+TSiy+xz+WcY4/lkX/+44h9B39228944P77I8RxCoqK+OM9d3P00UeP2X7dunX84mc/Z+f2HRHXv6woLDh+Ed+7/HssOn7RQR//zTff5PlVz/P62rW0t7UdMHGkqiru3BxmzZzFMXOPZdasWZSWlh5Rj69hGNTW1tv2Grt27qK6qorOjnbRb/kRJLNCY6CiKrhcLpxOJy6ny6L7HaDv1zzw2GMa+yyLTEMovFoqhiF1V2yFVzAZq/hqWDRvwzBtKf19pamFCOyBx8JRpUQ+sgShfY7CKIwtzU1seu+9iHOvOhzExrhISkkmP7/AFvwoKi6iuLiEwsKC/bIOAAKBID093bS2tNLa2kp7axtbtmzh5ZdeptfjYXBokMSkJHKycygtLaWsvIyKigoKiwo/Mb/QQ43k5GSb2RC+Btz03iY2vLeBTe9upKa6mpGRyLXBiM9ng7G1//qXfe+6YmNJS0ujrLSMCkuNd1L5JErKSqIVsgNd04jeVkVSSE5JwgScDqftGTjxfXdosoYTV7yCGlpwdKI4GDNkZ4wT3dCRZdkW11DVqKT8RJm+9vYOqvbsZteuPezetZPdu/fQ2NQ4bsP0vtnH+Ph40tMyqKisYNq06UybMZ0Z06eTX5D/mTsXpmnyu9/+jpaWFgLBAAkJCWRmZFBYWMTMWWJBlpOTc9A9MqFMWl1dPXUW3bC+rp6GxkY6Ozv2W5n4NISQNFVQFQWH04krJgZXjIv4+HhSU9NITk4mIy2N5LRUUlNSSUtNIyUthdSUVKtPSigPulwxxMbGiF4FVf1sDHyGwciIUDX0+fz4/SOCXuQdYGhwiIHBQXr7PPT3if6M7u4uy/TZQ19/H74hH77hIYIWiIsAPJb6nm94iJ6ebnbt3DHuvZUQH487N5eS4mLKysupqKhg8pTJlJaWTqg+paoqU6dOYerUKTa/f3h4mHfffZd33vo3/37nbar3VjPg9UZce6Zp4PF4WPXMM6x65hmSklM46aSlrPjaBQc0+05JSeH7V3yf71/xfZ58/Enuu/du9uzea0nn62zZvJkV553H0pOWctOtt0YkYH7wgyuYMWM6P/ze920lrgf/9Ce6Ojq494H7D5vak+nO5PGnnuQry5fT3NjEY//8BytWnM/Rx4wCjJy8HG669WZ+8L3v29LbP/rRNcyafRR5eeN75X37O9/mzXXrx71vZUXhmh9fM+F7amxs5Affv8JOakiSzHXXXz9mwXf11VezY7sA61OmTuPRxx494sXbFd+/gqefeCLisVNOO427771nTFa6sb6RG2+4njX/WhPxOZ0xMZx08klcedXVB/RACy1W16z5F88+8yzr1q3bb1VLkmQSExMoKy9n7rz5HLfgOI459hhSDlP90O/309TUxM6dO9m9cxe7d+9m7569tLe1RphbH06oVvIoJjaWuIR4MtIzcGdnk5OTg9sSEcpyu0lPSyMuPsFWNoyNjf3MUNUMTSNoeaEGgxrBYBBd1wgEgkIxMRBkxC/Gx2AwSCAQwO/3EwgECIwE8PmGGBoaxj8SYMgnfIgGh4WHo29Y0BGHfT6GBwcYCQYI+gMEgwECgSC6pqHpuujv/RCUYYMBP8GAH6/XS3Njky2Ss2+iOMudTUF+PkUlxZSUlNhS+bl5ucTHx5OTk0NOTg5Hc/SExxscHKS9vZ2W5hY2bdzE6tUvMTLiw+Fw2FT0RYuOn9AH7dMW+fkiKXj28rPteXHrB1t579132fDuO2zfvp3Ozs4x1GBN09AGBhgaGKCpoYHX164Zc69n5+UJb7iyEsrKhG9bcVExaenpn1qV6o9zLWroBrKqkJqWhhHUcMbEoB9IL/4QT9v+qYZhmcWD6dlyOJyYpqAaOi2JblX5Yjt59/T00NTUTE11NdV7q6iq3kt9XT2t7e0HpHk4nC4SExLJcGdQViKyF5MnT6ZiUgVFRUWfm3KyJElcedWVh3Rz9HT30NLaQn1tPfX1tdTU1dFY30B7ezue7p4PRd54wpvGarxOSEgkMTERVT00Bb/4hESSkpNJTU4hNS2NlNQUUpJTSM9MJykpmbS0VBITEy2RiYQPzaD1sxCyLBMXF3fY17ZpQn9/Hx5PLx0d7bS1ttHQ2ERTYwPNjc20trbg8XgYHh4aNyNs6Dperxev10vVPpLNzpgYcnNyqaisYPaso5h91GxmzZwVoQgWHnFxcSxZsoQlS5bYQOz9Te/z+utreeONN6jZOzaL6e3vY+XTT7Py6afJKyzg9NPO4LwV50UISowX5604j/NWnMeqVau46w93scuqlpimwb9ee423//02l3znUq7+8Y9RrQTG0qVLefKZlVxy8beoq6kB4PlVq/D9p48///XBwwbreXl5/PnBB7ng/BX0ejz84mc/56lnno7YZvny5Tz79DO89uorAPR7ern6qit59LFHx93n0qVLycnLs+Xfw+PYefP2e34uv/xyPGF9rwuPX8RF/3FRxDYvrX7JBki5ubk8+NBfj2h8NU2Tb1/ybV568YUIgPitSy/l5ltuHnPN/uG3v+eee++OSLo5nC5OPvlkrvrRj5gypXL/xwPWvb6Op554knVr14xRS4y4LhMSqKioYOGihZywePFh+S8ahiGYGTt3s2unoNtWV9fQ3tLCwMDAIY+nDoeT+Pg4EhOSSM9MJzMri9ycbAGscnPJzs4mMzOT1NRU0tLSPrM9Pwcc/1QV18ecJDMMA5/Px/DwMINDQwwPDeHt89LX30dvXy99vb309vXh6e7B09tLf28vvZ5ehoaHGBweJuDzEdC0Q7Y7CQlLDHi91FTthbX7JvJdZKSlU1BYxOSpk5k2fTrTpk2jpKRkDCshISHBFuz4vM6Ls+fMZvac2Xz7u98BoK2tjW3btrHxvY1s2fwBdbU1dHt6JuzTNE3Dntv27tPLJysKKZbqZUFRoSWsUkJ5eTlFhUVkubM+VqXiTwx46TrBYABFUUhLSUUzDCF2dIBEhCIdWoFpYqqhaaKFHcw1TkNzBDg2DRwOFUM3kCRs3rfD9fmnHLa3t9Pc2Ex9YwO1tTXU19bR1NhIW2sbngP4c4Q8ldzZQlGorKyU8nLBAS4qLiI7O/szU634MEPTNJqammlsbKKxUfRz1dfX09LcTGdHB/0DXoIjHy5PPsSPdzpjSMtII8udJYQ4cnLIzsklLz8Pt9uN2+0mIyMj6r3xqQTxohKUkpIyIcXW5/PR3tZOTU0Ne3bvYfeu3cJQu76eEZ9vwmxvYGTEpgi++tLLAMTGxlNSVswxx8zluAXzmX/cggmVL+Pi4lh0/CKbJtbe3sH6det45eWX+Pdbb9t9RaFoaWziz//3AA8++BfKK8r50hlncvbycybsmQBYtmwZy5YtY+XTK/nNr39tA6rh4SHu+t3vefXlV/jVHXfYFahJkybx9NMrueg/LmKnRc3812uvccnFl/DQww8d9vcwbdo0/veO27n8u5fx3nvvsmrVKpYtWxaxza233cZbb72Fz0qSvLX+DR579DG792HfOOOMM/jz/z0w5vFvfPMbE76Pe+6+h83vbYxYzN1y262R32sgwM9vvQ1N03DGuPjN739/xMyBSy65hFdeXB0BLn5y3bVcdtllEdtt2vQ+1/7kJ+zcvj3sIpaZN28e195wHcccc8x+j1NVVcWj/3iU519YRUtTy4QLhPTMTE44/nhOOe00FixaSMYhUI56enpoamhi+45tfPDBB+zZvZfGxgb6e3sPmpKtOhzk5OZSOXkyJSUl5GTnkJ2bjdvtJisry67kR60/P5lFfXx8PPHx8YdMJw0EAvT399PX109PdzedXZ20t7bT0dFBW3srHW2ddHS04+npZnh4+JD69QIjflpbBcVwwztv2/dGXHwc7kyhjhhKRpdXVFBSUkpaWsoX5nsLVQJPPfVU+7G2tjb27NnDzh2i4lxdXUNDYz0DXu9+21QMXReCLB7PGCaI6nCQnJSMOydbnPOKCiomVTJpUjklJaXExX2+EsPDPh+yrJCWkY6mabgOwhrL4Tq0AtOEK3rTMDDDerzixsm6SxHiGiaqqlo3lolq9Xgp8mebahgIBOjs6KSlVTR/Njc109DYQEtTM83NLXR3d+IPBNGDE6sGhZSMMjKyKC4qpLS8jLLycsrLyikpLaOwsOALWeIdHBwUvVZW1aq2to76unqampvp7ekWdDHdOGC24aAmF0VBUVQSExJJz0wnOyfbUmrKIyc3h5ycXHKzc3DnZpNymL430fhsRGxsrO1jc/IpJ0eMYXv37mXLli1s+WALW7dspaa6msHBgQknLZ9viJ3bd7Bz+w7+9tcHccS4KCooYsHChSxZuoSFixYRP0E1ITvbzYqvrmDFV1dgmibr161n9erVrHntNdpa2+zxxNA09u7azd5du/njXX+gonIS5577Fc79ynm43eMvlJafu5zl5y7n3nvu5a677rKr67t37eL8887j8u99j6uvuRoQ9MBnnn2G85Z/ha1bPhDg69VXuPyy/+bue+857PN85pln8u43L+bP//cAv779Ts4888yIrGlhcSHf/NbF3PvHP9oZ2d/c+WuWnbVs3ArMzHFU+1LTUjnttNMmAAwe7r377ojHvnbhRVRWRlaP7r//furqagH4r+9edkj9U+PFVT+4cgzo+tkvfmFTUEFQzX9268/420MPRfj85OblccNNP+Wss87az5wU5JmVK3n4bw+zbeuWcSu3kiSTk5PNKaefzllnncW8+fMO6r13d/ewdesW3t/4Ph9s3syuXbvw9HnQg9pBKbbKikJ8XByFxcVMmz6NGdNnMm3GDKZPm3pIIiDR+GyE0+m0e173lxAKzfctTS20tLUIlcMGoXLY1NBIa3srQwODB6Y5mgbDg4PUDQ5SV1drU+lCa6yE+ESKigopKSujrLyM0hLR91VUVER8fPzn/vsIgbEQy2L0vu6mpqaWuppaautqqK2poaG+kY72DrwD/fs971pQ9Nn19HSzc/t2Vofd606Hg4ysLComTaKycpKoTGdkkZXtJiMjnfT0TFJTkz9TFerBwUFkWSI5OZnOzk6UfdqlxvssDocDSZIPOqkwIfAK+v0RDWOJByGl63C4hCiHbtjA69N4uoPBIENWOb2rp4vOzk462juEwk5rK52dHbR1dNDd0cmAJbZwoJAkmRirqTE7N4fy8nIqKkRjY2lpKQWFhTi+gJWr7u4empstqmV1NXWWv1VbazMD3kE07cNtAHbGuEhJTiEvL49JlZVMmTqVKVOmUFxSTFZW1ufCmywaH01IkmT7sKxYscJ+vLG+ke07trNt2za2bdlKdU013V1djIwjhBIc8dsKYCEgNnXKVBYev4iTTjqJOXPmjHsNSpIUITu8c8dOXnrpJV575VX27tlt98dowSC7tu/g59t38Kv//RXz58/jP//z65xx5hnjUkEu++/LWPHVFdx8409ZtWoVWjBIYGSE3955J+9v3Mi9D9xPUlIScXFxPPH0U5x/7ij4enblSnLz8rj+husP+5zefOstrH9jPVW7d3Pfvffx35f/d8TzV151Fc8+86xNIWxpbuLvf/s737HoNKF4YdUL/M+PfjRm//Pmz5+wD+vBP/+F3jDKXXpmJtded92YueCvfxby8hVTJvOT//nJEV1Dv77z1zzx+OOjE6yqcsttt0WArrVr1nDDtdfR0NAQMW5dcOFF3HzzTROaP+/atYeH/vogzz333Lg0dUlRyM3J5cSTlnLuuecyd97c/b5X37CPXbt38e47G9i48T22btlKe0fHQVHGJEkmLiGe7KwsSivKmT59BtOmTWPqtKlHLCUfjc9nJCQkUDmlksoJaLNe7yBNDQ3U1NVQU11D1d69QiG1vZ3+fu9+12EhtUjPiB9PTzeb338/cqHrcJCUlEx+fj6FJcUUF4o+spKyEvLzhTri55nSn5GRQUZGBvPGGROGh4dpbm6hubmJuto6mpubaGhspK25hZ6eHvr7+/GNI+xm6Dojuk5zYyPNjY2sfe21sYkYVcWpqsQnJpKWlkZ6RgaZmZlkZKST5XaTmZ6JO0dUvdPT0khISiLhEwbIHo8HVXWQmJRIW2sbMQfR53uoVb8JkcBIYCRCsudgOOAuhwNTFwasIVGNYJhAB4eo/DEu+tY0AoGA3Vg6MjKCb3hYGCQODuD1eunv7cfr9dLX14fH00Nvfx/9nj56+3sZGhpicGCQwMgIIyP+Q24ilaxSd6ZV6p48ebIYTCZVkl9Q8JE2b/b19+Pp6aGtrY32tjY6O7uEIeTgIHGxccyefRRnLjvzY79Qe3p6aGlppaammtqaWqr3VtNQX0tHRwe9/X2H5A1zUBet5R+TmZ5JXn4+5WWlVFRWUjGpguLi4s+FGWM0Pj1RWFxIYXFhhOpeT3cPVdXVbNu6la1btrJ71y5a21rxer0Rkv/BET9bNm9my+bN3POHu0jPzGTOnDksPfkklixZMqGh7NRpU5k6bSpXXX0VbW1tvPzSy7z4/PN8sPkDu39RC/h5c/163ly/nvzCAr520UVcfPHFY/of0tPTueueuznrnHO4/rrrbZCz7vXXOXvZWfzlrw9SUlJCfHwcf3vkYc5b/hUhHQ383333MX3GdM4+++zDBLNw409v5Ftf/wZ//ONdrPjqCjIyMiImrB9edRU/ufpqeyx+4vHHxwCvt9/+97iKn8ctnNh/7IUXno/4/4c/vHKM8umqVc/T0d6GJCnceOONR3SdvPLKK/zxD3fZn0NWFK68+hqbChkIBPjpjT/l0UceiaDolVdM4pe3/4rjwlQyw2PtmrXcf//9vPPvf4+pbqmqSnFxMSeefBJnfnkZxxwzsQBBX18fmzdv5q0332LDuxuo2Vs9ht46XsTExpKcnEJBYQHTps9gxvTpTJ0+db9iM9GIxqFGUlLCuCbNpmnS3t5OdXUNu3ftZOf2HVRXV9PV3Y233zthv27EujEYxNPTjaen204shd9DcfEJpKWlCZGWwnyKi4opLCikoKiQvLxc0tLSPzFK3Z49e9mzZzdZWW5ys3NIz0z/UKt3JFlbcQAAIABJREFUcXFxTJpUwaRJFbB07PODg4N0dXXR2NhMY309jU2NNNTX09TYSFd3N/29vROupQ1NY0TTGBkZoaeri6o9e/a7rnPFxJCQkEhWViYFhYUUFOTjzskhM0NUVZOTk0lMSiQ2NhaXyyX87kKKzZI8YaXHMIwJRUE9fX1CfdSK9rZ2ikuKSYiLQzd0HE4HJvvHLgmH2CM7IfAK+PwRQOlANAEDcMU4MQFd1+xyXHjG8Z1//5tlX/oSsqIiSZJNQzRNA90whAy1plky0xqaaWLqBsFggKCmowcDBIIBdE1H03SChoYe1G0J1iPPeI9KoKalZ5CRmUGW2407K8tu8C2vKKe0uJSEpI9mwvF4PNTV1lFTU2M7wDc3NtLV2YXX68Vn9aA4Y2KonDSJBQsWcPIpp3D00UcfscHn/sI7OERDbS11dbXU1NRSXVVFY309bR0d9PX2jpv9P5LvQXE4iI+PIzc7m4LiYkqKBTWsuKSEoqJC3G73hJnhaETjo470jHTSM9KZH0bh8vn81NXVsG3rNrZu3cK2bdvGKBn2dHXx6ssv8+rLL+NwuigpK2HxCUs47YzTI/YVHjk5OXzz4m/yzYu/SVdXF889+xyPP/YYu3butLOQzY1N3PHL/+XPD/yJb37rYr73/e+NuT9OOfUU5s6by5U/vJJXX3oZ0zSo2rOH879yHg89/DemTZtGRkYGf3noQc5Zdjaenm40TeO6a69l7ty55OTkHNa5Wrp0KbOPPpqNGzZw43U3cO8D90U8f+GFF/D4Y4+yccMGAKqrq2lrazvg8SRJZvbs2eM+19XVRXNTs/3/rKOO4uJLLh6z3bMrnwFg9pyjxvi1HUp0d3dz7Y//JyIrf8HXLuQHV/4AgL1VVVz+X5dF9E9Iksy555/H7XfcPm7V7vXXX+fXt9/BB5s/iFjUSIpCaUkJZy5bxpeXfZmpU6eOP4cHAmzYsIF1r6/j32++RXVNNcNhPmLjnc+YGBdFxcVMmzGDGTNnMGPGTMrLyz8zanDR+PyFJEk2he74fWjAPp8Pj8dDe1s7LS0tNDc309zYSEtLCy0tLXR0dDA4PIR2AANpb38f3v4+6utq4R3GBWapqSlkZmXZfmUCmBVRWFhATk7uIYtsHWxUVk5CUVQe+fvDvPLSK/T2ekhITCQjPZ3svBwK8grILyygoCCfvLw88vLyPlR/s5DIV0lJCYxj2dHn6aOlrYWamhqqq6rFT3UVTY2NDA0NHRRFOfQ9aJY9QUd7G9u2bp3gelBQHaowIFdlJFlBUSQURUWRZSRLgT3cskHfD0bQNT3iPTY2NlJeXo7pEgy+xIQEDoC7iI2NR1EVtOARUg21YDACICaOm9kahZembuK0Jo9AIGidSIO29tbRxbvXy+b3N3+sN62sKMiyjENViYmNISMzi8zMLLLdbty52bjd2eS4s3HnZJOVlUVGRvrHohbY3t7Orl272b1LSO7WVlfTUN84Id82JiaG0vJyFi5axPEnHM/8+fM/9Pc5PDxMfb3wtqqtrqW6upr6ulqampvp6+39UGRmQwOZrKrExsWS484Wg1dBPgVFxZQWl5BXkGf5ckWzqdH47ERsrIupU6cyderUCIGI2to6PvjgAzZt3Mj7m96ntqYan89HMOC3e7f+9MADpKQmM3/+Ak770hmceuop4yZSMjMzueTSS7jk0kvYsWMHf/7Tn3n+2efsKpinp5vf3HEHj/3zUX56001jKuDJycn85cG/cNcf7uI3d/6aYMBPe2srXzt/BU89+wwVFYIa/bu7fs+3vvFNtGCQfk8v11x1DY/885HDPjdf/8Y32PTue7zwwvM8+uijXHDBBRHP33zLzSw/5xyCI0KCeu2atRw15ygMw6Crs4u9+yhMAiiKzLq1r7Nn92gWNT4unuTUFFpbW/D7BT1TdTi49vrrxn1f728S3kMXXXTREX33P/7xj+lob7P/X7BwIbffebsFoNZx+WWX0R9GD4xPSOCmW27hwosuHLOv+vp6rr/2et5Yvy5iQZCclsrZZ53D1y66iBn7VAVCUVdXz2uvvsprr7zKBx9sZnhoeNwxOyTqlF9QyFFz5nD0MUcza/ZRTJlS+YUUc4rGZ3XMjbXBxtETVHuHfT462ttpb22noamB1uYWQaWzwJmnpwd/MIA2QR9jODBrqK+3zd9H15gqqkMVQCg3h/z8AoqLRcWsuLSYouJicrKzj+hzlpeXctPNN3HTzTdRV1fH22+/zcb33mPH9h2889bb+Hw+dF3DNEwUVSE2Job0jExy8/LIy82hoKhI0CwLC8nLzyc7J/tDa31JSUshJS2FadPGjkltbe10dnbS09NNZ3s7PT29tHe009PdTXdXF109PfR6PAwPDqEZGoZ2YMN009QJBnSCH5EJedXevSxduhRJkjA046DW2c4YJ7Iiw0F2zuzXQDk8EhPHLgKkfQQhnE4nEhAI+DF0g/fff5/+/v7Ii1RViY+NRXaomDroepCgFsTQdCRVQZVVVEVGVoWhq0NVcLiE8aHiUHE4nDgdTpwOBzExLmLjYnG5YnE5XcTExuCKcZKYmESW2012tpusLDdZWZmkp2cIB+qPMTTNoL29jbq6Wnbt2MWOnTuo2iPk5AcGvGMurtBkmJWZSXZeLmWl5VRUTmLK5MnMnTf3Qykve71eWlpaqKurp7qqShgI19XT3NhAT0/PERsH29WqhDhSk1PJyMygIL9Q+FIU5pNvZWVyc3Oj7urR+EJEaWkJpaUlnHvuckDQHrZv2867777LhrffYdv2bbS3tdHr6WX1iy+w+sUXcDhdHHXUbE497XROPf20cRUap02bxm9++xuuv+F6/njXH3nsH//A6/UColfqu9/5Dueefx533HnHmOrX96/4PqUlpVx15Q8ZGhzE4/Hwnxf9B6teeJ7MzEyWLl3KZZdfzl2/+x0A69ev44VVLxw2lXnBguOIi49jaHCQG6+9jtqaWmQLZDQ1N9PS0hKhUvrjq68+qAzpb+6888DbBYP817e/Q0Z6Om63m0yLwSDJEgPeAZwxLuYcM+ewv9+1a1/ntZdfsf8vLinl//7yZwBeeekVLr/suxE0yfzCQu5/4AFmzZ41Zl8P/fUhfvGznzEUVpkqKCrikksv5evf+IatFhwe7777LqtfXM1rr75KfW3d+F5nqkpWRiZTpk1l7ty5HDtvHjNnzvzcKZJFIxr7RlxsrG3UfBzHjbtNX18/ra0ttLe20tjUTEtzM01NzbQ0N9HW3k6fx4PfHxifTqdrBHSN1pYWWltaeD9MRXV0Xeci051FoeVRVlJSQmlZmfAry805pCRz6LNceOFo0qarq5vGhgbq6+tHBcsa66ivr+f9jRvx+0epgCGf0LS0NLKzc8jNyyG/oID8/AIKiwqFH15WFunp6UcsIZ+Tk01OzsGBTq93kJ6eLjweD11dPfR0d9Hd1U1HVwfdXd10d3bS5+0nGIj06JQlyVakliRZ4BJJQpJARgJkDHRMwyQYCBII+Bnx+fD5fPgDgTFge8f27Yz4/RhaEM3QcTlj8IcxGcbTwXO5XCjSwZ8ryZzAcvn9dzdwzvKv2G/qkcceZ/E+Zca77rqLX/38F+LijkvgX+vWcuZpZ/D3fz7CL3/5C2JiYnn1pZfs7adOncZ/XvxNCguLiI+NQ1YVS83PRJZlYmJiiImJJTY2JoLD+WkNv99PX18fPT09wryvqYmGpmbqa4ViTGdHB96BgTFNobKiWG7rbiEhX15OZUUF5ZMqKSwsOOIy8fDwMK2trdTX11O1t8oWtWhpa6XX04tvgizowQIrl8tJUnIyGZmZ5GTnkl+YR0FhIXm5eRQWFpKbl0tKSkpUyCIa0TjIaKxv5O133uatN95k08b3aGppsUUOVIeD0vIyTjr5ZM4888wJ6XUtLS3cctPNvLR6dcRkMufYY3j474+QnDw2ebZmzVou/+53GbAA24KFC3n8qSft55eduYzNm8RCYur06bzy2quH9Jne/PebvLn+DTa/v5nmpqZPrXF5WloaU6dP54TjF7PwhEXMmDHjoJVmly1bZkvWu7NzePLppygpLWHLB1v42lcviOijmjZjBn/7+yPjqlFec9XVPPbPR+1zlJSUxGXfv4LvXvZfY7LTGzZs4Omnnub1NWtpbWkZm8RTFHKys5k1azYLj1/EwkULqaioiN5o0YjGYURfXx8NDY3UVAtFwOrqvTTUNwhQ1tt7wB6ziUJWFGLj4khLS6MgP5/y8nJKK8qprKykpKSE3NzcIwY/Hk8fVVV72LZtm92P3NzSwkBf/4TVcIfLSYJFr8zOziUvL5f8wgJKSkooKy8jNy/vkCwpPskQRuQBAoEAPp+PoSEfg94Bevt7aWxs4PW1r/Pqy6/Y6tmqqvKT668j2+1m06ZNzJw5C6/Xy81WD/DkKZN5bW2k6dzg4CBHzz7KTpg9+sTjLDr++EMHXps2bGD5uQJ4SZLMymef5Zi5x+wXeL3x9r85ZelS7rrnHi77zndE9nWfL1ZWFGRJAklBVkBGRpZFb5WqyKiqiupwoCgKTqeDmNg4AchiY4lxxeByOYmNiyU2No4YpwtHjJMYVwwOhwOn00lMTAxOlxOn6kRRFRRVQVVUJFlCkRQkWUKSJcH/RCiz6BYHVAtqBPwBRvw+fMM+fCMjwlRwYID+vn4GBgbxDvbT39vHkOUCP+IXDvLmOCVqh9NFamoKxcXFlFdMYlLlJNvkz53tPmJg0tbWTk11tQBXNdXU1NTQ1NAgSrfDw4ddvVIdDuISEsjOzqbY4jIXFRdTVFJEQUEhOTnZURpgNKLxEUZtbR1r1/yLNa/9i40bNzE0OGCPn7l5eSw58US+vGwZixaNFZdYuXIlN1x/Pf2eUWrb3PnzeGrlynGlcFevfonLL/uuLYLzox//Dz+4SvQmbd26jXPPPpsRnw9JUfj7Px5h8eLFEySiArz11pu89sprvPXmGzQ2Nh2UIuynLWRFIS0tndmzZ7No8fEsPmExFZPGBy2bNm3iK+csRwsGiYmJ4aFH/sHChcehaQannnISe3eNUiTnzT+Ovz3y8LjMhUu/9S1eCpOgnzFzJvfcf5/oq7Biz549PP7PR3nxxRdpbmkZM+fExcUz+6g5nHjSiSw5cekBTZejEY1oHHl0d/fQUF9PdXW1WIdVVVNbU0dHeytDw8MH3eM03voxKTGR7NwcJk2qZMrUKUyZOoWpU6dPaCNysBEIBGlpbmb37t3s3bOXPXv3UFdTQ3NzMwMDA/sFkpIk44pxkZSUREpaKm63mxx3DlluN+kZ6aSlp5OcnERiYiJJSSnExwtWmsPhwOVyIMsyitUChAm6oaPrOqZpCu2GoBDP8/uDBIMBfD6x1h72+exK1eDgIIMDgwwNDwnz78EhvF4htBJamw8NDTIS8KMFNGFNFAygaTqGoaOH9X8ZhjkGp1RUVrLiq1+lqbGB+cctoL21lVtvuWVC4BUMBpk9a5Y95x4IeB009y4u4QDiGoaGwyGa2pqbmxgcHIhAkLGxsTidooIV1DU0TSPoF2IZ2kjwU39zSYpiNe7JOGQVVXWgqjIZGZkkpySTlJREZnq6kJGfVEn5pApKSoqPmE7X19dnSasKcFW9t5r6uhra2tsn5O8fzMLC5XQSn5BAQUERJWUltudFaVkZBQX5H6lQRzSiEY39h6AnXsoll16Kpmmsf309//zHP3nzjXU0Nzby94ce4u8PPURqWhonnnQSZ519FosXL8bhcLB8+XJmzZrFN/7z67aB8rvvbODqq67iN7/97ZhjnXHG6fzoxz/h57cKY+G7/3gXy89bTmFhITNnzuCrX7uAh/7yIKau89yzz9nAy9AMtm3fxuvrXmftmrXs2Lp1XOXBA46tFk1EVhVcThdOh5PUjHSyMjJwZ+eQkZlBSnISumFax9XQTQNN1zE0g4CmoQeD+AN+Av4RkdUcHmZoaJjBwQG8/V58Iz60gKC1awfwpDJ0ne6uTl579RVee/UVJEkmPSODufPmcsKSxZxwwmIKC4Ua5XMrn7EXKRdcdBELFwoq0/89cH8E6Fq0eDEP//3hcZNtV1xxRQToOn7JYv72sNh2eGiYJ554gkf/8Q927Ngx5n3HJySwYOFCvvq1C1i6dGlUcCga0fiYIyMjnYyM9HF7zLo6uqipqxUJ8qoqqvdWUVdbg6e3F5/Pt1+AEwz46enx09PTzY5t21j51Oh4mZKaTFl5BdNnzGDmrJkcddRRlJeXH7RfltPpsL0sz/jSGRHPDQ4O0tTUQkNDHc1NzTQ1NtHS0kRbmzDGHh4aJhjwC0pgZ3fEODfR+G7/fQAWgWlE1oE+bIZEyHssLiGOlKRkkpJSkBUJj8dDR0e7nXys2rOH6upqJCDGFXNgkOxw4FJHx3blAP1zB1XxUlWVtW+sj8i+Adxz99384rafAUL8YcuO7SyYfxyLlyzh6SeeACApNZUH//ogRx997BjVl+HhYdrbO2hsaKC6RlRuujo7hbKhpqGbplA31DQ0w8DUdfG4YaDpGkZQI2j9bxompiHUEXVDx9RNDFPHME3rOdG0Zxg6DqcTp0v0hMXHx5OQkEBifIIAUMkpJCYlkpKUQkpaKomJCSQnJZOSkkJ8QjyJCYkkJiV+qP1JfX19NDU1UVtbS3VVNTU11dTX1tPc1Iint++wDYRlRSUhPg63O4eSshImTaqkcnIl5RXlFBYWkhw1Co5GND5TMTQ0zLMrV/L4E0+wdcsHEVYNSckpLDr+eL581pdZsmQpw8ODfOWc5TTU19sT4N333ctZZ49vznvBVy/gzXXrADj3K+fzh7v/YI9Pxx07l4GBAdxuN6ecfjq7du5k9+7dDA0MHPA9qw4HaWlpZGZlkZaeRlaWEDhyu91kubPIysgiLSNd+Lykpx0xtWbiLG+A3t5euru76Whro7GpWYgJVVfT2NBAe3v7uH4140V+YSHHHjuXDRs20NrchMPpYs26tfYcedy8+TRZPl3zFizgsccfG1e04q8PPsiN191gLzDKKybxzPPP0dLczIN/eZAXnnuOgX3OscPpYvqMGZx3/nmcs/yc6DgejWh8xsIwDBobm2mor6O2ppoqS8W6ubEJT0/3YTGWEhMTKS2vYNq0acycPZPpU6dTWl76kSTRvV6v8Pjq7cfT58HT7aGvvxdPj4d+r5eBwQEG+r0RlaoR/4hQJQ9olt+vjm6aYP02dANMA32f9e6Blr+SLAmmnKKiqqrQf4iNJSkpidTUZNzuXPIK8igtLaW0rJSCgvHbeerq6rjie1fY1PpZs2ZTWFLMhV+7gF07d+234gVwzJyjaW8VYoJPPrOS+fPnTzwnToxSpbAPpuB0OPe7Teh/l9PJi6tG/VPKSstQFIWamipiY+OIj48jISEBl8tFXFyc3Xi+5MQlH+qFYZomum5imsJXzNANTEwMw0BRhDDHx2mmLUzqmqmtraWmqkb0XdXV0trSQm9vHyP+kXHpigcbqsNBdk425RUVTJ06jekzplNZOZnCwoLPtTFgNKLxRYr4+Dgu/I+LuPA/LqKurp6VTz3FypUrqa+tw9vfx4vPr+LF51eRlJzC0ccczdHHHmsDL9M0uPWmmzlh8QmkpKSM2fdtP7uNL516Gj6fj9UvPk9X90/JzMhgYGAAXRezX0dHB39/6KEDZjiz3G6OnXsMJyxewtzj5lNeWvqJnzun04nb7cbtdo+rwDU0NETVnj1s2ryZ997ZwPvvv09ba9u4WdeQaWgoYuPjUBQxndbX19PW0gLAlKnT+NvDfxsXdLW3t3P77XdE7H/KtKlcevElbNy4EW0fmmZRcTHLzjqbr5x/HhUV5dGbIRrR+IyGLMsUFxdSXFzI4iWR1G2fz0dbWxu1tbW2unRtbQ1NzU10dXYSnEAaf2BggC2b32fL5vf5x99HPWez3W7KJk1i8uTJTJ4ymcrKyRQXF01oPH8wkZSUJABdyeGuz4XtlGFR/nRr7WuapiiaWJrqYh2vR6zrQ7UiWbbalGQVWZVRFBWHQz3oxJ1pmvh8PgYGBhgaGsI35OOUU0+xgdfevXvwB/zExifsF/eEQrG8iw9qvT7RE4oSWR5UDkJ6UpIkXDExjIwIusmkKZORZYnzzj0PDN3q65JwORzIDhWX6iA+MZGkpCQSk5JISU4RX2hyIolJSSQlJBGfICpS8QnxJMQnCuXC2BicDgdOhxNVUZAVGVVRMHQTzdBsrqj4YsWXquk6hm5YXFLD0u4X1THN6mPLzs6isLDwiG6olpYWy8egmprqGqqr9lLf0Eh/Xy/+kZEjUg1UVZXEpERycvMpLy+jrLyc0rJyJpWXUlRSOsYcNBrRiMbnN0pKirnqmqu56pqr2bhxI4/+45+sXr2a/t5evP19rP3Xv8ZZ7Ldx2y238uvf/mbMcxUVFZx6xhk8+/TT+Hw+/vKnP5Oens59995ry9VPuJBQFMrKyznl1FM588tnMmvWrM8gqI1n9pw5zJ4zh0suuQSALR9s4fnnn+eV1aupra+fMDnm7e3l5CUnMnfePAqLiuxx/r+/d/mEarS3//JXeMMk5gFWPfPMmAXOyaefxoVfu5D5x82PXvTRiMbnPGJjY0V1prQUTmYfUOanubmJ6uoqqvZWUVNTTW11HY1NDfT39UVQF03TYGhwkJrBQWpqanhl9Wp7HRkbG0taejqlZWVUTqqkvKKC8kkVlJaWfKgeYKHYtHETmq6hSIoFkoSCObKEqirIsmL1fSkoiowqK5ayuTS6vjdNNE2s7/1+P4FAEL9/hEAgwPDgIAMWeBocGmRocIi+/j68Xi9DAwP0efvx9nkZ8A7gHezHN+QjqGlowSBBTbP7vbLcbo5fspg3Xl+Hz+dj965dxMbGRhgsTzgHcvCVnAnRlBrGRZclKQKIjRe6IZQJXRYfMjY2lt/97vfMnDWT+vp6nnt2Fa+99irV1dUMer2jdI7Ozo8nwxDqa0pMJC09jaLCIhu4TJ48icrKyoOSazdNk+7ubupq6wS4qqpib3UV9XX1dLR1MDw8eNjvMaQYmJCYRGZmJiVlpbYYR3lFOUVFxeMqk0UjGtH4DIQJBiaG1Ugc+jEMQ2TxTDDshl+RJDIMkSQKappFldaEgXwoqaTpaLqBYcD5X13BCUsW88wzz7Dm1dcm7B946sknOX/FinEX8svPXS5MhU3DlpLf3wJh8pQpnPHlM/nyl798xEmrT2PMmj2LWbNncf0N11NbW8cLzz/PS6tXs2f37jGm8cPDQ7y+dk3EYxNllaurq3l+1aoJj5uUlMQl3/k2Z599DlnuLGRZYXh42JonJGRZRpIk+0eWFSSJg+7xiEY0ovFZBGUuKirKqago54wzzthn/Bmmvq6O6poaqi0165qaGro6OvB6vbYcvqZpDAwMMDAwQEN9fUSCTpJkEpOSyM7JpqioiOKSYoqKSygqKqSooAh3jvuwbI2KS0p4+eWXeHP9m2zbtpXuri58RyAA92FEyBg7v6iAuXPnceopp7L05KVAJO0+NjZ2vwbMNsaQPwQ5+dqqvSw98SQ0TSMmNpa3391AZmakksq999zDz2+9TXwIp4s9VXv46vkrCAaDXHvddSzax2UcwOf3U713Lzu27aCqqoq6+jraWtvo7fUwNDiIf8QvjNR0A0xzDNIUiogSkiKjSDKKqhLjjCEmPoa42DiSU1KEP4E7m8ysDNzZ2eTm5pKbm0tGegZp6ftH8yHFlF5PL729vbS0NFNdXUN1dRUN9aIPoNfjOWylGiHV6SDJ8horKi6mrLRMyIiWC/7pvuc5GtH4VIMJ07BViXQbVGBRCAybShACFFpQs5WMdKsSrekaplWxtgGHJZ4g+jotQZ5gEM0y8tY00fOpWcaRmm4I4QVjdJ+aJvYXDAbQNAFWNE1HtwQadE0XP7qObuqYmi72G3p/mk4g6Mc0TGvfJpoRXjU3xet0Q/w2BLAK9aIa1uczwhSUTFNHN7G57aYeeiy8H1U89lFFbl4ep51xBlOmTiEvNw+AHTt28Ng//0lNdfWEyauMjAxmz5nDqaedykknnkSm+4s5VrW3t/Pqy6/y4uoX+OD9zbYc/77hzs7h6xd/g/nz5xMbG0dLSwtvrFvPC6tW0dPTfcC5QlHk0fkOCUlSkBQBthRJAkUArvDnFElCstSDZUsUSlVV4XGjyCjW45IkoVgZZsnywFHs1yhIVuZZdVpKZJJQCVYUMe9KkmRlroUwilAsFsdSZJHZVhVFCFEpKrIioaoO8Zwi/HZURRWZbkUW70VVRn9b78WhOlBU1cp8qyiq9d4VFTXsfUqKeEyWxXElWbIz67IqI8vCvkaxPrskKSjWuQTJPjcRnkBRHBuNz0F0dXXR1NRCXW2NbTHU2NhAR0cHAwPeCemL+4YzJobU5FTSM9PJyswSBs15eULZMDeHLHc2mZnpJCUl7VfoJ9R609jYTFNDA63trXR0dODp6aG/V1SqRkb8VmUrgBYU7880TUTT0D5jJaLiJFvjgdPhEJZUMTEkxMWRnJpKWloaOdm55OTlUFQs/NTy8/PHbcXx+/1c+z/X8sKqVbz+xhs8/eQT/NJScJ8ydQqvrlkz5jUL582nwerrPewer7iEREKjjhHGwQwPRR59uaFrrHxqJS6ni5//8pfk5OQyPDw8RoQi1uVixowZzJgxY8z+DMNgeHgYn8/HyMgIwaCGpgUxdXGapZDcvKridDpwOmOIjXURExM74QAZDGr09YmG6j1799DV2UVPdw9d3Z10d3bR7fHQ092N1zuAt68X34gfn9+HfgDlqwOiX0UhPi6O/IJCiooLKSkT4KqsrIyCgiKy3JlEx/TPAK6wuMi6EQYuNCHSoodVHYKaMPULgQdN1zFDi3zdEI7sZhj1NSRrqmniOtdFJcMwDIKahhECDxHAQhNAxKp6CBCiRQjQCCCjoenCIsHQTWHYzIhRAAAcu0lEQVSVYD2uh+3TCFrbGTqGaQjwEPpfF02upgUe9LDtdE04zNvCNaYYCnUTCMm0hio6luiNgYFpgGno45bt91UzEufeiF6AH1G0trTw4J/+dFDbJiYmcuZZZ3HcggXMnDWTzIxMnE4HkqQQDGqo1kL48xgBSwkxGAgQ9AeF6WZQLAZmzJpB+aRyamtqeeWll1i3bt2YKmNHext3/PJ/xbJAOrRrWiQXrO2DEIxetmOA6ZjHJlBNExVCGUkWCzTJAliSLFkGrBLY/4PE2OcF+BNA1ganlj1NyKom9JwN8mQB8FRFRrLWLqqq2pLaIeArq6rFLBLbyqG+FcvsNgQehZqyAJ8CYI6C3NBxwoGsfSxVsYGzqo6CXQGIxXvd9/XiM1iPWfe4qqo4VNUG3rKsCiBu70OypcJDADcan3xkZmaSmZnJnDmz9xljTDo6OmhoaKCmpoaaqhpqa2uor6+nuamZEd9IRAIwMDJCx0gbHR1t7BzvnlQUHA6VmNg4EuITSElJJjUllfTMDNJSU8nMzCI9I53UFAsI5biZPHkSSUkpJCTEjakamaZJMBi05OX9IhlqielFABnrfnA4HJZsveuwRZqCwSANDQ3MmTOHt996iycef5w3168PG2PG7+XSD4KOeEDg5XQ6URUZLQiGbhAMBPc7yBm6zjVXXQnAmaefbg9yipUBS0xOITkpibS0NNLS0knNSMWdmUlKahppaalkZGaSlJREclIScfGJpKcnEBMTM66JZSAQxDfio7+vj9raThobGqmrq6O1tRVPj4furk48Hg+9Ho9Ay1YGPbRI/LBCVVVi4+LIzsmxvLrKKSktpaysjLKycjIyPn0GcyYIQGABAwEmsBUfjTD1R0PTCAZ1qw9OQ9MsqpMFJDQbfAjura5pGFYpW7MqE1oIFOgGpjH6v2maNkDQtBCwCKJZijcCyIT68DSrKiEW/3aFQhNVCiN0HEO3jquN9u9Zf2uGqEpomo5uiPdpaqGqiPVZgkH7hjYFGrBvfhA0Mfs5Yx9wYG8z+vdEoCJ839GIxse5MD2c8W9gYIAnH3+cJx9/XOxTxkoaScjiQEhhx5NkCdXpwBG2SFRDi0BVFXYcDhVFUVFUkZ1UrJ5d4btoVUkcYlHpUBV7e9VaoNpKt4aOrlnjQqjqqIuKYSjRoJtW4sPq5zVCXjGBACN+yzMm4Be/R0TPgJ1QCGVYDevchbEwxhsrJg6Diebl8b6naOLh4IDpmMcmyJUeSRL1izZGIEtjksJyOIAK/S2NdrWM7sYaE8LGhYjjyKIiK6uiWqmEKqXyKKANVVAFoFXtyqnYRrLV6yTLo1VVRZVDkRW7mmr/DgFZRVRMxXpUjC+h8US8B1kcNwzIKpL1uKpa1VnFrqgqqoJDFbZCiioqvTZAVmSkUK+Soohj271MIbBsnQMLBI+C2FAlVrapw4r1+o8CyEqSRHZ2NtnZ2cybN2/M821tbUKroLra/mmor6e7sxN/IDDmvjJ1nYCuExjx4+3tpbW5ab/Xnp3YUBWRZFCEjkFCfALxcXEkJieRkJBIXHwccXFxJCTEk5iQhCvGZfn7xhAXG0uMKxbVqdrVa0HhF+yRgGVbFQgECPiD+APCnzdEtxwYGKDP46Gru5vuzk68Xi8BK6ENcPsvfznmnB3pGDMh8IpxuXA6nYyM+NE1fYykLUBBQQHxCQm2W3MoxustGBgYoPUQAE3oi5DDvpxQhl0zdEHnCX78OcCYmBgKiospKigivzAft9tNbJwoVRqaQX9vP+9ueJd33nlH9F9YQCM02dsAYH9VCcMcQ7HSgkHxuAWINGuRYWimVaGwqE3WNuKYFoXLsGQ77eqEAAf2giK0cAiBh7BKRjSi8VlZNEiyZGW5ZCRllH4Qns2WpFAGexQkyBLWhCsjWwJAoUlBsTLliiwjySFKFmJSto6nWhngUDZbsqhOSqhpWFLEpKsqFvVJ/B3axuFwWnQsCTl8MSDJERny0N+KLOFQnaiWGaXDmvxDzcmqOrpAEK8ZXRC0tbfxwqrneWP9+gkV+8aLT2Ks/Txft1lZbhaesIhlZy0jPy/PahwXiSxNs5JUoUq5lSjS9dB8Yj0fDBIMBC3KbBBNC80Jhi3XHEpA2XOGoaMFRWLLsCrfWlBHs2i2umHYSaxQosrQQ9YuBpom5jA9oFnzsEUlNk0IUWrDrFxClXTDNIUdTIh+a80xIQAVqpBjiNcwBvAK5s1H7fMTBa+AzhgqV/Qsf1SDgQCvoTXuvqBWTFMCzEpj5i3JBniKRe8N0YZlSR6tpoZot1IYpdfaTpVkVIfDErKwQGoIaIYDWavCmZebS447h8HBAVrb2mhsqKfX4znsa8/UrWtL0+yK/tDgwKf265IVhcpJleN8FhN/IHDkwCsuPp6EhES83gFM06C/r3/MNqefcTqvrlnDnXfcwernnxdVDVOYKR/Jwl3TtIgv4tMUIyMjVO3eTdXu3dFBIxr7HUzHzSRKklC/kQirHoxTObCyjnZPY9iAi4QYiBFZs/CeDkmRLZqMRX+RJGRZlMfFayW7j2GUJiMG8BA9xuFwhAGIUVqLABCqrUoUGsAFMFBwqGIQV9Sw6oQsW9nEUOZylGYzSrkRFBqHYxRA2L0fsjWpWFSW0PsJTQiqbP1vAw/xPkW/hyImrRB4CqPEABGUmI/KO+rTFlOmTmHpUtFA/M7b7/Dcs8+xds2/aGlpGZfuGV3kfjjJAUmWyM7J5YTFJ3DO8nNYsGDBF+aaG5MZNiJ7PkMCM+F9ooZhAqbVByoy14aVbNQsanZEH2ioN1QzwpgYYWA1KDLYIUq4HkbdFsyIEJtjlGURYmwYhmD8aHoQUzesbPgoWNUMQb8eTarqFotjlP2hW3Rt0xReo6auo4lG2Ig+0AhP0jCKu4Homw2nchNO9Z6gMhsFqp925CsS4TYAicYnGg6nixiXE2dMjBAKNETRaWh4mOnTZ3DNT37M0qUnjnndwMAAIyMjRw68kCQSEkf161vbWsdFebGxMfzhrj/Qc/NNIhNnGgQCfoYGh/AOeOn19OLxeOjp6aGzs4Oe7h56unvo7Oqkp7uHYMAvuM/W4nFfjnREA/A+zcNq2IIqVEaOT0wkJTmZpJQUMtIzSElJIS4hjtaWVvbs3kVNVTUtLS2HZVD3RQYOglYqqgPhDXWR1KOwCgOjpWTF4bCoRvvQCmQFVZUjePNiIS3bDdMOh9P2aFAjeO9Ws3WoudqiAajK6P6cLqdFGxhbRQinE4jnRLVDtY6lOFSL/z7a9C1JssXbV+xMUygLNcqDH23MVsIyT7IiWZ99FBhMrE5mNXhbwAhCDd+jTfVSlD8fjUOMjo4uXC4nKSnCcHf+cfNtZcPm5mabWjF+MszA5/fh843g94/g9/kZHB7ENziMzz/CyMgI/hE/Q8ODDA0NMzISesyHb9iPzzfIyEgA38gIIyM+/P4AIz4fwYB/VFTEEiAxDTMyA2zR1sMrmJKi4LDojE4L7DstmxKn4sDpFODf5YpBVhWcqhPFodiAX7XGCsVKMqiKIvoDnA6cDhcONXzcENVQmwqpKqgOcWyX04HqdNr9NCJhoeB0OuzxSHWouBwuCovHqj52d3eTkZHxhboOQ/470TjItXkIjJqm3R4wnqhRJFjVLSEhLULASNdNu7dYJMrDQKemj7YKWD96ULOrsHpY37FdWbX2ZVhiQ/syfEICQyGxIS3E8LHArqlrNhVY0zQ0Uxe9x1pQUImttoJQpXR0f9b7May2CF0f0zJghrUK7NsmEAFA92H6RJx7CxxF48NJQoUomqlpGbb4XXZONjnZOWRlZaLrBl6vF29/P319/fR7+xkc8NLX1493YIChgSEGB/rRtEOnDkuyRExsLIkJiaRnppOTnUteXh65ebkUFhaSnZNLVlYGiYmJEdoUw8PD1NXVMW3aNILBIDt27BjjA+nx9BHwfwgVL4CszEz27tkLCPnbsSdSshX40tPTP1MXQV9fH01NTTQ1NtHS0kJzUyNtbe20dbTT2+2ht6+XgD8gfMH2ERI42ItMkiVUh0qMKxZ3TjaZ6en2gj4cOCghQKEqqCFOsyqaVmVZwakqyKpDcIodjn34y6OcYlUR/GWb6qSotpqUQ3VEgIkQ+JAsvrLYXrHpSaKp1qpqOMIacmULmCiyBRqEMlSoyTaKBaIRjU8+hoaG2bNnL2+/+Qbr17/B1q1bGBoaQlFUvv1f3+G666+L2D4/P/8TXFmCP+DH7w/i9/vQAhqqU0WxAFSIPulwOD5XyYYbb7iBh//6ELFxcRQUFlJeXk7llMlMmlRJZeUkCgoKcITZukTji7pglcY14I7GoYDX0T523QKchmHalUjD9n8Vyrkh8Dr6Y/WkWz2loQqsZlVGTQuQBoNBu1o6FqQKEBwS3YqwBAlVYoOjQllmqFpri2YZ47SkhECyLmjAumg30UMVV91AN60eek3fp9oc6oEXwJrwNhTTUg40zDH97tZfEW0qkiLjVB0kJyeTkZ6JO1eAqZzcbNzubHLzcnFnuclyuz9zlkhxcXE20HI4HGNAFwj/3kOh4+/3bi4qKuTNN98CYNu2bZ+rGzElJYWUlJRx1RVDEQgEGBgYxOvtx+v1Mjw4zODwIMPDIqMbkqI2TEP0eMgKsbGxxCfGk5iYSGpqKhlZWaSlpERHvmh8oTK04f5UQglSx8S06UViAjBsmsyo7Pyo/Lz9Wn00q2nopt2/oumWSIstrmBlRA3dnnxC9CR74tREBlcPKUmGvT7UDxMhZx8SbNBGzdaNELXIEpTRrf4VPVwB0lKE1PSxUvO6JfZiWJ9LCwbF4xadyLTeh005MsVkSqh/xtCt/Zt2f40Zmkx13cpkG+NOBIau8/hjj3LNj67Zr9zvx7uyFH5XwvMq4QtxjxiGwernXxSeOl4vO7dvZ+f27fDM2OxwqIKPYkmsh5gfVuJMVJAkFEn0IYYq7djS8aMKd5KVzAuJFchW1V5RFKsHRBL7sJkkit3nKCmWsEFY4tBWzgvfT5jAgXjNaK+jpEqokoKiyihWb6JIBgphgfA+FNlisoRMVUPJPVmSbGpxiA2jyGrEMUNsAtEjLj6XKimCnWH1coaOZ8vzK6OshnAmQjQ+D+AVVFX0/0bj4Ofx8LkwJFghgKgAjSEVZ5fL9ZEYL39WYu/unYdE490v8Jo6dar9964dOwkEgjidX5wMnNPpJD09jfT0tOhd+GkbFAipioUW7WbEwl2oJhoRdIwQGAgJkAhPJfH36CJfj1z8YlqL7LBFuDX4hP4P358etgA2TXN0QW9lqjBNq19AeEGFaBdG2GI79L8REk8xw+gkoe2sz2pY7y2k5iYoGaatUGkY5miDveUbFeor0HUT3QgpTJpWT4FugwnCz6XV9G7LxFsZL0KP7dN7YIT+x/KpCpORN8OyaKYZUos0McdRihTMj6jYy4cZp516+qcHdH1BQ5ZlFhy/iKefeGKCRY+BFjSioiYHvbAe2xcrnrBo82G9tOFU+PDXSOG9siEAZvW/jlJfRyXpZQvojkrOj1LkBYVetcGtLVygKJayX0jOPaTIJ0eo+imKIiiuqipApSyHScCH7cOm4Yfk7AWoDdHaQwqhchgdP8SWCbFVVFkA8lD/q/gtaLKSBXJVVUWVZbCBfpjwWRhIHf1btqn4otd2VBwiRJsPB72RNHvRqzwq+x+9vj+ZeypaaT3Y2PzBllFQ5XDgdmcdPvA66ug5qKqCpul0tLfx1ptvcuI4jWXR2GfSDGUF7Oy5tai1FrpiYayFlb7/v72z+7GrKsP4s9fae88583GGGQZmYAh2elFjsDaQaEz4BzDUECF+YC+Niho1kciHN2jijTfcGI16CfFOI0aiErlAMNEEKXiDYBpKCFQKlUo752vvvdbyYr3v2nsOtVML2Bae3w0tnTlz5pyZvdfzfjyPe0t4bHSs0jZ1p93sfZrX1jZ1CEEq8W0+lK9dypPytcxRyyFfD/cqLhq3U3i0h/uQFpbj85ZqvWuSM5X3Ds6H9Fi+EwqbgmV9O6rpZly64nPbeXA/l4N9/DsQ4BCbATt3RLoH+NC1etfwPT8zv92Z8wbwlscg5JK4Wcph80wHeSDmrNz66dv4Ql0E3HrbbfjVL37ZvjdnsvbW8R9y9ntu8MmNj1fsd/MCo0JWrOKznfbxUlbo6t50ZRKbmfbfZh36ZrPUMtt+LTGlysSUypiO6ZRBMpTquv8ZsWbvWsNrhxRpX9t0gsU7HgK6QpG6oEh29rrWkWmXWLqvbde0FcUmM9INhjjmtvlmmgNnO0Hnmaxw5GJVH0PAc+numh1fp7t/nnbJxXpfRVNeFK2Qzruf3xHzpnXo1bUTFdC6E8vu79muPcDhvz6V/v6hD+7D1tbe8xdeHzlwPa5cW8OxV48DAL759W/g+htuwL59+7Bnaw82Nzexec0mVlcvx/Ly4LzVsYakTSYVRqMhxuMRRtsjnN4+he3tIYajEYbDOOI3Gg4xHk9QTStMpxNUVR2zm7RSr+GwUulvVNjIXO2so5LasEfbdR9zpLx2I6I7kFOhog5EQd2DpGsi400OKkB8ch8i5H1bgVYhYNKfojmLWrFIUGm6oZt0224rpDNV69YeXm/iehOeCT01Riq2Mq4EdG408aYXb3AyBqWGC0WeDBesujJCHBD1xprGueLoVdzPzKXSXaTPL4oimQAZqWjHG7uYrqQKczRviO6MOWxnnzMZPMhjZCaDVddKNRVK41adKrnNkRcWJi/xwpEj+NxnPou6rsU10/IH9CJg7969yOcK1JMpMgAP/PxB7N+/H66pYhdbR1nFhc9JkLpzWrgKcIDcf3xywHNNg6aukvufqxt4L3by3Xtg0OJYSMU7J/e4pq7bTMSmbsdjG8lGk4/Ve2t04/OxQBhiUHpTVbEDr4/lmmSP37jQGeeVUNQQ4Dxip1+79qnI5qKoii3y5NwHGc/1M5lqAWfIX/RdIRtaz/S0t4J2p2WmYEFmCgEdy3m+Qu99oW3FR0BFsrE2dpCNGn1pF1jFa/zvju6xMSjyHJk4Me+0wJf7a7LAz0V0dkLGTSb7vjLuLNb3arCmngg2k7ByI2PTdjbfLT5uYQusrK5i46oNbFx1NVZWlrG0tHTWaZCqqnHy5Bt4+eVX8Pzzz+HwU8/gT0/8ES+/9FI8u1iLr3ztq7u/rCGcPW75+/fdh5/89Ge7PlBRzqG/MI9+2UM5V6AsS1mGjm+cl10ELxfzumlQ1TWqukYtIoohh+RCioRWKLSVnY5m6AiGbKZiB9gsS9U8K9UiZN1dg9a2Pes4d6aKlpGLmIkXIJMhfbyVi5uKCWtsvHiJG5sR45Pc6GPKc7AWeaaBlRrymEt+VAyzza1FXubIbZFs2zWzypr4u5vbTEZm4sXMpJGV1uEt7mvkKPMiWtrL59qsFS2Zih2pRLZGMHkSGKb7HCRzyxjTscHPkoNpZjPA2O4bRM5APZ3i4x/9GI6/9hoA4Lr9+3HPvffixhtvRDnHkcMLwYsvvojv3fdd/OGRRwAA/V4Pf37yL1i7Yp0vzu6nfyCNZwfJqWx3S4P3kiEWkqhzTQVXu7Sf4nwc03ZSYNVxcZ0GcQEydRHFZVPXbWFXRWTX7CC57on9PYI8t1YQR/MELRRHe3vXOBHEUUz7JgraprM3GgVtkGw3zWSLAjs0jUyt6LSHTqCIiAZSkKz3+pxad0Pv3MxOLaTIjHYUPOV/6r+3kit+XNj53oS3ijHa2pNLAZPn6Pf7KIsi6RcEj6bxqOopxru4oR/6/O34wf33v33hNRpu4+DNB/GP557nu3JRCgbflQj/pWjRERLJujy2z2MF/ExLxu0cusltu9iccqNkJl0/P1X0baru68x6JvPheddZMRdBIeG0sZsQKyZGrd2tbasaeRFFgnYjyjLZqls5oGtXwFjtMMRZ+8xIiKwVoVKWIjhKWSRvxZHRak3qimiXQ1rwYidt8xLGGpT5XLS6VqHVfZ2NieG8KTfLiKijUCD/X75z11144IEHd1w7LltZxrUf2IO9W1vY2Lwa6+vrWFlZxcL8PBYXF9Hr9yTcWfLQsiwdvnS3UkeltZPSuIszoiOIKYserJsdS+OaBxXgQjyUhuA6pi1N2t+cTqY4fvw4Tpx4HePxWIqOJRaXFjFYWsJgaYCV1VUMBgMsLi2i3+/DZBnqusHJf5/E0ReO4qknn8TThw+nzweA/R++Dr979FH+oJILgwi8oIJVBCwQ92zV7S7o71JTxRUFddWT/eDQaP5YSKIxrhK4VoiKQK5FhHoXc9baaSXfMUbSFYa2O+vQyYKrG9SujmZJOwStT7/jKmCdfG0vv99OTJ+i2ZJ0mL2YNsmftbPcrlbIHjlCWqnwwckKhQhZNVjS/DUXv3doTpuudQDymsfvp30vwlnGi31HvPLH9mJhvt/HHXd8Gd+6++5zO7vvJrz0Hf79bx/G448/gb89/QxeeeWfODU8HUMJ36EuVdc9yZgsCYJMZoyszvSa9pCcFjJNOwKkHQKdc9W2p3Yc0sHcapdAQmht2wmIo0JlPLTLrG+GDMaiPZRbyYRKTko2jQQVZQlTRJv4vCji18rke5TDPURwWOi8rpVOQjzg59YiK2N2VV7E8SPtBERR0REtne8/t9rZsJ2RoyIF25puJyYJM53JzsBNVkLee4xHI9xy8CCeffbv/2NhJ9uxp4GZIwF3Id+Ze9+PfvxDfPKWT/HFIOQ9iajXEBDgEbxIqKC76uLC20iGmfPwaeRYwrpdx303aJdWhJ+LYjl1ZLsdWumQhuT865IwhhMxKqPGIQA+hYz7NKEWs9QahEbWc9RtOPi0XuNErCdR6VovgbqppLil3dpaxo5jd9qJRb7f0a1tu8bRbyCkAHIv48feuXa/32lXNiSBi2SqBgRZ7Nfi4Y7AcVWyHWOwsMs1u1eW2Nrag5tuugm3HzqEjc3Nc7+3npPwOgN1VeH4sWN489QpnDhxAm++8Qa2JxOMxhOMt09jOh6jcXVU+t5F8VTEUaTe/DwWlpawMDeH5ZXLcOX6BjauWsfq5VfELoGKgXj3pxgghJC3yXQ8xj1334WHf/MwxuMJX5CLgMFggDu/fSe+8MUv8cUghJB3TfuGtPcZ4KMYk//X1BXq6RTVdILhZIpqMsG0bjAajVGNR6jrKeCBsjeHwcoqVpeXsXntNcjM+flanLfwIoQQcunx0tGj+PVDD+Gxxx7DkSNHcOr0EE1d7961yqI3WVy01tHeuASddjhCW3X0Uk0MCCka4ELFAqi9dRwTLmZc1GQcGO3odXL1yjJAphyyrguaUVeyuNjdK0usX7GGlcvX0CsLeAB17TAabWN0+jQmkwlqmQ6Zn5/H1ZubOHDgAD5x881YXVvjDyUhhLxPoPAihJD3K8Hj1WPH8PqJf+H1145jOBqirmsEj7SrWRYFFhYWsLA8wML8Asq5Av2yh16/h7LfR24LMTgIgOx56ahLU0cjJeca1M6jbhpMhkOMh0NMJmNMqxpVU6OqG1TTKSajEcYSUF/XFeqmQZOCp13aD4ELgO6kyjh4YS2KwqJX9jC/tIjByioW5vtYXlrE2pUbGAwGuGx5gPmlQccxM0sTFkCb8cQpC0IIIRRehBBCCCGEEHIJYvgSEEIIIYQQQgiFFyGEEEIIIYRQeBFCCCGEEEIIofAihBBCCCGEEAovQgghhBBCCKHwIoQQQgghhBBC4UUIIYQQQgghFF6EEEIIIYQQQuFFCCGEEEIIIYTCixBCCCGEEEIovAghhBBCCCGEUHgRQgghhBBCCIUXIYQQQgghhFB4EUIIIYQQQgg5R/4DsrKnztOthHEAAAAASUVORK5CYII=;rotation=90;shadow=0;" vertex="1" parent="1">
          <mxGeometry x="-10" y="185.03" width="604.62" height="469.95" as="geometry" />
        </mxCell>
        <mxCell id="3nH2F0Kgi0OkO7_tEUe0-11" value="&lt;font face=&quot;Helvetica&quot; style=&quot;font-size: 24px;&quot;&gt;0&lt;/font&gt;" style="ellipse;whiteSpace=wrap;html=1;aspect=fixed;strokeWidth=2;" parent="1" vertex="1">
          <mxGeometry x="120" y="400" width="40" height="40" as="geometry" />
        </mxCell>
        <mxCell id="3nH2F0Kgi0OkO7_tEUe0-12" value="&lt;font face=&quot;Helvetica&quot; style=&quot;font-size: 24px;&quot;&gt;1&lt;/font&gt;" style="ellipse;whiteSpace=wrap;html=1;aspect=fixed;strokeWidth=2;" parent="1" vertex="1">
          <mxGeometry x="200" y="400" width="40" height="40" as="geometry" />
        </mxCell>
        <mxCell id="3nH2F0Kgi0OkO7_tEUe0-13" value="&lt;font face=&quot;Helvetica&quot; style=&quot;font-size: 24px;&quot;&gt;2&lt;/font&gt;" style="ellipse;whiteSpace=wrap;html=1;aspect=fixed;strokeWidth=2;" parent="1" vertex="1">
          <mxGeometry x="280" y="400" width="40" height="40" as="geometry" />
        </mxCell>
        <mxCell id="3nH2F0Kgi0OkO7_tEUe0-25" value="" style="curved=1;endArrow=classic;html=1;rounded=0;exitX=1;exitY=0;exitDx=0;exitDy=0;entryX=0;entryY=0;entryDx=0;entryDy=0;strokeWidth=2;strokeColor=#3399FF;" parent="1" source="3nH2F0Kgi0OkO7_tEUe0-11" target="3nH2F0Kgi0OkO7_tEUe0-13" edge="1">
          <mxGeometry width="50" height="50" relative="1" as="geometry">
            <mxPoint x="214" y="186" as="sourcePoint" />
            <mxPoint x="266" y="186" as="targetPoint" />
            <Array as="points">
              <mxPoint x="220" y="110" />
            </Array>
          </mxGeometry>
        </mxCell>
        <mxCell id="3nH2F0Kgi0OkO7_tEUe0-27" value="" style="curved=1;endArrow=classic;html=1;rounded=0;exitX=1;exitY=0;exitDx=0;exitDy=0;entryX=0;entryY=0;entryDx=0;entryDy=0;strokeWidth=2;strokeColor=#3399FF;" parent="1" source="3nH2F0Kgi0OkO7_tEUe0-11" target="3nH2F0Kgi0OkO7_tEUe0-12" edge="1">
          <mxGeometry width="50" height="50" relative="1" as="geometry">
            <mxPoint x="164" y="296" as="sourcePoint" />
            <mxPoint x="216" y="296" as="targetPoint" />
            <Array as="points">
              <mxPoint x="180" y="310" />
            </Array>
          </mxGeometry>
        </mxCell>
        <mxCell id="3nH2F0Kgi0OkO7_tEUe0-28" value="" style="curved=1;endArrow=classic;html=1;rounded=0;exitX=1;exitY=0;exitDx=0;exitDy=0;entryX=0;entryY=0;entryDx=0;entryDy=0;strokeWidth=2;strokeColor=#3399FF;" parent="1" source="3nH2F0Kgi0OkO7_tEUe0-12" target="3nH2F0Kgi0OkO7_tEUe0-13" edge="1">
          <mxGeometry width="50" height="50" relative="1" as="geometry">
            <mxPoint x="164" y="416" as="sourcePoint" />
            <mxPoint x="216" y="416" as="targetPoint" />
            <Array as="points">
              <mxPoint x="260" y="310" />
            </Array>
          </mxGeometry>
        </mxCell>
        <mxCell id="_MQMz2NcS-Aaa2Q7bcc7-2" value="&lt;font face=&quot;Helvetica&quot; style=&quot;font-size: 24px;&quot;&gt;3&lt;/font&gt;" style="ellipse;whiteSpace=wrap;html=1;aspect=fixed;strokeWidth=2;" vertex="1" parent="1">
          <mxGeometry x="359.86" y="400" width="40" height="40" as="geometry" />
        </mxCell>
        <mxCell id="_MQMz2NcS-Aaa2Q7bcc7-3" value="&lt;font face=&quot;Helvetica&quot; style=&quot;font-size: 24px;&quot;&gt;4&lt;/font&gt;" style="ellipse;whiteSpace=wrap;html=1;aspect=fixed;strokeWidth=2;" vertex="1" parent="1">
          <mxGeometry x="439.86" y="400" width="40" height="40" as="geometry" />
        </mxCell>
        <mxCell id="_MQMz2NcS-Aaa2Q7bcc7-4" value="" style="curved=1;endArrow=classic;html=1;rounded=0;exitX=1;exitY=0;exitDx=0;exitDy=0;entryX=0;entryY=0;entryDx=0;entryDy=0;strokeWidth=2;strokeColor=#3399FF;" edge="1" source="3nH2F0Kgi0OkO7_tEUe0-13" target="_MQMz2NcS-Aaa2Q7bcc7-3" parent="1">
          <mxGeometry width="50" height="50" relative="1" as="geometry">
            <mxPoint x="314.0021356237311" y="405.85786437626894" as="sourcePoint" />
            <mxPoint x="425.86" y="186" as="targetPoint" />
            <Array as="points">
              <mxPoint x="380" y="110" />
            </Array>
          </mxGeometry>
        </mxCell>
        <mxCell id="_MQMz2NcS-Aaa2Q7bcc7-5" value="" style="curved=1;endArrow=classic;html=1;rounded=0;exitX=1;exitY=0;exitDx=0;exitDy=0;entryX=0;entryY=0;entryDx=0;entryDy=0;strokeWidth=2;strokeColor=#3399FF;" edge="1" source="3nH2F0Kgi0OkO7_tEUe0-13" target="_MQMz2NcS-Aaa2Q7bcc7-2" parent="1">
          <mxGeometry width="50" height="50" relative="1" as="geometry">
            <mxPoint x="314.0021356237311" y="405.85786437626894" as="sourcePoint" />
            <mxPoint x="375.86" y="296" as="targetPoint" />
            <Array as="points">
              <mxPoint x="340" y="320" />
            </Array>
          </mxGeometry>
        </mxCell>
        <mxCell id="_MQMz2NcS-Aaa2Q7bcc7-6" value="" style="curved=1;endArrow=classic;html=1;rounded=0;exitX=1;exitY=0;exitDx=0;exitDy=0;entryX=0;entryY=0;entryDx=0;entryDy=0;strokeWidth=2;strokeColor=#3399FF;" edge="1" source="_MQMz2NcS-Aaa2Q7bcc7-2" target="_MQMz2NcS-Aaa2Q7bcc7-3" parent="1">
          <mxGeometry width="50" height="50" relative="1" as="geometry">
            <mxPoint x="323.86" y="416" as="sourcePoint" />
            <mxPoint x="375.86" y="416" as="targetPoint" />
            <Array as="points">
              <mxPoint x="420" y="320" />
            </Array>
          </mxGeometry>
        </mxCell>
        <mxCell id="_MQMz2NcS-Aaa2Q7bcc7-8" value="" style="curved=1;endArrow=classic;html=1;rounded=0;exitX=1;exitY=1;exitDx=0;exitDy=0;entryX=0;entryY=1;entryDx=0;entryDy=0;strokeWidth=2;strokeColor=#FF3333;" edge="1" parent="1" source="3nH2F0Kgi0OkO7_tEUe0-12" target="_MQMz2NcS-Aaa2Q7bcc7-2">
          <mxGeometry width="50" height="50" relative="1" as="geometry">
            <mxPoint x="164" y="416" as="sourcePoint" />
            <mxPoint x="296" y="416" as="targetPoint" />
            <Array as="points">
              <mxPoint x="300" y="730" />
            </Array>
          </mxGeometry>
        </mxCell>
        <mxCell id="_MQMz2NcS-Aaa2Q7bcc7-9" value="" style="curved=1;endArrow=classic;html=1;rounded=0;exitX=1;exitY=1;exitDx=0;exitDy=0;entryX=0;entryY=1;entryDx=0;entryDy=0;strokeWidth=2;strokeColor=#FF3333;" edge="1" parent="1" source="3nH2F0Kgi0OkO7_tEUe0-12" target="_MQMz2NcS-Aaa2Q7bcc7-3">
          <mxGeometry width="50" height="50" relative="1" as="geometry">
            <mxPoint x="244" y="444" as="sourcePoint" />
            <mxPoint x="376" y="444" as="targetPoint" />
            <Array as="points">
              <mxPoint x="340" y="920" />
            </Array>
          </mxGeometry>
        </mxCell>
      </root>
    </mxGraphModel>
  </diagram>
</mxfile>
